<svg width="106" height="106" viewBox="0 0 106 106" fill="none" xmlns="http://www.w3.org/2000/svg">
<g clip-path="url(#clip0_415_14)">
<path d="M53 106C23.85 106 0 82.15 0 53C0 23.85 23.85 0 53 0C82.15 0 106 23.85 106 53C106 82.15 82.15 106 53 106ZM53 8.83333C28.7083 8.83333 8.83333 28.7083 8.83333 53C8.83333 77.2917 28.7083 97.1667 53 97.1667C77.2917 97.1667 97.1667 77.2917 97.1667 53C97.1667 28.7083 77.2917 8.83333 53 8.83333Z" fill="white"/>
<path d="M97.1666 70.6666H8.83325V79.5H97.1666V70.6666Z" fill="white"/>
<path d="M52.9999 79.5C52.1166 79.5 51.6749 79.5 50.7916 79.0584C48.5833 77.7334 48.1416 75.0834 49.0249 72.875L71.1083 34.45C72.4333 32.2417 75.0833 31.8 77.2916 32.6834C79.4999 34.0084 79.9416 36.6584 79.0583 38.8667L56.9749 77.2917C56.0916 78.6167 54.3249 79.5 52.9999 79.5Z" fill="white"/>
</g>
<defs>
<clipPath id="clip0_415_14">
<rect width="106" height="106" fill="white"/>
</clipPath>
</defs>
</svg>
