<svg width="107" height="105" viewBox="0 0 107 105" fill="none" xmlns="http://www.w3.org/2000/svg">
<path d="M86.277 18.6692H20.415C18.6812 18.6692 17.2831 20.0451 17.2831 21.7465C17.2831 23.4479 18.6812 24.816 20.415 24.816H86.277C90.6688 24.816 94.2431 28.3313 94.2431 32.641V32.9395H20.415C18.6812 32.9395 17.2831 34.3076 17.2831 36.009C17.2831 37.7065 18.6812 39.0824 20.415 39.0824H94.2431V72.3629C94.2431 76.6688 90.6688 80.184 86.277 80.184H20.7191C16.3273 80.184 12.753 76.6688 12.753 72.3629V32.3348C12.753 30.6334 11.3509 29.2576 9.62101 29.2576C7.88718 29.2576 6.48511 30.6334 6.48511 32.3348V72.3629C6.48511 80.0677 12.8715 86.3308 20.7191 86.3308H86.277C94.1246 86.3308 100.515 80.0677 100.515 72.3629V32.641C100.515 24.9362 94.1246 18.6692 86.277 18.6692ZM84.4483 62.5729C86.1782 62.5729 87.5843 61.1971 87.5843 59.4995C87.5843 57.7942 86.1782 56.4261 84.4483 56.4261H53.346C51.6122 56.4261 50.2101 57.7942 50.2101 59.4995C50.2101 61.1971 51.6122 62.5729 53.346 62.5729H84.4483ZM25.0833 54.7324H34.7991V64.2627H25.0833V54.7324ZM37.9311 70.4173C39.6649 70.4173 41.067 69.0414 41.067 67.3361V51.6551C41.067 49.9576 39.6649 48.5778 37.9311 48.5778H21.9514C20.2175 48.5778 18.8194 49.9576 18.8194 51.6551V67.3361C18.8194 69.0414 20.2175 70.4173 21.9514 70.4173H37.9311Z" fill="white"/>
</svg>
