<svg width="83" height="95" viewBox="0 0 83 95" fill="none" xmlns="http://www.w3.org/2000/svg">
<g clip-path="url(#clip0_415_25)">
<path d="M44.058 0C45.8727 0.3116 47.7138 0.5168 49.4983 0.9538C56.9872 2.7968 63.1971 6.5968 67.5206 13.1442C69.49 16.131 70.6558 19.4332 70.9953 23.0014C71.0519 23.5942 71.233 23.8944 71.8178 24.1224C75.0095 25.365 76.96 28.2074 76.9902 31.6426C77.0241 35.2906 77.0845 38.9424 76.9751 42.5866C76.8657 46.1092 75.1944 48.7008 71.8706 50.065C71.2896 50.3082 70.6256 50.3956 69.988 50.445C69.192 50.5096 68.3846 50.4678 67.5848 50.464C64.6232 50.445 63.6008 49.7914 62.269 46.9794C60.0167 53.2342 56.874 58.7936 51.7016 63.0002C52.7655 65.588 54.1916 67.906 56.3534 69.711C57.3494 70.5432 58.4849 71.0144 59.7639 71.2576C66.0493 72.4546 72.1913 74.0886 77.8768 77.159C80.148 78.3864 81.6533 80.1458 82.0607 82.6994C82.4305 85.0136 82.6681 87.3468 82.8869 89.68C82.9926 90.7858 82.9247 91.9068 82.9247 93.0202C82.9247 94.4794 82.4342 94.981 81.0006 94.9848C79.0878 94.9886 77.175 94.9848 75.2623 94.9848C50.8904 94.9848 26.5186 94.981 2.14682 95C1.24513 95.0038 0.52077 94.8252 0.00390625 94.0576C0.00390625 92.1424 0.00390625 90.2234 0.00390625 88.3082C0.18877 86.8718 0.369861 85.4354 0.558497 84.0028C0.996134 80.712 2.50522 78.1926 5.65168 76.8246C6.44018 76.4826 7.19095 76.0456 7.97945 75.6998C12.7142 73.6288 17.6603 72.2266 22.7384 71.3564C24.9492 70.9764 26.6167 69.8896 28.0428 68.267C29.4236 66.7014 30.446 64.923 31.227 62.966C30.7931 62.605 30.3593 62.2668 29.9443 61.8982C28.9973 61.0546 28.1862 59.85 27.0808 59.432C25.949 59.0064 24.5266 59.3332 23.2326 59.337C19.0373 59.3408 16.3775 57.2888 15.3514 53.219C15.1288 52.3298 14.993 51.4178 14.8345 50.616C13.5857 50.4602 12.3294 50.5172 11.2315 50.1296C7.91154 48.963 5.93463 45.999 5.92332 42.4384C5.90822 38.9766 5.92709 35.5186 5.92332 32.0568C5.91954 28.2644 7.72291 25.5246 11.2429 24.0806C11.722 23.883 11.854 23.6398 11.8993 23.1496C12.1559 20.292 12.9255 17.5636 14.2988 15.0404C18.479 7.3606 25.1454 3.021 33.434 0.9538C35.2148 0.5054 37.0596 0.3116 38.8743 0C40.6022 0 42.3301 0 44.058 0ZM80.0461 91.979C79.8461 89.5546 79.6122 87.2518 79.4802 84.9452C79.3142 82.0268 77.7938 80.2446 75.1868 79.0552C70.701 77.0108 66.038 75.563 61.2277 74.5826C58.8056 74.0886 56.3873 73.6896 54.4179 71.9758C51.5922 69.521 49.7624 66.4088 48.4005 62.985C48.0986 62.2212 48.5061 61.674 49.1059 61.1534C50.4792 59.9678 51.9015 58.8088 53.105 57.4598C56.542 53.6142 58.5566 48.9592 60.1789 44.1408C62.0804 38.4902 62.4991 32.6496 61.7748 26.7482C61.3258 23.0736 60.0506 19.6764 57.8172 16.6934C50.9734 7.5544 37.8519 6.9958 29.9858 12.1676C24.0098 16.0968 21.4066 21.9184 20.9199 28.8458C20.4332 35.7846 21.5839 42.465 24.5455 48.7692C25.6698 51.1594 27.0996 53.409 28.4163 55.708C28.571 55.974 28.8955 56.3198 29.1445 56.3274C31.2572 56.3768 33.3737 56.354 35.4638 56.354C35.9618 54.2032 36.8936 53.4432 38.9724 53.4242C39.7119 53.4166 40.4551 53.4204 41.1945 53.428C43.0884 53.4394 44.4202 54.6554 44.424 56.373C44.4278 58.1058 43.1224 59.3522 41.2323 59.3598C38.3952 59.3712 35.5543 59.3484 32.7172 59.337C32.4041 59.337 32.0947 59.337 31.7816 59.337C32.4456 60.116 33.1398 60.6708 33.8604 61.199C34.547 61.7006 34.7922 62.3162 34.464 63.1294C33.2492 66.1352 31.6835 68.9168 29.3482 71.2082C27.8165 72.713 26.0357 73.7276 23.9041 74.1646C21.3726 74.6814 18.8374 75.2286 16.3436 75.905C12.801 76.8664 9.36404 78.1166 6.15345 79.952C4.78395 80.7348 3.97282 81.8368 3.73513 83.3606C3.505 84.854 3.26732 86.355 3.16168 87.8598C3.06359 89.2278 3.14282 90.6034 3.14282 91.979C28.6993 91.979 54.2633 91.979 80.0461 91.979ZM68.0601 23.6018C68.0677 23.5524 68.0865 23.4916 68.0828 23.4308C68.0714 23.275 68.0526 23.123 68.0337 22.971C67.2792 16.872 64.3704 11.9472 59.5187 8.3296C50.3774 1.5086 40.3268 0.5396 29.8386 4.5866C23.3873 7.0756 18.6185 11.5444 16.0455 18.126C15.3476 19.9082 14.9515 21.7588 14.827 23.769C15.5287 23.769 16.1512 23.7044 16.751 23.788C17.3396 23.8678 17.9093 24.0958 18.5016 24.2668C21.4632 13.1366 28.5257 6.5816 40.0552 6.0572C52.8447 5.4796 60.99 11.9016 64.4081 24.0958C65.638 23.9286 66.8114 23.7728 68.0601 23.6018ZM17.7772 37.1678C17.7772 34.4166 17.7848 31.6654 17.781 28.918C17.7772 27.2802 17.2 26.7178 15.54 26.7178C14.9552 26.7178 14.3591 26.7938 13.7857 26.7102C11.473 26.3758 8.99809 28.5608 8.92641 31.3538C8.83209 35.1538 8.8585 38.9576 8.91886 42.7576C8.95282 44.9426 10.3261 46.854 12.3105 47.3556C13.3858 47.6254 14.5742 47.481 15.7098 47.4886C17.1774 47.5038 17.7659 46.9148 17.7735 45.4214C17.7848 42.6702 17.7772 39.919 17.7772 37.1678ZM65.1438 37.1032C65.1438 39.9152 65.1476 42.7272 65.1438 45.5392C65.1438 46.3866 65.4155 47.2796 66.253 47.3518C67.7923 47.481 69.4447 47.6064 70.8935 47.1884C72.9534 46.5918 73.9531 44.7944 74.006 42.693C74.0965 38.9576 74.0814 35.2146 74.0135 31.4754C73.9645 28.804 71.6895 26.353 69.0863 26.6988C68.4789 26.7786 67.8564 26.7064 67.2377 26.7064C65.7324 26.7102 65.1438 27.3068 65.1438 28.8534C65.14 31.6008 65.1438 34.352 65.1438 37.1032ZM20.6294 47.3784C20.0786 48.0396 19.4825 49.0086 18.645 49.6698C18.0111 50.1676 17.8263 50.5666 17.9508 51.3152C18.6336 55.3584 20.5125 56.962 24.8926 56.2324C23.4476 53.2304 21.98 50.1866 20.6294 47.3784Z" fill="white"/>
</g>
<defs>
<clipPath id="clip0_415_25">
<rect width="83" height="95" fill="white"/>
</clipPath>
</defs>
</svg>
