<svg width="136" height="136" viewBox="0 0 136 136" fill="none" xmlns="http://www.w3.org/2000/svg">
<path d="M110.84 29.75C110.84 29.75 93.5 26.69 88.57 24.99C81.6024 23.0606 75.0873 19.7669 69.4025 15.3C69.0246 14.9352 68.525 14.7232 68 14.705C67.4317 14.6951 66.8823 14.9088 66.47 15.3C60.8402 19.8033 54.345 23.1015 47.3875 24.99C42.5 26.69 25.5 29.75 25.16 29.75C24.6644 29.8304 24.2133 30.0836 23.8865 30.4647C23.5598 30.8459 23.3786 31.3305 23.375 31.8325C23.375 66.2575 23.8 82.1525 34.34 98.345C43.35 112.2 66.215 120.615 67.1925 120.998C67.4313 121.041 67.6762 121.041 67.915 120.998H68.6375C69.615 120.615 92.65 112.2 101.66 98.345C112.2 82.1525 112.625 66.2575 112.625 31.8325C112.621 31.3305 112.44 30.8459 112.113 30.4647C111.787 30.0836 111.336 29.8304 110.84 29.75ZM98.09 96.05C90.695 107.398 71.825 115.175 67.915 116.705C64.005 115.175 45.305 107.398 37.91 96.05C28.56 81.685 27.6675 68.85 27.625 33.6175C34.7787 32.5788 41.8721 31.1602 48.875 29.3675C55.7276 27.1429 62.1831 23.8435 68 19.5925C73.8818 23.7297 80.3791 26.9138 87.2525 29.0275C94.2555 30.8197 101.349 32.2384 108.503 33.2775C108.333 68.68 107.44 81.515 98.09 95.88V96.05Z" fill="white"/>
<path d="M48.1099 69.9976C47.9022 69.8128 47.6596 69.6716 47.3965 69.5821C47.1333 69.4926 46.8549 69.4567 46.5776 69.4765C46.3004 69.4963 46.0299 69.5714 45.7821 69.6974C45.5343 69.8234 45.3143 69.9977 45.1349 70.2101C44.7752 70.6468 44.6004 71.2069 44.6481 71.7707C44.6957 72.3346 44.962 72.8574 45.3899 73.2276L66.6399 91.3751C67.0132 91.7097 67.4987 91.8918 67.9999 91.8851H68.2974C68.5969 91.8417 68.884 91.7361 69.1402 91.575C69.3964 91.414 69.616 91.2011 69.7849 90.9501L94.5199 54.6551C94.8412 54.1873 94.9634 53.6111 94.8598 53.0531C94.7562 52.4952 94.4352 52.0013 93.9674 51.6801C93.4997 51.3588 92.9234 51.2366 92.3655 51.3402C91.8076 51.4438 91.3137 51.7648 90.9924 52.2326L67.5749 86.6151L48.1099 69.9976Z" fill="white"/>
</svg>
