<svg width="93" height="101" viewBox="0 0 93 101" fill="none" xmlns="http://www.w3.org/2000/svg">
<path fill-rule="evenodd" clip-rule="evenodd" d="M25.0471 96.3372C26.5276 97.1789 28.2109 97.6333 29.9408 97.6333C39.5019 97.6333 56.7312 97.6333 63.5943 97.6333C66.4054 97.6333 69.0834 96.4348 70.973 94.334L86.3859 77.2044C92.9296 70.5519 93.7912 64.5794 92.4772 60.6909C90.2017 53.9643 80.9666 51.3349 74.1634 58.2198C74.1634 58.2198 66.5019 65.9732 62.8058 69.7136C62.1804 70.3465 61.3354 70.7 60.4538 70.7H56.1157C56.3952 69.7237 56.5549 68.6093 56.5549 67.3333C56.5549 57.2502 46.6045 57.2333 46.5779 57.2333H29.9408C28.2109 57.2333 26.5276 57.6878 25.0471 58.5295C23.274 55.7251 20.1668 53.8667 16.6338 53.8667H9.98027C4.46783 53.8667 0 58.3881 0 63.9667V90.9C0 96.4786 4.46783 101 9.98027 101H16.6338C20.1668 101 23.274 99.1416 25.0471 96.3372ZM19.9605 63.9667V90.9C19.9605 92.7584 18.4702 94.2667 16.6338 94.2667H9.98027C8.1439 94.2667 6.65351 92.7584 6.65351 90.9V63.9667C6.65351 62.1083 8.1439 60.6 9.98027 60.6H16.6338C18.4702 60.6 19.9605 62.1083 19.9605 63.9667ZM26.614 67.3333V87.5333C26.614 88.4255 26.9634 89.284 27.5888 89.9136C28.2109 90.5465 29.0592 90.9 29.9408 90.9H63.5943C64.5324 90.9 65.424 90.4994 66.0561 89.7991C70.6237 84.7222 81.5155 72.6156 81.5687 72.5584L81.6253 72.5045C85.6041 68.4746 86.978 65.2224 86.1829 62.8691C85.2814 60.2061 81.5621 60.2566 78.8674 62.9802C78.8674 62.9802 71.2059 70.7337 67.5099 74.474C65.6369 76.3695 63.0986 77.4333 60.4538 77.4333H36.5943C34.7579 77.4333 33.2676 75.9251 33.2676 74.0667C33.2676 72.2083 34.7579 70.7 36.5943 70.7H46.5746C46.5746 70.7 49.9013 70.7 49.9013 67.3333C49.9013 63.97 46.5812 63.9667 46.5746 63.9667H29.9408C29.0592 63.9667 28.2109 64.3202 27.5888 64.9531C26.9634 65.5827 26.614 66.4412 26.614 67.3333ZM86.4957 37.0333V10.1C86.4957 7.42013 85.4444 4.85136 83.5714 2.95929C81.7018 1.06386 79.1635 0 76.5154 0C63.7673 0 36.0354 0 23.2873 0C20.6392 0 18.1009 1.06386 16.2312 2.95929C14.3583 4.85136 13.307 7.42013 13.307 10.1V37.0333C13.307 39.7132 14.3583 42.282 16.2312 44.174C18.1009 46.0695 20.6392 47.1333 23.2873 47.1333C36.0354 47.1333 63.7673 47.1333 76.5154 47.1333C79.1635 47.1333 81.7018 46.0695 83.5714 44.174C85.4444 42.282 86.4957 39.7132 86.4957 37.0333ZM79.8422 10.1V37.0333C79.8422 37.9255 79.4928 38.784 78.8674 39.4136C78.2453 40.0465 77.397 40.4 76.5154 40.4H23.2873C22.4057 40.4 21.5574 40.0465 20.9353 39.4136C20.3098 38.784 19.9605 37.9255 19.9605 37.0333V10.1C19.9605 9.20783 20.3098 8.34933 20.9353 7.71976C21.5574 7.08683 22.4057 6.73333 23.2873 6.73333H76.5154C77.397 6.73333 78.2453 7.08683 78.8674 7.71976C79.4928 8.34933 79.8422 9.20783 79.8422 10.1ZM69.8619 37.0333H73.1886C75.025 37.0333 76.5154 35.5251 76.5154 33.6667C76.5154 31.8083 75.025 30.3 73.1886 30.3H69.8619C68.0255 30.3 66.5351 31.8083 66.5351 33.6667C66.5351 35.5251 68.0255 37.0333 69.8619 37.0333ZM49.9013 13.4667C44.3922 13.4667 39.9211 17.9915 39.9211 23.5667C39.9211 29.1419 44.3922 33.6667 49.9013 33.6667C55.4105 33.6667 59.8816 29.1419 59.8816 23.5667C59.8816 17.9915 55.4105 13.4667 49.9013 13.4667ZM49.9013 20.2C51.7377 20.2 53.2281 21.7083 53.2281 23.5667C53.2281 25.4251 51.7377 26.9333 49.9013 26.9333C48.065 26.9333 46.5746 25.4251 46.5746 23.5667C46.5746 21.7083 48.065 20.2 49.9013 20.2ZM26.614 16.8333H29.9408C31.7772 16.8333 33.2676 15.3251 33.2676 13.4667C33.2676 11.6083 31.7772 10.1 29.9408 10.1H26.614C24.7777 10.1 23.2873 11.6083 23.2873 13.4667C23.2873 15.3251 24.7777 16.8333 26.614 16.8333Z" fill="white"/>
</svg>
