<?xml version="1.0" encoding="utf-8"?>
<!-- Generator: Adobe Illustrator 26.4.1, SVG Export Plug-In . SVG Version: 6.00 Build 0)  -->
<svg version="1.1" id="Слой_1" xmlns="http://www.w3.org/2000/svg" xmlns:xlink="http://www.w3.org/1999/xlink" x="0px" y="0px"
	 viewBox="0 0 50 50" style="enable-background:new 0 0 50 50;" xml:space="preserve">
<style type="text/css">
	.st0{fill:#FFFFFF;}
	.st1{fill:none;stroke:#000000;stroke-width:0.8439;stroke-miterlimit:10;}
</style>
<g>
	<path class="st0" d="M8.85,38.02c-1.7,0-3.08-1.38-3.08-3.08v-18.3c0-1.7,1.38-3.08,3.08-3.08h28.66c1.7,0,3.08,1.38,3.08,3.08
		v18.3c0,1.7-1.38,3.08-3.08,3.08H8.85z"/>
	<path d="M37.51,14.05c1.42,0,2.58,1.16,2.58,2.58v18.3c0,1.42-1.16,2.58-2.58,2.58H8.85c-1.42,0-2.58-1.16-2.58-2.58v-18.3
		c0-1.42,1.16-2.58,2.58-2.58H37.51 M37.51,13.05H8.85c-1.98,0-3.58,1.6-3.58,3.58v18.3c0,1.98,1.6,3.58,3.58,3.58h28.66
		c1.98,0,3.58-1.6,3.58-3.58v-18.3C41.1,14.66,39.49,13.05,37.51,13.05L37.51,13.05z"/>
</g>
<g>
	<path class="st0" d="M11.53,36.11c-1.68,0-3.04-1.36-3.04-3.04V18.5c0-1.68,1.36-3.04,3.04-3.04h23.31c1.68,0,3.04,1.36,3.04,3.04
		v14.57c0,1.68-1.36,3.04-3.04,3.04H11.53z"/>
	<path d="M34.84,15.89c1.44,0,2.62,1.17,2.62,2.62v14.57c0,1.44-1.17,2.62-2.62,2.62H11.53c-1.44,0-2.62-1.17-2.62-2.62V18.5
		c0-1.44,1.17-2.62,2.62-2.62H34.84 M34.84,15.04H11.53c-1.91,0-3.46,1.55-3.46,3.46v14.57c0,1.91,1.55,3.46,3.46,3.46h23.31
		c1.91,0,3.46-1.55,3.46-3.46V18.5C38.3,16.59,36.75,15.04,34.84,15.04L34.84,15.04z"/>
</g>
<g>
	<line class="st1" x1="13.88" y1="41.02" x2="32.76" y2="41.02"/>
</g>
<path class="st1" d="M27.82,38.52c1.81,0.67,14.76,5.34,17.48,1.27c0.41-0.61,0.45-1.34,0.52-2.8c0.29-5.38-1.97-7.65-1.92-11.53
	c0.02-1.57,0.43-3.93,2.45-6.82"/>
<line class="st1" x1="23.32" y1="13.05" x2="27.82" y2="8.66"/>
<line class="st1" x1="23.32" y1="13.05" x2="19.98" y2="3.51"/>
<rect x="45.66" y="18.26" transform="matrix(0.866 0.5 -0.5 0.866 15.6818 -20.4132)" class="st1" width="0.55" height="1.6"/>
</svg>
