<svg width="743" height="514" viewBox="0 0 743 514" fill="none" xmlns="http://www.w3.org/2000/svg">
<path d="M202.155 12.7714C192.26 18.9042 174.456 33.0906 158.907 54.2523C147.329 69.9888 143.189 80.0979 132.453 82.6589C124.577 84.5122 115.725 81.1425 103.542 73.6618C77.5251 57.622 46.965 68.4051 24.8189 111.133C2.70659 153.861 11.0534 194.331 51.8788 242.281C81.7659 277.36 41.5799 277.764 18.3232 338.554C-4.8998 399.343 27.848 467.579 135.684 466.771C243.654 465.962 406.855 467.512 406.855 467.512C492.107 468.321 584.056 483.248 663.284 441.228C691.926 426.031 717.235 402.612 731.304 372.453C749.849 332.623 743.656 282.583 719.154 246.729C702.797 222.838 679.271 229.712 659.683 214.01C639.219 197.599 626.901 179.774 656.182 150.558C685.464 121.343 707.879 101.664 693.07 62.9799C671.833 7.44724 620.305 0.303494 563.728 23.824C507.118 47.3445 438.828 82.5241 388.377 67.192C336.782 51.5229 331.733 9.23319 268.627 2.02204C254.592 0.370886 227.196 -2.76293 202.155 12.7714Z" fill="url(#paint0_linear_647_28)"/>
<path d="M309.654 396.951C309.654 396.951 364.245 165.385 481.135 39.6279C488.976 31.1699 503.583 34.5396 506.848 45.6259C528.59 119.591 571.199 343.743 309.654 396.951Z" fill="#B3D6FE"/>
<path d="M333.483 382.158C332.911 382.697 333.685 383.573 334.358 383.135C358.49 365.882 451.618 280.932 484.534 110.56C484.635 110.021 483.793 109.785 483.659 110.324C472.249 149.783 425.534 295.253 333.483 382.158Z" fill="#DCE5FE"/>
<path d="M1.99987 305.699C0.451665 305.362 0.451663 303.172 1.96621 302.835C26.3672 297.106 116.87 281.471 208.719 337.846C292.759 389.402 343.277 439.375 361.351 458.717C364.919 462.559 363.068 468.792 357.985 470.039C327.896 477.385 242.51 493.56 191.217 456.021C129.895 411.103 75.2029 321.671 1.99987 305.699Z" fill="#B3D6FE"/>
<path d="M85.3672 322.244C85.3672 322.244 172.033 324.165 355.461 461.581C355.461 461.581 163.821 333.263 85.3672 322.244Z" fill="#DCE5FE"/>
<path d="M345.061 390.548C345.061 390.548 307.736 155.849 200.54 21.9706C193.337 12.9735 178.562 15.2649 174.49 26.048C147.396 98.0921 88.4299 318.234 345.061 390.548Z" fill="#B3D6FE"/>
<path d="M322.41 374.037C322.949 374.643 322.107 375.452 321.468 374.946C298.682 355.975 212.185 264.488 191.924 92.3299C191.856 91.7907 192.698 91.6222 192.832 92.1614C201.28 132.328 237.125 280.696 322.41 374.037Z" fill="#DCE5FE"/>
<path d="M360.711 471.32C360.711 471.32 493.419 272.036 647.768 194.499C658.134 189.276 670.722 197.599 669.914 209.191C664.529 286.593 626.161 513.07 360.711 471.32Z" fill="#B3D6FE"/>
<path d="M388.411 465.76C387.67 466.063 388.108 467.175 388.882 466.973C417.692 459.189 535.355 411.743 626.161 262.601C626.464 262.129 625.723 261.623 625.387 262.062C600.817 295.287 505.704 416.124 388.411 465.76Z" fill="#DCE5FE"/>
<path d="M596.711 192.545C646.769 192.545 687.349 151.916 687.349 101.799C687.349 51.6812 646.769 11.0529 596.711 11.0529C546.654 11.0529 506.074 51.6812 506.074 101.799C506.074 151.916 546.654 192.545 596.711 192.545Z" fill="url(#paint1_linear_647_28)"/>
<path d="M596.913 184.896C642.212 184.896 678.934 148.129 678.934 102.776C678.934 57.4226 642.212 20.6565 596.913 20.6565C551.614 20.6565 514.892 57.4226 514.892 102.776C514.892 148.129 551.614 184.896 596.913 184.896Z" fill="url(#paint2_linear_647_28)"/>
<path d="M553.967 42.7954H636.022C639.287 42.7954 641.946 40.1333 641.946 36.8647V11.8953C641.946 8.62666 639.287 5.9646 636.022 5.9646H553.967C550.703 5.9646 548.044 8.62666 548.044 11.8953V36.8647C548.01 40.1333 550.669 42.7954 553.967 42.7954Z" fill="#91B3FA"/>
<path opacity="0.38" d="M556.66 41.4475H633.599C636.863 41.4475 639.522 38.7854 639.522 35.5168V13.5464C639.522 10.2778 636.863 7.61572 633.599 7.61572H556.66C553.395 7.61572 550.736 10.2778 550.736 13.5464V35.5168C550.702 38.8191 553.361 41.4475 556.66 41.4475Z" fill="white"/>
<path d="M576.214 42.7954L567.632 50.9501L565.377 42.7954H576.214Z" fill="#91B3FA"/>
<path d="M558.477 16.8824H633.935C634.844 16.8824 635.585 16.1411 635.585 15.2313C635.585 14.3215 634.844 13.5801 633.935 13.5801H558.477C557.569 13.5801 556.828 14.3215 556.828 15.2313C556.795 16.1411 557.535 16.8824 558.477 16.8824Z" fill="white"/>
<path d="M558.477 24.7001H633.935C634.844 24.7001 635.585 23.9588 635.585 23.049C635.585 22.1392 634.844 21.3978 633.935 21.3978H558.477C557.569 21.3978 556.828 22.1392 556.828 23.049C556.795 23.9588 557.535 24.7001 558.477 24.7001Z" fill="white"/>
<path d="M558.477 33.2255H633.935C634.844 33.2255 635.585 32.4841 635.585 31.5743C635.585 30.6645 634.844 29.9232 633.935 29.9232H558.477C557.569 29.9232 556.828 30.6645 556.828 31.5743C556.795 32.4841 557.535 33.2255 558.477 33.2255Z" fill="white"/>
<path d="M646.624 122.556H572.58C569.315 122.556 566.656 119.894 566.656 116.625V89.3309C566.656 86.0623 569.315 83.4002 572.58 83.4002H646.624C649.889 83.4002 652.548 86.0623 652.548 89.3309V116.625C652.581 119.894 649.923 122.556 646.624 122.556Z" fill="#91B3FA"/>
<path opacity="0.38" d="M644.167 121.141H574.801C571.536 121.141 568.877 118.479 568.877 115.21V91.0831C568.877 87.8145 571.536 85.1525 574.801 85.1525H644.167C647.432 85.1525 650.091 87.8145 650.091 91.0831V115.21C650.091 118.479 647.432 121.141 644.167 121.141Z" fill="white"/>
<path d="M626.767 122.556L634.609 131.25L636.662 122.556H626.767Z" fill="#91B3FA"/>
<path d="M642.754 96.3736H574.229C573.253 96.3736 572.479 95.5985 572.479 94.6213C572.479 93.6441 573.253 92.8691 574.229 92.8691H642.754C643.73 92.8691 644.504 93.6441 644.504 94.6213C644.504 95.5648 643.73 96.3736 642.754 96.3736Z" fill="white"/>
<path d="M642.754 105.067H574.229C573.253 105.067 572.479 104.292 572.479 103.315C572.479 102.338 573.253 101.563 574.229 101.563H642.754C643.73 101.563 644.504 102.338 644.504 103.315C644.504 104.259 643.73 105.067 642.754 105.067Z" fill="white"/>
<path d="M616.838 116.659C616.838 117.67 615.963 118.479 614.92 118.479C613.843 118.479 613.001 117.67 613.001 116.659C613.001 115.648 613.877 114.839 614.92 114.839C615.997 114.806 616.838 115.648 616.838 116.659Z" fill="white"/>
<path d="M622.358 116.659C622.358 117.67 621.483 118.479 620.439 118.479C619.362 118.479 618.521 117.67 618.521 116.659C618.521 115.648 619.396 114.839 620.439 114.839C621.483 114.806 622.358 115.648 622.358 116.659Z" fill="white"/>
<path d="M625.656 118.479C626.716 118.479 627.575 117.664 627.575 116.659C627.575 115.654 626.716 114.839 625.656 114.839C624.597 114.839 623.738 115.654 623.738 116.659C623.738 117.664 624.597 118.479 625.656 118.479Z" fill="white"/>
<path d="M563.493 80.7719L560.127 79.5588C559.218 79.2218 558.545 78.4805 558.276 77.5369C557.636 75.1782 556.761 72.9542 555.617 70.8312C555.146 69.9888 555.146 68.9442 555.583 68.1018L557.199 64.9006C557.872 63.5527 557.636 61.9352 556.593 60.8569L553.463 57.622C552.42 56.5437 550.804 56.2405 549.424 56.8807L546.193 58.3971C545.318 58.8014 544.308 58.7677 543.467 58.2623C541.414 57.0829 539.193 56.1057 536.87 55.398C535.962 55.1285 535.221 54.4208 534.918 53.511L533.808 50.1076C533.336 48.6586 532.024 47.6814 530.509 47.6814L525.999 47.614C524.485 47.5803 523.138 48.5239 522.634 49.9391L521.422 53.3088C521.085 54.2186 520.345 54.8926 519.403 55.1622C517.047 55.8024 514.825 56.6785 512.705 57.8242C511.863 58.296 510.82 58.296 509.979 57.8579L506.781 56.2405C505.435 55.5665 503.82 55.8024 502.743 56.847L499.512 59.9808C498.434 61.0254 498.132 62.6429 498.771 64.0245L500.286 67.2594C500.69 68.1355 500.656 69.1464 500.151 69.9888C498.973 72.0443 497.997 74.2683 497.29 76.5934C497.021 77.5033 496.314 78.2446 495.405 78.5479L492.006 79.6598C490.559 80.1316 489.583 81.4458 489.583 82.9622L489.516 87.4776C489.482 88.9939 490.424 90.3418 491.838 90.8472L495.203 92.0603C496.112 92.3973 496.785 93.1386 497.055 94.0822C497.694 96.4409 498.569 98.6649 499.713 100.788C500.185 101.63 500.185 102.675 499.747 103.517L498.132 106.719C497.458 108.066 497.694 109.684 498.737 110.762L501.867 113.997C502.911 115.075 504.526 115.379 505.906 114.738L509.137 113.222C510.012 112.818 511.022 112.851 511.863 113.357C513.916 114.536 516.138 115.513 518.46 116.221C519.369 116.491 520.109 117.198 520.412 118.108L521.523 121.511C521.994 122.96 523.307 123.938 524.821 123.938L529.331 124.005C530.846 124.039 532.192 123.095 532.697 121.68L533.908 118.31C534.245 117.4 534.986 116.727 535.928 116.457C538.284 115.817 540.505 114.941 542.626 113.795C543.467 113.323 544.51 113.323 545.352 113.761L548.549 115.379C549.895 116.053 551.511 115.817 552.588 114.772L555.819 111.638C556.896 110.594 557.199 108.976 556.559 107.595L555.045 104.36C554.641 103.484 554.675 102.473 555.179 101.63C556.357 99.5748 557.333 97.3508 558.04 95.0257C558.31 94.1159 559.016 93.3745 559.925 93.0713L563.324 91.9592C564.772 91.4875 565.748 90.1733 565.748 88.6569L565.815 84.1416C565.849 82.6589 564.906 81.2773 563.493 80.7719ZM529.87 111.942C515.465 113.188 502.776 102.473 501.565 88.0504C500.319 73.6281 511.022 60.9243 525.427 59.7112C539.832 58.4645 552.521 69.1801 553.732 83.6024C554.978 97.991 544.275 110.695 529.87 111.942Z" fill="url(#paint3_linear_647_28)"/>
<path d="M529.365 124.51C529.331 124.51 529.331 124.51 529.297 124.51L524.787 124.443C523.071 124.409 521.556 123.297 521.018 121.68L519.907 118.277C519.672 117.535 519.066 116.929 518.258 116.693C515.936 115.985 513.681 115.008 511.56 113.795C510.854 113.391 510.012 113.357 509.272 113.694L506.041 115.21C504.492 115.951 502.641 115.614 501.43 114.368L498.3 111.133C497.088 109.886 496.819 108.033 497.593 106.516L499.208 103.315C499.579 102.607 499.545 101.765 499.175 101.024C498.03 98.8671 497.122 96.5757 496.482 94.2169C496.28 93.4419 495.708 92.8017 494.968 92.5321L491.602 91.319C489.987 90.7461 488.909 89.1961 488.943 87.4775L489.01 82.9621C489.044 81.2436 490.155 79.7272 491.77 79.1881L495.17 78.0761C495.91 77.8402 496.516 77.2337 496.751 76.4249C497.458 74.0998 498.434 71.8421 499.646 69.7192C500.05 69.0116 500.083 68.1692 499.747 67.4278L498.232 64.1929C497.492 62.6429 497.828 60.7895 499.074 59.5764L502.305 56.4426C503.55 55.2295 505.401 54.9599 506.916 55.735L510.113 57.3524C510.82 57.7231 511.661 57.6894 512.402 57.3187C514.556 56.173 516.844 55.2632 519.2 54.623C519.975 54.4208 520.614 53.848 520.883 53.1066L522.095 49.7369C522.667 48.1195 524.215 47.0412 525.932 47.0749L530.442 47.1423C532.158 47.176 533.673 48.288 534.211 49.9054L535.322 53.3088C535.558 54.0501 536.163 54.6567 536.971 54.8926C539.293 55.6002 541.548 56.5774 543.669 57.7905C544.375 58.1949 545.217 58.2286 545.957 57.8916L549.188 56.3752C550.737 55.6339 552.588 55.9709 553.799 57.2177L556.929 60.4526C558.141 61.6993 558.41 63.5527 557.636 65.069L556.021 68.2703C555.65 68.9779 555.684 69.8203 556.054 70.5616C557.199 72.7183 558.107 75.0097 558.747 77.3684C558.949 78.1435 559.521 78.7837 560.261 79.0533L563.627 80.2664C565.243 80.8392 566.32 82.3893 566.286 84.1078L566.219 88.6232C566.185 90.3418 565.074 91.8581 563.459 92.3973L560.059 93.5093C559.319 93.7452 558.713 94.3517 558.478 95.1604C557.771 97.4855 556.795 99.7432 555.583 101.866C555.179 102.574 555.146 103.416 555.482 104.158L556.997 107.392C557.737 108.943 557.401 110.796 556.155 112.009L552.924 115.143C551.679 116.356 549.828 116.625 548.313 115.85L545.116 114.233C544.409 113.862 543.568 113.896 542.827 114.267C540.673 115.412 538.385 116.322 536.029 116.962C535.255 117.165 534.615 117.737 534.346 118.479L533.134 121.848C532.562 123.466 531.048 124.51 529.365 124.51ZM510.315 112.447C510.921 112.447 511.527 112.615 512.065 112.919C514.118 114.098 516.306 115.042 518.561 115.749C519.638 116.086 520.513 116.895 520.85 117.973L521.96 121.377C522.364 122.623 523.508 123.466 524.787 123.466L529.297 123.533H529.331C530.61 123.533 531.754 122.725 532.192 121.545L533.403 118.175C533.774 117.131 534.649 116.322 535.759 116.019C538.048 115.412 540.269 114.536 542.356 113.39C543.366 112.851 544.544 112.851 545.554 113.357L548.751 114.974C549.895 115.547 551.309 115.345 552.251 114.435L555.482 111.301C556.425 110.391 556.66 109.01 556.122 107.83L554.607 104.596C554.136 103.585 554.203 102.405 554.742 101.394C555.92 99.3389 556.862 97.1486 557.569 94.8909C557.905 93.8126 558.713 92.9364 559.79 92.5995L563.19 91.4875C564.435 91.0831 565.276 89.9374 565.276 88.6569L565.344 84.1415C565.377 82.861 564.569 81.6817 563.358 81.2436L559.992 80.0305C558.949 79.6598 558.141 78.7837 557.838 77.6717C557.232 75.3803 556.357 73.1563 555.213 71.0671C554.674 70.0562 554.674 68.8768 555.179 67.8659L556.795 64.6647C557.367 63.519 557.165 62.1037 556.256 61.1602L553.126 57.9253C552.218 56.9818 550.838 56.7459 549.66 57.285L546.429 58.8014C545.419 59.2732 544.241 59.2058 543.231 58.6666C541.178 57.4872 538.99 56.5437 536.735 55.8361C535.658 55.4991 534.783 54.6904 534.447 53.6121L533.336 50.2424C532.932 48.9956 531.788 48.1532 530.509 48.1532L525.999 48.0858C524.686 48.0521 523.542 48.8608 523.105 50.0739L521.893 53.4436C521.523 54.4882 520.648 55.2969 519.537 55.6002C517.248 56.2067 515.027 57.0829 512.94 58.2286C511.931 58.7677 510.753 58.7677 509.743 58.2623L506.546 56.6448C505.401 56.072 503.988 56.2741 503.045 57.184L499.814 60.3178C498.872 61.2276 498.636 62.6092 499.175 63.7886L500.689 67.0235C501.16 68.0344 501.093 69.2138 500.555 70.2247C499.377 72.2802 498.434 74.4705 497.728 76.7282C497.391 77.8065 496.583 78.6826 495.506 79.0196L492.107 80.1316C490.862 80.536 490.02 81.6817 490.02 82.9621L489.953 87.4775C489.919 88.758 490.727 89.9374 491.939 90.3755L495.304 91.5886C496.348 91.9592 497.155 92.8354 497.458 93.9473C498.064 96.2387 498.939 98.4627 500.083 100.552C500.622 101.563 500.622 102.742 500.117 103.753L498.502 106.954C497.929 108.1 498.131 109.515 499.04 110.459L502.17 113.694C503.079 114.637 504.459 114.873 505.637 114.334L508.868 112.818C509.339 112.582 509.844 112.447 510.315 112.447ZM527.615 112.514C521.354 112.514 515.33 110.324 510.483 106.247C505.031 101.664 501.699 95.1941 501.093 88.0841C499.848 73.4259 510.753 60.4526 525.393 59.2058C540.034 57.959 552.992 68.8768 554.237 83.535C554.843 90.645 552.655 97.5529 548.044 103.012C543.467 108.471 537.005 111.807 529.903 112.413C529.129 112.481 528.355 112.514 527.615 112.514ZM527.648 60.0819C526.908 60.0819 526.167 60.1156 525.427 60.183C511.325 61.3961 500.824 73.864 502.036 87.983C502.608 94.8235 505.839 101.024 511.089 105.472C516.34 109.886 523.004 112.009 529.836 111.436C536.668 110.863 542.861 107.628 547.304 102.372C551.713 97.1149 553.833 90.4429 553.261 83.6024C552.083 70.2247 540.842 60.0819 527.648 60.0819Z" fill="#BDD0FB"/>
<path d="M505.266 73.9651C504.593 74.4031 513.647 101.024 512.2 119.793C512.2 119.793 521.421 122.623 530.408 119.186C530.408 119.186 541.986 92.1951 541.885 89.1961C541.784 85.7927 536.298 69.3149 536.298 69.3149C536.298 69.3149 521.455 63.3168 505.266 73.9651Z" fill="url(#paint4_linear_647_28)"/>
<path d="M528.59 81.7491C536.803 80.6034 536.23 73.4596 534.951 68.8768C532.023 68.0344 524.72 66.4844 515.868 69.0453C516.373 73.0553 518.695 83.1307 528.59 81.7491Z" fill="url(#paint5_linear_647_28)"/>
<path d="M526.335 54.5893C526.335 54.5893 523.777 63.8897 522.027 67.9333C521.522 69.1127 521.994 70.4943 523.104 71.1345C524.383 71.8421 526.369 72.4487 529.23 71.9769C530.441 71.7748 531.35 70.7975 531.451 69.5844L532.393 59.3069L526.335 54.5893Z" fill="url(#paint6_linear_647_28)"/>
<path d="M536.332 69.3149C536.332 69.3149 552.116 89.095 570.628 67.6974L573.758 71.1682C573.758 71.1682 562.213 98.3954 539.764 84.8492L536.332 69.3149Z" fill="url(#paint7_linear_647_28)"/>
<path d="M587.759 68.1692C587.355 67.3267 586.547 66.7202 585.639 66.5517L576.686 64.6647C576.686 64.6647 576.383 63.6201 578.133 62.5418C579.883 61.4972 579.076 59.4417 579.076 59.4417C579.076 59.4417 576.686 61.0591 573.253 63.6201C571.267 65.0691 570.392 67.1583 569.988 68.7083L572.647 71.1682C578.066 71.8084 583.316 71.2019 588.466 69.6518L587.759 68.1692Z" fill="url(#paint8_linear_647_28)"/>
<path d="M505.266 73.9651C505.266 73.9651 486.823 88.0504 492.544 107.494C498.266 126.937 525.797 103.315 525.797 103.315L524.215 98.665C524.215 98.665 506.377 107.426 502.406 103.281C499.511 100.249 505.805 90.8136 509.339 85.9949C510.651 84.2427 510.685 81.8502 509.44 80.0305L505.266 73.9651Z" fill="url(#paint9_linear_647_28)"/>
<path d="M524.215 110.56L527.513 79.3229C527.547 78.9522 527.783 78.6827 528.153 78.5816C529.667 78.1435 534.043 76.8293 539.125 75.5152C545.25 73.8977 552.386 72.2129 556.761 71.8085C557.367 71.7411 557.872 72.3476 557.703 72.9205C556.121 78.312 549.592 100.282 545.688 107.797C545.553 108.033 545.318 108.235 545.048 108.269L525.292 111.537C524.653 111.605 524.148 111.133 524.215 110.56Z" fill="url(#paint10_linear_647_28)"/>
<path d="M539.529 72.752L545.519 70.6291C545.822 70.528 546.159 70.7975 546.125 71.1345L545.822 73.0889C545.789 73.2574 545.688 73.3922 545.519 73.4596L539.73 75.2792C539.428 75.3803 539.125 75.1445 539.158 74.8412L539.259 73.1563C539.259 72.9542 539.36 72.7857 539.529 72.752Z" fill="url(#paint11_linear_647_28)"/>
<path d="M535.827 78.7838L535.86 76.0543C535.86 75.7847 536.062 75.5488 536.298 75.4814L548.549 72.0444C548.953 71.9433 549.357 72.2465 549.323 72.6846L549.121 76.1217C549.087 76.3913 548.919 76.6271 548.65 76.6945L536.567 79.4577C536.197 79.4914 535.827 79.1881 535.827 78.7838Z" fill="url(#paint12_linear_647_28)"/>
<path d="M525.023 103.012C525.023 103.012 522.97 98.328 523.172 96.542C523.34 94.7224 523.878 92.3299 527.042 92.2962C530.206 92.2625 534.076 92.9028 534.076 92.9028C534.076 92.9028 534.278 95.1942 531.821 94.8909L533.471 95.767C533.471 95.767 533.572 97.6203 531.418 96.9801L533.033 98.2269C533.033 98.2269 532.427 99.8443 530.812 99.1704C529.196 98.4628 529.264 102.877 525.023 103.012Z" fill="url(#paint13_linear_647_28)"/>
<path d="M538.99 45.0531C538.99 45.0531 541.649 49.063 540.572 56.072C539.529 63.0809 535.995 64.294 533.437 63.0472C530.879 61.8004 527.379 59.408 525.965 53.4773C524.552 47.5803 535.423 40.0322 538.99 45.0531Z" fill="url(#paint14_linear_647_28)"/>
<path d="M530.374 52.3316C530.374 52.3316 532.798 42.6942 539.765 47.2096L540.64 49.4336C540.64 49.4336 546.058 46.8053 543.265 41.9529C540.471 37.1005 533.067 34.8092 527.547 39.2235C522.028 43.6378 520.648 47.951 521.792 52.6012C522.936 57.2513 526.201 55.0273 526.201 55.0273C526.201 55.0273 526.268 51.4555 527.817 50.5456C529.365 49.6358 529.802 52.2642 529.802 52.2642L530.374 52.3316Z" fill="url(#paint15_linear_647_28)"/>
<path d="M528.994 52.6686C528.994 52.6686 530.273 47.7151 527.312 48.0521C524.383 48.3891 526.369 52.7697 527.244 54.3534L528.994 52.6686Z" fill="url(#paint16_linear_647_28)"/>
<path d="M525.595 42.9639C527.177 42.4921 527.48 40.3355 526.167 39.3246C521.893 36.0223 514.387 32.8885 505.906 41.2453C496.381 50.6805 491.097 55.0948 488.304 54.8589C486.486 54.6904 485.241 56.7122 486.352 58.1612C487.159 59.2395 488.64 60.2841 491.131 60.9917C510.45 66.6528 516.239 45.8281 525.595 42.9639Z" fill="url(#paint17_linear_647_28)"/>
<path d="M703.605 182.941L700.879 179.673C700.138 178.796 699.903 177.583 700.205 176.471C700.946 173.674 701.383 170.81 701.484 167.946C701.518 166.8 702.124 165.722 703.066 165.082L706.668 162.757C708.182 161.779 708.889 159.926 708.451 158.174L707.139 152.951C706.701 151.199 705.22 149.918 703.403 149.75L699.129 149.379C697.984 149.278 696.941 148.604 696.369 147.593C694.955 145.133 693.239 142.774 691.253 140.651C690.479 139.809 690.142 138.63 690.378 137.518L691.253 133.339C691.623 131.587 690.849 129.767 689.301 128.824L684.69 126.061C683.142 125.117 681.19 125.286 679.81 126.431L676.545 129.161C675.67 129.902 674.458 130.138 673.348 129.835C670.554 129.093 667.693 128.655 664.832 128.554C663.688 128.521 662.611 127.914 661.972 126.97L659.649 123.365C658.673 121.849 656.822 121.141 655.072 121.579L649.855 122.893C648.105 123.331 646.826 124.814 646.658 126.633L646.288 130.913C646.187 132.059 645.514 133.07 644.504 133.676C642.047 135.091 639.691 136.81 637.571 138.798C636.729 139.573 635.551 139.91 634.441 139.674L630.267 138.798C628.517 138.427 626.7 139.202 625.757 140.753L622.997 145.369C622.055 146.919 622.223 148.873 623.368 150.255L626.094 153.524C626.834 154.4 627.07 155.613 626.767 156.725C626.026 159.522 625.589 162.386 625.488 165.25C625.454 166.396 624.848 167.474 623.906 168.114L620.305 170.44C618.79 171.417 618.083 173.27 618.521 175.022L619.834 180.245C620.271 181.998 621.752 183.278 623.569 183.447L627.844 183.817C628.988 183.918 630.032 184.592 630.604 185.603C632.017 188.063 633.734 190.422 635.719 192.545C636.494 193.387 636.83 194.567 636.595 195.679L635.719 199.857C635.349 201.609 636.123 203.429 637.672 204.372L642.283 207.136C643.831 208.079 645.783 207.911 647.163 206.765L650.427 204.035C651.302 203.294 652.514 203.058 653.625 203.361C656.418 204.103 659.279 204.541 662.14 204.642C663.284 204.676 664.361 205.282 665.001 206.226L667.323 209.831C668.299 211.348 670.15 212.055 671.9 211.617L677.117 210.303C678.867 209.865 680.146 208.382 680.314 206.563L680.685 202.283C680.786 201.137 681.459 200.093 682.468 199.52C684.925 198.105 687.281 196.386 689.402 194.398C690.243 193.623 691.421 193.286 692.532 193.522L696.705 194.398C698.455 194.769 700.273 193.994 701.215 192.444L703.975 187.827C704.917 186.277 704.783 184.323 703.605 182.941ZM650.158 194.937C634.508 187.558 627.81 168.856 635.215 153.22C642.585 137.551 661.265 130.846 676.881 138.259C692.532 145.639 699.229 164.34 691.825 179.976C684.454 195.645 665.809 202.351 650.158 194.937Z" fill="url(#paint18_linear_647_28)"/>
<path d="M670.891 212.19C669.309 212.19 667.828 211.415 666.919 210.033L664.597 206.428C664.058 205.619 663.15 205.08 662.14 205.046C659.212 204.945 656.317 204.507 653.524 203.766C652.548 203.496 651.538 203.732 650.764 204.372L647.499 207.102C645.951 208.382 643.763 208.551 642.047 207.54L637.436 204.777C635.72 203.732 634.844 201.71 635.248 199.756L636.123 195.577C636.325 194.6 636.056 193.589 635.349 192.882C633.364 190.759 631.613 188.4 630.166 185.873C629.661 184.997 628.786 184.424 627.81 184.356L623.536 183.986C621.516 183.817 619.867 182.368 619.362 180.414L618.05 175.191C617.579 173.236 618.386 171.181 620.069 170.103L623.671 167.777C624.512 167.238 625.017 166.328 625.05 165.318C625.151 162.386 625.589 159.488 626.329 156.691C626.599 155.714 626.363 154.703 625.724 153.928L622.997 150.659C621.718 149.109 621.55 146.919 622.56 145.2L625.32 140.584C626.363 138.865 628.382 137.989 630.334 138.394L634.508 139.27C635.484 139.472 636.494 139.202 637.2 138.495C639.321 136.507 641.677 134.754 644.201 133.305C645.076 132.8 645.648 131.924 645.716 130.947L646.086 126.667C646.254 124.645 647.701 122.994 649.653 122.489L654.87 121.175C656.822 120.703 658.875 121.512 659.952 123.196L662.275 126.802C662.813 127.611 663.722 128.15 664.731 128.184C667.66 128.285 670.554 128.723 673.348 129.464C674.324 129.734 675.333 129.498 676.107 128.857L679.372 126.128C680.92 124.848 683.108 124.679 684.824 125.69L689.435 128.453C691.152 129.498 692.027 131.52 691.623 133.474L690.748 137.652C690.546 138.63 690.815 139.641 691.522 140.348C693.508 142.471 695.258 144.83 696.705 147.357C697.21 148.233 698.085 148.806 699.061 148.873L703.336 149.244C705.355 149.413 707.004 150.862 707.509 152.816L708.822 158.039C709.293 159.993 708.485 162.049 706.802 163.127L703.201 165.452C702.393 165.992 701.855 166.901 701.821 167.912C701.72 170.844 701.283 173.742 700.542 176.539C700.273 177.516 700.508 178.527 701.148 179.302L703.874 182.57C705.153 184.12 705.321 186.311 704.312 188.029L701.552 192.646C700.508 194.364 698.489 195.24 696.537 194.836L692.364 193.96C691.387 193.758 690.378 194.027 689.671 194.735C687.551 196.723 685.195 198.475 682.67 199.924C681.795 200.43 681.223 201.306 681.156 202.283L680.786 206.563C680.617 208.585 679.17 210.236 677.218 210.741L672.001 212.055C671.665 212.156 671.261 212.19 670.891 212.19ZM652.716 202.688C653.086 202.688 653.423 202.721 653.793 202.822C656.519 203.564 659.346 203.968 662.207 204.069C663.52 204.103 664.765 204.81 665.472 205.889L667.794 209.494C668.669 210.842 670.285 211.482 671.833 211.078L677.05 209.764C678.598 209.393 679.709 208.045 679.877 206.462L680.247 202.182C680.348 200.868 681.122 199.722 682.267 199.048C684.723 197.633 687.012 195.948 689.099 193.994C690.075 193.084 691.421 192.713 692.666 192.983L696.84 193.859C698.388 194.196 700.004 193.488 700.811 192.14L703.571 187.524C704.379 186.176 704.244 184.424 703.235 183.211L700.508 179.942C699.667 178.931 699.364 177.583 699.734 176.303C700.475 173.573 700.879 170.743 700.98 167.879C701.013 166.564 701.72 165.351 702.797 164.61L706.398 162.285C707.745 161.409 708.384 159.791 707.98 158.241L706.668 153.018C706.297 151.468 704.951 150.356 703.369 150.188L699.095 149.817C697.782 149.716 696.638 148.941 695.965 147.795C694.551 145.335 692.868 143.044 690.916 140.955C690.008 139.977 689.637 138.63 689.907 137.383L690.782 133.204C691.118 131.654 690.411 130.037 689.065 129.228L684.454 126.465C683.108 125.656 681.358 125.791 680.146 126.802L676.882 129.531C675.872 130.374 674.526 130.677 673.247 130.306C670.52 129.565 667.693 129.161 664.832 129.06C663.52 129.026 662.275 128.318 661.568 127.24L659.246 123.634C658.37 122.287 656.755 121.646 655.207 122.051L649.99 123.365C648.442 123.736 647.331 125.083 647.163 126.667L646.793 130.947C646.692 132.261 645.918 133.407 644.773 134.08C642.316 135.496 640.028 137.181 637.941 139.135C636.965 140.045 635.619 140.416 634.373 140.146L630.2 139.27C628.652 138.933 627.036 139.64 626.228 140.988L623.469 145.605C622.661 146.953 622.795 148.705 623.805 149.918L626.531 153.187C627.373 154.198 627.676 155.545 627.305 156.826C626.565 159.555 626.161 162.386 626.06 165.25C626.026 166.564 625.32 167.811 624.243 168.519L620.641 170.844C619.295 171.72 618.656 173.337 619.06 174.888L620.372 180.111C620.742 181.661 622.089 182.806 623.671 182.941L627.945 183.312C629.257 183.413 630.402 184.188 631.075 185.334C632.489 187.793 634.171 190.085 636.123 192.174C637.032 193.151 637.402 194.499 637.133 195.746L636.258 199.924C635.921 201.474 636.628 203.092 637.974 203.901L642.586 206.664C643.932 207.472 645.682 207.338 646.893 206.327L650.158 203.597C650.865 202.991 651.774 202.688 652.716 202.688ZM663.486 198.442C658.842 198.442 654.231 197.431 649.923 195.375C634.07 187.895 627.238 168.856 634.744 152.985C638.378 145.302 644.773 139.472 652.783 136.608C660.794 133.744 669.41 134.148 677.117 137.787C684.791 141.426 690.613 147.829 693.474 155.849C696.335 163.869 695.931 172.495 692.296 180.212C688.661 187.895 682.267 193.724 674.256 196.588C670.756 197.835 667.121 198.442 663.486 198.442ZM650.36 194.499C657.798 198.004 666.179 198.408 673.92 195.645C681.661 192.848 687.854 187.221 691.388 179.774C694.888 172.327 695.292 163.936 692.532 156.186C689.738 148.435 684.118 142.235 676.68 138.697C669.241 135.193 660.861 134.788 653.12 137.551C645.379 140.348 639.186 145.976 635.652 153.423C628.382 168.822 635.013 187.254 650.36 194.499Z" fill="#BDD0FB"/>
<path d="M644.84 157.871C644.84 157.871 658.269 154.501 672.472 156.523C676.478 157.096 680.012 159.421 682.166 162.824C686.036 168.991 691.556 179.942 690.378 191.365L684.286 192.882C684.286 192.882 680.079 179.302 675.333 173.776C675.333 173.776 669.713 186.58 670.016 193.623C670.016 193.825 670.049 194.027 670.049 194.196C670.689 201.07 643.09 195.476 643.09 195.476L644.84 157.871Z" fill="url(#paint19_linear_647_28)"/>
<path d="M655.711 146.313L656.317 155.849C656.384 156.725 656.957 157.5 657.764 157.736C659.616 158.275 663.116 158.949 666.549 157.567C667.188 157.298 667.491 156.556 667.289 155.882L662.746 141.292L655.711 146.313Z" fill="url(#paint20_linear_647_28)"/>
<path d="M654.163 132.497C654.163 132.497 651.269 139.169 651.067 142.673C650.865 146.178 650.124 148.435 654.163 149.143C658.202 149.851 661.601 147.829 663.453 144.358C663.453 144.358 666.347 139 665.707 136.776C665.034 134.586 654.163 132.497 654.163 132.497Z" fill="url(#paint21_linear_647_28)"/>
<path d="M662.073 141.831H661.568C661.568 141.831 663.688 137.518 661.837 136.743C659.986 135.968 652.649 134.485 651.067 131.89C649.552 129.397 650.899 126.128 652.952 125.218C653.086 125.151 653.221 125.218 653.288 125.353L653.456 125.656C653.557 125.858 653.894 125.858 653.961 125.589C654.029 125.353 654.331 125.319 654.466 125.521C654.937 126.297 656.25 127.577 659.784 128.217C664.765 129.127 668.063 131.149 668.131 134.62C668.131 134.822 668.366 134.957 668.568 134.856C668.938 134.62 669.511 134.519 670.318 135.193C671.698 136.338 671.126 139.337 668.131 141.797C667.996 141.898 667.996 142.134 668.131 142.235C668.669 142.606 669.477 143.448 667.39 144.56C665.236 145.706 663.957 145.571 663.486 145.47C663.351 145.436 663.284 145.335 663.284 145.201L663.486 142.134C663.486 141.966 663.385 141.831 663.217 141.831H662.073Z" fill="url(#paint22_linear_647_28)"/>
<path d="M661.938 142.471C661.938 142.471 663.049 138.225 664.967 139.405C666.886 140.584 663.991 144.19 662.443 144.324L661.938 142.471Z" fill="url(#paint23_linear_647_28)"/>
<path d="M644.941 185.334C644.336 181.122 648.711 174.955 650.495 172.596C651 171.922 651.302 171.114 651.302 170.271C651.37 164.307 648.846 160.499 644.84 157.904C644.84 157.904 630.301 174.854 634.003 187.895C634.407 189.31 635.013 190.523 635.82 191.534C636.426 186.614 642.081 185.536 644.941 185.334Z" fill="url(#paint24_linear_647_28)"/>
<path d="M645.21 183.682L644.672 183.615C645.143 179.504 648.744 174.382 650.293 172.394L650.73 172.731C649.216 174.719 645.648 179.706 645.21 183.682Z" fill="url(#paint25_linear_647_28)"/>
<path d="M645.042 185.906C644.975 185.704 644.941 185.536 644.941 185.334C642.08 185.569 636.426 186.648 635.82 191.534C642.316 200.127 660.188 197.026 660.188 197.026V193.69C660.188 193.69 646.456 191.129 645.042 185.906Z" fill="url(#paint26_linear_647_28)"/>
<path d="M658.471 196.083C658.471 196.083 661.096 189.849 665.775 192.073C670.419 194.297 670.049 195.746 670.049 195.746L658.471 196.083Z" fill="url(#paint27_linear_647_28)"/>
<path d="M657.865 197.397C657.899 197.869 658.303 198.24 658.774 198.206L682.872 197.363C683.242 197.363 683.579 197.094 683.68 196.757L684.387 194.499C684.555 193.96 684.151 193.387 683.579 193.353L674.795 192.882C674.727 192.882 674.626 192.882 674.559 192.915L658.538 196.454C658.135 196.555 657.832 196.959 657.865 197.397Z" fill="url(#paint28_linear_647_28)"/>
<path d="M674.021 196.521L674.694 193.421L683.714 193.859L683.141 196.42L674.021 196.521Z" fill="url(#paint29_linear_647_28)"/>
<path d="M669.41 163.195C668.905 167.373 666.616 184.356 665.943 189.209C665.842 189.883 666.38 190.489 667.087 190.456L706.061 189.344C706.566 189.344 707.004 188.973 707.105 188.467L713.163 161.106C713.331 160.398 712.759 159.69 712.019 159.758L670.419 162.184C669.914 162.251 669.477 162.689 669.41 163.195Z" fill="url(#paint30_linear_647_28)"/>
<path d="M685.06 180.346L679.305 196.723L692.7 196.993L693.811 180.448C693.878 179.673 693.205 179.032 692.431 179.066L686.171 179.47C685.699 179.538 685.262 179.875 685.06 180.346Z" fill="url(#paint31_linear_647_28)"/>
<path d="M673.886 196.959C673.751 197.397 674.088 197.869 674.559 197.869H695.527C695.897 197.869 696.234 197.566 696.234 197.161V196.251C696.234 195.847 695.897 195.544 695.493 195.544L674.525 196.454C674.222 196.487 673.987 196.69 673.886 196.959Z" fill="url(#paint32_linear_647_28)"/>
<path d="M668.838 180.481L668.501 180.448L670.419 165.318C670.554 164.374 671.328 163.633 672.27 163.565L708.216 161.409L708.249 161.746L672.304 163.902C671.496 163.936 670.857 164.576 670.756 165.351L668.838 180.481Z" fill="#BDD0FB"/>
<path d="M667.95 184.718L667.538 187.995L667.872 188.037L668.284 184.76L667.95 184.718Z" fill="#BDD0FB"/>
<path d="M618.555 456.897C668.315 456.897 708.653 416.51 708.653 366.691C708.653 316.871 668.315 276.484 618.555 276.484C568.795 276.484 528.456 316.871 528.456 366.691C528.456 416.51 568.795 456.897 618.555 456.897Z" fill="url(#paint33_linear_647_28)"/>
<path d="M618.723 449.282C663.743 449.282 700.239 412.742 700.239 367.668C700.239 322.594 663.743 286.054 618.723 286.054C573.703 286.054 537.207 322.594 537.207 367.668C537.207 412.742 573.703 449.282 618.723 449.282Z" fill="url(#paint34_linear_647_28)"/>
<path d="M692.498 412.788C692.498 414.338 691.32 415.619 689.906 415.619H549.424C548.01 415.619 546.832 414.338 546.832 412.788L545.654 324.772C545.654 323.222 547.337 320.189 550.434 320.391L687.752 316.516C689.536 316.448 691.286 317.223 692.565 318.605C693.844 319.987 694.517 321.874 694.484 323.828L692.498 412.788Z" fill="url(#paint35_linear_647_28)"/>
<path d="M689.94 410.092C689.94 411.575 688.829 412.788 687.483 412.788H552.789C551.443 412.788 550.332 411.575 550.332 410.092L549.222 330.163C549.356 325.344 553.227 323.626 555.549 323.727C555.549 323.727 662.88 320.593 687.146 319.886C688.392 319.852 689.637 320.391 690.512 321.335C691.421 322.312 691.892 323.626 691.858 325.007L689.94 410.092Z" fill="url(#paint36_linear_647_28)"/>
<path d="M551.813 371.914C551.712 371.914 551.645 371.846 551.645 371.745L551.544 365.275C551.544 365.174 551.611 365.073 551.712 365.073C551.813 365.073 551.914 365.141 551.914 365.242L552.016 371.711C551.982 371.813 551.914 371.914 551.813 371.914Z" fill="#BDD0FB"/>
<path d="M551.578 356.009C551.477 356.009 551.409 355.941 551.409 355.84L551.073 331.006C551.073 329.287 551.578 327.905 552.587 326.962C554.27 325.378 556.727 325.446 556.828 325.446L598.865 324.232C598.966 324.232 599.067 324.3 599.067 324.401C599.067 324.502 599 324.603 598.899 324.603L556.862 325.816C556.761 325.816 554.438 325.749 552.89 327.231C551.948 328.108 551.477 329.388 551.477 331.006L551.813 355.84C551.78 355.941 551.679 356.009 551.578 356.009Z" fill="#BDD0FB"/>
<path opacity="0.22" d="M556.29 405.644C556.424 399.04 556.391 340.542 556.021 335.487C555.684 330.433 562.887 329.489 573.96 328.916C585.033 328.344 678.497 326.086 680.92 325.884C686.339 325.412 687.449 334.207 686.911 353.347C686.507 367.735 685.834 391.424 685.531 402.308C685.43 405.543 683.007 408.138 680.045 408.138C657.562 408.205 571.334 408.475 565.613 408.677C558.982 408.913 556.223 408.273 556.29 405.644Z" fill="url(#paint37_linear_647_28)"/>
<path d="M701.383 422.931H540.808C539.428 422.931 538.284 421.785 538.284 420.404V417.742C538.284 416.36 539.428 415.214 540.808 415.214H701.383C702.763 415.214 703.908 416.36 703.908 417.742V420.404C703.908 421.785 702.763 422.931 701.383 422.931Z" fill="url(#paint38_linear_647_28)"/>
<path d="M679.44 318.032L675.3 318.201L656.856 306.609L658.606 299.094C658.909 297.881 659.952 297.005 661.13 297.005H679.574C681.863 297.005 683.647 299.128 683.344 301.521L681.493 316.145C681.291 317.223 680.449 317.998 679.44 318.032Z" fill="url(#paint39_linear_647_28)"/>
<path d="M656.856 306.609C657.091 309.338 657.529 314.191 658.068 317.291C658.169 317.864 658.64 318.268 659.212 318.302C662.443 318.538 673.146 319.178 677.117 317.998C677.588 317.864 677.925 317.459 677.992 316.954C678.261 314.898 679.002 309.102 679.17 305.699C679.204 305.059 678.733 304.486 678.093 304.419C675.434 304.014 663.486 304.351 658.673 304.52C657.596 304.587 656.755 305.531 656.856 306.609Z" fill="url(#paint40_linear_647_28)"/>
<path d="M671.834 315.078C673.847 312.811 673.642 309.339 671.377 307.324C669.112 305.309 665.644 305.514 663.632 307.782C661.619 310.05 661.824 313.522 664.089 315.536C666.354 317.551 669.822 317.346 671.834 315.078Z" fill="#BDD0FB"/>
<path d="M667.828 316.145C670.356 316.145 672.405 314.093 672.405 311.562C672.405 309.031 670.356 306.98 667.828 306.98C665.3 306.98 663.25 309.031 663.25 311.562C663.25 314.093 665.3 316.145 667.828 316.145Z" fill="url(#paint41_linear_647_28)"/>
<path d="M667.828 315.64C670.077 315.64 671.9 313.814 671.9 311.562C671.9 309.311 670.077 307.485 667.828 307.485C665.579 307.485 663.755 309.311 663.755 311.562C663.755 313.814 665.579 315.64 667.828 315.64Z" fill="url(#paint42_linear_647_28)"/>
<path opacity="0.33" d="M666.246 310.08C666.599 310.08 666.885 309.793 666.885 309.439C666.885 309.086 666.599 308.799 666.246 308.799C665.893 308.799 665.606 309.086 665.606 309.439C665.606 309.793 665.893 310.08 666.246 310.08Z" fill="white"/>
<path opacity="0.33" d="M667.29 311.158C667.513 311.158 667.694 310.977 667.694 310.754C667.694 310.53 667.513 310.349 667.29 310.349C667.067 310.349 666.886 310.53 666.886 310.754C666.886 310.977 667.067 311.158 667.29 311.158Z" fill="white"/>
<path opacity="0.56" d="M667.996 336.431C663.318 336.431 658.875 334.982 655.072 332.286C654.702 332.016 654.601 331.477 654.87 331.107C655.139 330.736 655.678 330.635 656.048 330.904C659.548 333.398 663.654 334.746 667.962 334.746C672.27 334.746 676.41 333.432 679.877 330.904C680.247 330.635 680.785 330.702 681.055 331.107C681.324 331.477 681.257 332.016 680.853 332.286C677.151 335.015 672.674 336.431 667.996 336.431Z" fill="url(#paint43_linear_647_28)"/>
<path opacity="0.56" d="M667.996 331.713C664.159 331.713 660.524 330.534 657.428 328.276C657.058 328.006 656.957 327.467 657.226 327.097C657.495 326.726 658.034 326.625 658.404 326.895C661.197 328.916 664.529 329.995 667.996 329.995C671.463 329.995 674.761 328.916 677.588 326.895C677.958 326.625 678.497 326.692 678.766 327.097C679.035 327.467 678.968 328.006 678.564 328.276C675.501 330.5 671.833 331.713 667.996 331.713Z" fill="url(#paint44_linear_647_28)"/>
<path opacity="0.56" d="M667.996 326.827C665.27 326.827 662.712 325.985 660.524 324.367C660.154 324.098 660.087 323.558 660.356 323.188C660.625 322.817 661.164 322.75 661.534 323.019C663.419 324.401 665.64 325.142 667.996 325.142C670.352 325.142 672.574 324.401 674.458 323.019C674.829 322.75 675.367 322.817 675.636 323.188C675.906 323.558 675.838 324.098 675.468 324.367C673.314 325.985 670.722 326.827 667.996 326.827Z" fill="url(#paint45_linear_647_28)"/>
<mask id="mask0_647_28" style="mask-type:luminance" maskUnits="userSpaceOnUse" x="568" y="259" width="107" height="150">
<path d="M674.896 259.804H568.137V408.205H674.896V259.804Z" fill="white"/>
</mask>
<g mask="url(#mask0_647_28)">
<path d="M606.236 340.811C606.135 340.98 600.245 345.327 600.245 345.327C600.245 345.327 601.558 354.661 606.842 358.334C612.664 362.377 620.877 354.998 620.877 354.998C620.877 354.998 627.406 356.548 630.873 342.934C631.68 339.8 627.069 339.531 621.516 340.104C614.347 340.879 606.236 340.811 606.236 340.811Z" fill="url(#paint46_linear_647_28)"/>
<path d="M595.197 372.621C597.519 371.037 600.044 369.824 602.77 369.083C603.779 368.813 609.265 370.397 612.665 370.33C617.309 370.229 622.055 368.106 625.892 369.049C629.695 369.993 632.825 371.24 634.609 372.52C639.994 376.362 643.158 383.505 645.11 390.615C641.441 394.356 636.864 396.041 636.864 396.041L636.022 430.513L615.66 440.925L592.437 429.232L593.279 395.535C593.279 395.535 585.908 392.098 585.369 390.851C584.797 389.672 588.701 377.103 595.197 372.621Z" fill="url(#paint47_linear_647_28)"/>
<path d="M585.672 390.75C585.672 390.75 575.777 418.18 598.327 429.468C603.005 428.862 601.221 421.078 601.221 421.078C601.221 421.078 591.427 418.921 594.355 396.007C591.663 393.783 585.672 390.75 585.672 390.75Z" fill="url(#paint48_linear_647_28)"/>
<path d="M644.638 390.75C644.638 390.75 651.437 419.393 631.983 429.468C627.305 428.862 629.089 421.078 629.089 421.078C629.089 421.078 636.998 417.169 635.955 396.007C638.647 393.783 644.638 390.75 644.638 390.75Z" fill="url(#paint49_linear_647_28)"/>
<path d="M602.77 369.117C602.77 369.117 604.823 378.046 614.819 377.844C624.983 377.642 625.892 369.083 625.892 369.083L619.261 367.668L618.689 360.254L608.693 360.996L608.525 368.038L602.77 369.117Z" fill="url(#paint50_linear_647_28)"/>
<path d="M610.107 339.261C610.107 339.261 598.663 361.468 612.227 366.859C621.819 370.667 627.81 352.1 626.026 347.079C623.266 339.295 621.415 340.238 621.415 340.238L610.107 339.261Z" fill="url(#paint51_linear_647_28)"/>
<path d="M628.786 337.239C634.44 338.789 629.594 351.089 621.079 348.191C612.564 345.293 609.198 345.327 607.885 347.685C606.573 350.044 606.27 358.334 603.375 354.223C600.212 349.707 598.462 340.677 602.332 337.745C605.799 335.15 606.606 331.107 610.746 331.241C616.266 331.444 620.507 328.984 622.997 330.736C625.892 332.758 624.646 336.094 628.786 337.239Z" fill="url(#paint52_linear_647_28)"/>
<path d="M607.381 349.539C607.381 349.539 604.924 346.91 604.554 350.078C604.15 353.246 605.429 357.323 606.876 355.099C608.357 352.875 607.381 349.539 607.381 349.539Z" fill="url(#paint53_linear_647_28)"/>
</g>
<path d="M593.312 338.385C593.312 338.385 543.13 313.551 559.521 295.287C575.945 276.989 606.539 284.302 608.087 303.543C609.636 322.75 572.411 318.268 593.312 338.385Z" fill="white"/>
<path d="M563.762 300.476H585.908C586.177 300.476 586.413 300.24 586.413 299.971C586.413 299.701 586.177 299.465 585.908 299.465H563.762C563.492 299.465 563.257 299.701 563.257 299.971C563.257 300.274 563.492 300.476 563.762 300.476Z" fill="#91B3FA"/>
<path d="M592.504 300.476H599.067C599.337 300.476 599.572 300.24 599.572 299.971C599.572 299.701 599.337 299.465 599.067 299.465H592.504C592.235 299.465 592 299.701 592 299.971C592 300.274 592.235 300.476 592.504 300.476Z" fill="#91B3FA"/>
<path d="M563.021 304.991H571.334C571.603 304.991 571.839 304.756 571.839 304.486C571.839 304.216 571.603 303.981 571.334 303.981H563.021C562.752 303.981 562.516 304.216 562.516 304.486C562.516 304.756 562.752 304.991 563.021 304.991Z" fill="#91B3FA"/>
<path d="M583.552 304.991H598.327C598.596 304.991 598.832 304.756 598.832 304.486C598.832 304.216 598.596 303.981 598.327 303.981H583.552C583.282 303.981 583.047 304.216 583.047 304.486C583.047 304.756 583.282 304.991 583.552 304.991Z" fill="#91B3FA"/>
<path d="M562.281 309.473H584.393C584.662 309.473 584.898 309.237 584.898 308.968C584.898 308.698 584.662 308.462 584.393 308.462H562.281C562.011 308.462 561.776 308.698 561.776 308.968C561.776 309.237 562.011 309.473 562.281 309.473Z" fill="#91B3FA"/>
<path d="M589.946 309.473H597.586C597.856 309.473 598.091 309.237 598.091 308.968C598.091 308.698 597.856 308.462 597.586 308.462H589.946C589.677 308.462 589.441 308.698 589.441 308.968C589.441 309.237 589.643 309.473 589.946 309.473Z" fill="#91B3FA"/>
<path d="M114.413 188.265C163.931 188.265 204.074 148.074 204.074 98.4965C204.074 48.9186 163.931 8.72772 114.413 8.72772C64.8941 8.72772 24.7515 48.9186 24.7515 98.4965C24.7515 148.074 64.8941 188.265 114.413 188.265Z" fill="url(#paint54_linear_647_28)"/>
<path d="M114.615 180.683C159.43 180.683 195.761 144.309 195.761 99.44C195.761 54.5705 159.43 18.1966 114.615 18.1966C69.799 18.1966 33.4688 54.5705 33.4688 99.44C33.4688 144.309 69.799 180.683 114.615 180.683Z" fill="url(#paint55_linear_647_28)"/>
<path d="M101.017 129.868L97.7861 158.949H135.381L130.467 129.868H101.017Z" fill="url(#paint56_linear_647_28)"/>
<path d="M37.8774 58.1948V124.814C37.8774 130.306 42.2528 134.788 47.7052 134.923C72.0052 135.563 157.022 137.079 180.144 136.742C184.115 136.675 187.346 133.508 187.447 129.531C187.885 114.064 188.625 76.8293 185.933 59.5427C185.361 55.9034 182.298 53.174 178.629 53.0729C158.267 52.4327 68.1347 50.3434 45.0126 50.8826C41.0748 50.95 37.8774 54.1849 37.8774 58.1948Z" fill="url(#paint57_linear_647_28)"/>
<path d="M42.0508 57.8579V121.141C42.0508 124.342 44.6087 126.937 47.8061 127.004L176.812 128.588C179.975 128.622 182.567 126.094 182.601 122.927L182.803 60.183C182.803 57.9253 181.019 56.072 178.73 56.0046L46.6281 53.3425C44.1375 53.3088 42.0508 55.3306 42.0508 57.8579Z" fill="url(#paint58_linear_647_28)"/>
<path opacity="0.24" d="M45.585 60.7895V119.726C45.585 122.691 48.0082 125.117 51.0373 125.184L173.413 126.667C176.408 126.701 178.865 124.342 178.899 121.377L179.101 62.9461C179.101 60.8232 177.384 59.1047 175.264 59.0373L49.9603 56.5437C47.5707 56.5437 45.585 58.4307 45.585 60.7895Z" fill="url(#paint59_linear_647_28)"/>
<path d="M183.577 131.216L42.0511 128.79C41.9501 128.79 41.8491 128.689 41.8491 128.588C41.8491 128.487 41.9501 128.386 42.0511 128.386L183.577 130.812C183.678 130.812 183.779 130.913 183.779 131.014C183.779 131.149 183.712 131.216 183.577 131.216Z" fill="#BDD0FB"/>
<path d="M114.211 134.182C113.302 134.182 112.528 133.44 112.528 132.497C112.528 131.587 113.268 130.812 114.211 130.812C115.153 130.812 115.893 131.553 115.893 132.497C115.893 133.44 115.153 134.182 114.211 134.182ZM114.211 131.216C113.504 131.216 112.932 131.789 112.932 132.497C112.932 133.204 113.504 133.777 114.211 133.777C114.917 133.777 115.49 133.204 115.49 132.497C115.49 131.789 114.917 131.216 114.211 131.216Z" fill="#BDD0FB"/>
<path d="M94.2183 162.824C79.2748 155.411 67.7643 143.718 66.4517 119.254C66.4517 119.254 105.359 132.261 94.2183 162.824Z" fill="#91B3FA"/>
<path d="M91.7949 157.331C91.7276 157.331 91.6267 157.264 91.593 157.197C84.7944 137.821 71.6347 126.6 71.5 126.499C71.4327 126.431 71.3991 126.296 71.4664 126.229C71.5337 126.162 71.6683 126.128 71.7356 126.195C71.8703 126.296 85.1309 137.585 91.9632 157.095C91.9969 157.197 91.9296 157.298 91.8286 157.365C91.8623 157.331 91.8286 157.331 91.7949 157.331Z" fill="white"/>
<path d="M92.704 162.217C82.2031 163.195 72.1398 160.735 63.3218 147.997C63.3218 147.997 88.5642 142.067 92.704 162.217Z" fill="#BDD0FB"/>
<path d="M86.7468 158.848C86.6795 158.848 86.6458 158.814 86.6122 158.78C80.6886 151.771 67.4279 149.514 67.2933 149.514C67.1923 149.48 67.125 149.379 67.125 149.278C67.1587 149.177 67.2596 149.109 67.3606 149.109C67.4952 149.143 80.8905 151.401 86.9151 158.511C86.9824 158.578 86.9824 158.713 86.8814 158.78C86.8478 158.848 86.8141 158.848 86.7468 158.848Z" fill="white"/>
<path d="M110.273 23.7902L69.6157 57.4198C70.3898 57.7905 71.2985 57.9927 72.2409 57.959L149.247 53.949C150.56 53.8816 151.771 53.3425 152.68 52.5001L122.457 24.1609C119.192 21.0608 113.773 20.926 110.273 23.7902Z" fill="url(#paint60_linear_647_28)"/>
<path d="M147.699 114.907H73.5872C70.5917 114.907 68.1685 112.481 68.1685 109.482V61.1265C68.1685 58.2623 70.4235 55.8698 73.2843 55.7013L150.29 51.3881C153.522 51.2196 156.18 53.8817 156.012 57.1166L153.151 109.751C152.983 112.649 150.593 114.907 147.699 114.907Z" fill="url(#paint61_linear_647_28)"/>
<path d="M112.393 85.7253L152.916 51.9272C152.141 51.5566 151.233 51.3544 150.29 51.4218L73.2841 55.735C71.9715 55.8024 70.7598 56.3415 69.8848 57.2177L100.209 85.4557C103.474 88.4884 108.893 88.6232 112.393 85.7253Z" fill="url(#paint62_linear_647_28)"/>
<mask id="mask1_647_28" style="mask-type:luminance" maskUnits="userSpaceOnUse" x="70" y="25" width="82" height="63">
<path d="M112.393 85.7252L151.603 53.0055C152.209 52.5 151.906 51.4891 151.098 51.4217C150.829 51.388 150.526 25.6772 150.257 25.6772L73.2508 29.9905C72.342 30.0578 71.467 56.0382 70.7265 56.4763C70.2217 56.7795 70.1544 57.4872 70.5919 57.8915L100.142 85.422C103.474 88.4884 108.893 88.6232 112.393 85.7252Z" fill="white"/>
</mask>
<g mask="url(#mask1_647_28)">
<path d="M141.641 94.6212H80.5879V36.3592C80.5879 34.1352 82.6746 32.2818 85.2998 32.147L136.323 29.6872C139.184 29.5524 141.607 31.4731 141.607 33.8993V94.6212H141.641Z" fill="#7D97F4"/>
</g>
<mask id="mask2_647_28" style="mask-type:luminance" maskUnits="userSpaceOnUse" x="70" y="25" width="82" height="63">
<path d="M112.393 85.7252L151.603 53.0055C152.209 52.5 151.906 51.4891 151.098 51.4217C150.829 51.388 150.526 25.6772 150.257 25.6772L73.2508 29.9905C72.342 30.0578 71.467 56.0382 70.7265 56.4763C70.2217 56.7795 70.1544 57.4872 70.5919 57.8915L100.142 85.422C103.474 88.4884 108.893 88.6232 112.393 85.7252Z" fill="white"/>
</mask>
<g mask="url(#mask2_647_28)">
<path opacity="0.38" d="M139.554 94.6213H82.6748V40.3691C82.6748 38.2799 84.5932 36.5614 87.0838 36.4603L134.607 34.1689C137.299 34.0341 139.554 35.82 139.554 38.0777V94.6213Z" fill="white"/>
</g>
<mask id="mask3_647_28" style="mask-type:luminance" maskUnits="userSpaceOnUse" x="70" y="25" width="82" height="63">
<path d="M112.393 85.7252L151.603 53.0055C152.209 52.5 151.906 51.4891 151.098 51.4217C150.829 51.388 150.526 25.6772 150.257 25.6772L73.2508 29.9905C72.342 30.0578 71.467 56.0382 70.7265 56.4763C70.2217 56.7795 70.1544 57.4872 70.5919 57.8915L100.142 85.422C103.474 88.4884 108.893 88.6232 112.393 85.7252Z" fill="white"/>
</mask>
<g mask="url(#mask3_647_28)">
<g opacity="0.61">
<path d="M135.246 43.4019L87.2181 44.0084C86.8815 44.0084 86.5786 43.7388 86.5786 43.4019C86.5786 43.0649 86.8479 42.7616 87.1844 42.7616L135.212 42.1551C135.549 42.1551 135.852 42.4247 135.852 42.7616C135.885 43.0986 135.616 43.4019 135.246 43.4019Z" fill="white"/>
<path d="M134.842 49.1303L86.8143 49.7369C86.4777 49.7369 86.1748 49.4673 86.1748 49.1303C86.1748 48.7934 86.4441 48.4901 86.7806 48.4901L134.809 47.8835C135.145 47.8835 135.448 48.1531 135.448 48.4901C135.448 48.8608 135.179 49.1303 134.842 49.1303Z" fill="white"/>
<path d="M134.977 54.623L86.9491 55.2295C86.6125 55.2295 86.3096 54.9599 86.3096 54.623C86.3096 54.286 86.5788 53.9827 86.9154 53.9827L134.943 53.3762C135.28 53.3762 135.583 53.6457 135.583 53.9827C135.583 54.3197 135.314 54.5893 134.977 54.623Z" fill="white"/>
<path d="M134.876 60.3515L86.848 60.958C86.5114 60.958 86.2085 60.6884 86.2085 60.3515C86.2085 60.0145 86.4777 59.7112 86.8143 59.7112L134.842 59.1047C135.179 59.1047 135.482 59.3743 135.482 59.7112C135.482 60.0482 135.212 60.3515 134.876 60.3515Z" fill="white"/>
</g>
</g>
<path d="M139.89 164.273C132.89 149.109 131.207 132.766 145.511 112.919C145.511 112.885 167.691 147.424 139.89 164.273Z" fill="#91B3FA"/>
<path d="M141.741 155.074C141.708 155.074 141.708 155.074 141.674 155.074C141.573 155.04 141.506 154.939 141.54 154.838C146.79 138.394 145.309 119.119 145.275 118.917C145.275 118.816 145.343 118.715 145.444 118.715C145.545 118.715 145.646 118.782 145.646 118.883C145.646 119.085 147.16 138.427 141.876 154.973C141.91 155.04 141.842 155.074 141.741 155.074Z" fill="white"/>
<path d="M143.458 164.913H88.4635C86.9826 164.913 85.8383 163.835 86.1412 162.689L86.848 159.892C87.0499 159.05 87.9923 158.443 89.0693 158.41L142.112 156.758C143.256 156.725 144.266 157.331 144.535 158.207L145.814 162.655C146.117 163.801 144.973 164.913 143.458 164.913Z" fill="url(#paint63_linear_647_28)"/>
<path d="M118.081 159.185C117.98 159.185 117.879 159.084 117.879 158.982C117.879 158.881 117.98 158.78 118.081 158.78L120.37 158.747C120.47 158.747 120.571 158.848 120.571 158.949C120.571 159.05 120.47 159.151 120.37 159.151L118.081 159.185Z" fill="#BDD0FB"/>
<path d="M88.1604 163.397C88.0258 163.363 87.9585 163.262 87.9585 163.161L88.2951 161.139C88.4633 160.027 89.4057 159.218 90.5164 159.218L114.614 158.881C114.715 158.881 114.816 158.982 114.816 159.084C114.816 159.185 114.715 159.286 114.614 159.286L90.5164 159.623C89.6077 159.623 88.8336 160.297 88.6653 161.206L88.3287 163.228C88.3287 163.329 88.2614 163.397 88.1604 163.397Z" fill="#BDD0FB"/>
<path d="M363.202 487.629C411.754 487.629 451.113 448.223 451.113 399.613C451.113 351.002 411.754 311.596 363.202 311.596C314.65 311.596 275.291 351.002 275.291 399.613C275.291 448.223 314.65 487.629 363.202 487.629Z" fill="url(#paint64_linear_647_28)"/>
<path d="M363.37 480.182C407.294 480.182 442.901 444.532 442.901 400.556C442.901 356.58 407.294 320.93 363.37 320.93C319.447 320.93 283.84 356.58 283.84 400.556C283.84 444.532 319.447 480.182 363.37 480.182Z" fill="url(#paint65_linear_647_28)"/>
<path d="M329.041 356.447C329.041 356.447 277.916 331.174 294.644 312.54C311.371 293.905 342.537 301.352 344.119 320.964C345.667 340.575 307.736 335.959 329.041 356.447Z" fill="white"/>
<path d="M333.382 317.864H310.832C310.563 317.864 310.328 317.628 310.328 317.358C310.328 317.089 310.563 316.853 310.832 316.853H333.382C333.652 316.853 333.887 317.089 333.887 317.358C333.921 317.662 333.685 317.864 333.382 317.864Z" fill="#91B3FA"/>
<path d="M304.135 317.864H297.437C297.168 317.864 296.932 317.628 296.932 317.358C296.932 317.089 297.168 316.853 297.437 316.853H304.135C304.404 316.853 304.639 317.089 304.639 317.358C304.639 317.662 304.404 317.864 304.135 317.864Z" fill="#91B3FA"/>
<path d="M334.156 322.447H325.675C325.406 322.447 325.17 322.211 325.17 321.941C325.17 321.672 325.406 321.436 325.675 321.436H334.156C334.425 321.436 334.661 321.672 334.661 321.941C334.661 322.211 334.425 322.447 334.156 322.447Z" fill="#91B3FA"/>
<path d="M313.255 322.447H298.211C297.942 322.447 297.706 322.211 297.706 321.941C297.706 321.672 297.942 321.436 298.211 321.436H313.255C313.525 321.436 313.76 321.672 313.76 321.941C313.76 322.211 313.525 322.447 313.255 322.447Z" fill="#91B3FA"/>
<path d="M334.897 327.029H312.38C312.111 327.029 311.875 326.793 311.875 326.524C311.875 326.254 312.111 326.018 312.38 326.018H334.897C335.166 326.018 335.401 326.254 335.401 326.524C335.435 326.793 335.199 327.029 334.897 327.029Z" fill="#91B3FA"/>
<path d="M306.76 327.029H298.952C298.682 327.029 298.447 326.793 298.447 326.524C298.447 326.254 298.682 326.018 298.952 326.018H306.76C307.029 326.018 307.265 326.254 307.265 326.524C307.265 326.793 307.029 327.029 306.76 327.029Z" fill="#91B3FA"/>
<mask id="mask4_647_28" style="mask-type:luminance" maskUnits="userSpaceOnUse" x="283" y="320" width="160" height="161">
<path d="M419.588 456.856C450.647 425.76 450.647 375.344 419.588 344.249C388.53 313.153 338.175 313.153 307.116 344.249C276.058 375.344 276.058 425.76 307.116 456.856C338.175 487.951 388.53 487.951 419.588 456.856Z" fill="white"/>
</mask>
<g mask="url(#mask4_647_28)">
<path d="M353.812 363.456C354.754 363.321 355.394 364.399 354.788 365.141C352.634 367.904 349.235 373.262 350.379 378.35C350.446 378.619 350.48 378.855 350.547 379.091C351.187 378.889 351.793 378.417 352.129 377.541C353.072 374.98 357.178 375.317 357.178 375.317C357.178 375.317 355.091 377.069 354.923 379.799C354.788 382.124 352.668 384.786 349.74 385.392C340.114 389.301 332.406 404.532 333.012 407.262C334.224 412.721 360.947 399.04 360.947 399.04L356.033 426.166C356.033 426.166 318.742 426.772 319.651 410.429C320.559 393.783 344.018 380.641 344.018 380.641C344.018 380.641 340.114 365.612 353.812 363.456Z" fill="url(#paint66_linear_647_28)"/>
<path d="M358.591 349.337L367.544 355.301C369.529 356.615 370.068 359.277 368.755 361.265L353.139 385.022C351.826 387.044 349.1 387.583 347.114 386.235L338.162 380.169C336.209 378.855 335.671 376.193 336.984 374.205L352.6 350.584C353.913 348.562 356.605 348.023 358.591 349.337Z" fill="url(#paint67_linear_647_28)"/>
<path d="M363.135 353.144C363.135 353.144 358.759 333.499 381.242 338.722C381.242 338.722 392.147 336.936 392.719 347.248C392.719 347.248 399.753 351.898 394.604 360.794C394.604 360.794 415.504 352.706 424.592 371.038C433.679 389.369 425.332 399.444 416.548 402.072C416.548 402.072 423.649 405.644 420.284 413.698C416.918 421.751 399.888 427.446 389.824 417.64C389.824 417.64 361.183 421.415 361.755 401.163C361.755 401.163 348.427 392.536 362.428 375.823C376.429 359.109 363.135 353.144 363.135 353.144Z" fill="url(#paint68_linear_647_28)"/>
<path d="M361.923 398.669C366.433 397.321 379.593 394.828 392.079 406.352C394.2 408.306 395.075 411.272 394.301 414.069C390.935 426.435 382.083 463.03 389.858 478.834C389.858 478.834 376.16 493.93 361.216 481.766C361.216 481.766 354.519 452.517 345.734 439.678C339.676 430.816 355.394 406.386 359.365 400.489C360.005 399.613 360.88 398.972 361.923 398.669Z" fill="url(#paint69_linear_647_28)"/>
<path d="M374.376 374.07C374.376 374.07 381.04 392.974 381.545 401.331C381.545 401.331 374.174 404.701 367.207 399.006C367.207 399.006 366.467 380.136 365.423 376.732L374.376 374.07Z" fill="url(#paint70_linear_647_28)"/>
<path d="M365.087 348.292C365.087 348.292 347.619 372.756 358.053 379.866C368.486 386.976 380.939 369.589 380.939 369.589C380.939 369.589 384.978 356.211 380.771 351.662C376.53 347.113 365.087 348.292 365.087 348.292Z" fill="url(#paint71_linear_647_28)"/>
<path d="M373.198 342.429C373.198 342.429 365.188 344.316 364.044 347.955C362.933 351.594 375.42 354.964 378.92 355.133L381.747 369.791C381.747 369.791 390.094 356.009 386.796 348.023C383.464 340.07 373.198 342.429 373.198 342.429Z" fill="url(#paint72_linear_647_28)"/>
<path d="M377.574 367.769C377.574 367.769 384.372 359.884 387.065 365.039C389.757 370.161 380.939 374.037 377.877 371.509L377.574 367.769Z" fill="url(#paint73_linear_647_28)"/>
<path d="M359.164 474.656C359.164 474.656 361.116 480.923 358.12 491.268L339.374 556.809C339.071 557.854 339.643 558.932 340.653 559.269C346.273 561.291 364.683 566.985 389.858 565.233C391.137 565.132 392.181 564.256 392.45 563.009C394.099 555.528 399.753 530.054 400.931 524.797C405.374 504.848 410.322 483.316 388.512 470.309C378.449 474.622 369.092 477.183 359.164 474.656Z" fill="url(#paint74_linear_647_28)"/>
<path d="M393.863 408.812C393.863 408.812 415.201 426.57 420.486 450.798C425.77 475.06 389.32 477.621 389.32 477.621C389.32 477.621 384.372 472.095 378.482 474.049C372.592 476.037 378.011 464.378 384.911 464.412C391.777 464.446 388.613 469.871 398.34 465.49C407.831 461.177 413.687 447.9 389.488 427.75C388.074 426.57 386.964 425.087 386.29 423.403C381.612 411.609 385.314 403.858 393.863 408.812Z" fill="url(#paint75_linear_647_28)"/>
</g>
<path d="M439.771 157.197C438.66 157.163 437.785 156.253 437.751 155.141C437.549 143.617 434.015 86.4667 384.338 74.5042C329.041 61.1939 303.731 118.209 303.731 118.209C303.731 118.209 235.307 91.6223 222.181 162.858C179.269 173.304 168.129 230.083 196.03 257.816C200.473 262.23 206.396 264.724 212.623 264.757L481.269 267.217C489.145 267.285 496.145 262.062 498.4 254.379C506.815 225.703 517.787 159.05 439.771 157.197Z" fill="url(#paint76_linear_647_28)"/>
<path d="M433.611 158.41C432.501 158.376 431.626 157.466 431.592 156.354C431.356 145.302 427.856 92.2963 381.073 81.1763C328.771 68.7421 304.875 121.983 304.875 121.983C304.875 121.983 240.187 97.1486 227.801 163.7C187.616 173.337 176.913 225.467 202.323 251.649C206.766 256.232 212.858 258.86 219.219 258.894L472.114 261.185C480.024 261.253 487.024 255.996 489.246 248.313C497.121 221.019 506.478 160.162 433.611 158.41Z" fill="url(#paint77_linear_647_28)"/>
<path d="M111.182 461.615C157.708 461.615 195.424 423.853 195.424 377.272C195.424 330.69 157.708 292.928 111.182 292.928C64.6561 292.928 26.9395 330.69 26.9395 377.272C26.9395 423.853 64.6561 461.615 111.182 461.615Z" fill="url(#paint78_linear_647_28)"/>
<path d="M111.35 454.505C153.452 454.505 187.582 420.334 187.582 378.181C187.582 336.029 153.452 301.858 111.35 301.858C69.2484 301.858 35.1182 336.029 35.1182 378.181C35.1182 420.334 69.2484 454.505 111.35 454.505Z" fill="url(#paint79_linear_647_28)"/>
<path d="M103.878 399.714C91.2909 396.951 100.782 378.249 101.22 377.541L78.6697 385.46C78.6697 385.46 76.6503 396.31 90.6851 406.318C94.219 408.846 97.8203 409.924 101.22 410.16C100.984 405.813 102.297 402.308 103.878 399.714Z" fill="url(#paint80_linear_647_28)"/>
<path d="M129.491 400.59C125.789 396.074 119.663 397.793 119.663 397.793C112.36 400.084 107.311 400.489 103.878 399.747C102.263 402.342 100.984 405.813 101.219 410.193C108.557 410.665 114.918 407.093 117.778 405.139C118.822 404.431 120.235 404.667 120.976 405.678C121.716 406.723 122.356 408.003 121.885 409.048C120.942 411.103 123.231 412.519 123.668 411.777C124.072 411.036 124.342 406.116 124.342 406.116C124.342 406.116 127.909 412.586 129.323 415.046C130.736 417.539 133.732 416.293 133.732 416.293C133.732 416.293 133.193 405.105 129.491 400.59Z" fill="url(#paint81_linear_647_28)"/>
<path d="M53.7301 352.268C53.7301 352.268 69.5486 339.801 111.047 357.525C111.047 357.525 115.524 362.479 114.009 368.51C112.494 374.542 90.8533 408.172 90.9542 423.234C90.9542 423.234 75.3376 433.95 53.5618 425.896C53.5618 425.93 43.7677 386.774 53.7301 352.268Z" fill="url(#paint82_linear_647_28)"/>
<path d="M87.2855 335.386L81.5975 348.696C81.0254 350.011 81.261 351.561 82.237 352.605C84.1891 354.762 88.1942 357.525 94.488 355.133C96.3728 354.425 97.719 352.74 98.0556 350.786L100.479 336.195L87.2855 335.386Z" fill="url(#paint83_linear_647_28)"/>
<path d="M53.3261 402.275C48.7488 394.39 64.2645 369.252 64.2645 369.252L53.6963 352.268C53.6963 352.268 17.078 396.074 35.8584 417.068C38.5509 420.067 41.479 421.886 44.5418 422.762C45.3159 411.777 49.8258 405.51 53.3261 402.275Z" fill="url(#paint84_linear_647_28)"/>
<path d="M52.9558 402.275C52.7202 402.342 52.4846 402.241 52.35 402.039C47.6717 393.985 62.6489 369.521 63.2883 368.477C63.423 368.241 63.7595 368.173 63.9951 368.308C64.2307 368.443 64.298 368.78 64.1634 369.016C63.9951 369.252 48.8497 393.985 53.225 401.5C53.3597 401.736 53.2923 402.072 53.0231 402.207C53.0231 402.241 52.9894 402.241 52.9558 402.275Z" fill="url(#paint85_linear_647_28)"/>
<path d="M90.1465 401.399C87.3531 402.174 84.7278 403.589 81.9007 404.296C78.7706 405.105 75.6742 406.049 72.5105 406.756C67.5966 407.868 61.1346 409.149 56.8265 405.745C56.4563 405.476 53.5282 402.14 53.3262 402.275C45.4843 406.79 43.9697 417.405 43.9697 422.527C58.2401 430.344 80.689 415.113 86.7472 410.665C87.7569 409.924 88.9686 409.621 90.2139 409.789C92.6708 410.126 96.9452 410.598 99.2002 410.092C102.499 409.351 108.052 420.774 113.201 416.764C113.201 416.764 107.21 396.681 90.1465 401.399Z" fill="url(#paint86_linear_647_28)"/>
<path d="M105.696 316.55C105.696 316.55 109.297 328.175 108.96 334.038C108.624 339.902 109.465 343.81 102.599 344.248C95.7333 344.687 90.4492 340.677 88.026 334.544C88.026 334.544 84.2228 325.075 85.7037 321.537C87.2182 317.999 105.696 316.55 105.696 316.55Z" fill="url(#paint87_linear_647_28)"/>
<path d="M90.8194 330.635L91.6608 330.736C91.6608 330.736 88.9683 323.154 92.1656 322.244C95.3967 321.335 107.85 320.189 110.946 316.145C113.941 312.27 112.292 306.609 109.061 304.722C108.859 304.587 108.59 304.688 108.455 304.857L108.119 305.362C107.883 305.699 107.345 305.598 107.277 305.194C107.21 304.823 106.705 304.655 106.47 304.992C105.527 306.205 103.104 308.058 97.1468 308.496C88.6654 309.103 82.8091 311.866 82.035 317.561C82.0014 317.931 81.5638 318.066 81.2946 317.864C80.7224 317.426 79.78 317.122 78.3328 318.1C75.8422 319.751 76.2124 324.839 80.7561 329.489C80.958 329.725 80.9243 330.096 80.6551 330.231C79.6791 330.736 78.1645 331.983 81.4629 334.241C84.8285 336.566 86.9489 336.566 87.7903 336.464C88.0259 336.431 88.1942 336.262 88.1942 336.026L88.4634 330.904C88.4634 330.635 88.699 330.433 88.9683 330.466L90.8194 330.635Z" fill="url(#paint88_linear_647_28)"/>
<path d="M90.9202 331.713C90.9202 331.713 89.8769 324.435 86.4776 326.052C83.0783 327.67 87.2517 334.173 89.7759 334.712L90.9202 331.713Z" fill="url(#paint89_linear_647_28)"/>
<path d="M79.7804 423.773C79.814 423.773 79.8813 423.773 79.915 423.773L137.535 422.897C138.949 422.864 140.093 421.752 140.059 420.404C140.026 419.056 138.848 417.944 137.434 417.977L79.814 418.854C78.4005 418.887 77.2561 419.999 77.2898 421.347C77.2898 422.661 78.4005 423.706 79.7804 423.773Z" fill="url(#paint90_linear_647_28)"/>
<path d="M102.195 339.025C91.9297 339.902 83.5156 331.848 83.4819 331.713V329.894C83.5492 329.995 92.4009 338.958 102.161 338.116L102.195 339.025Z" fill="url(#paint91_linear_647_28)"/>
<path d="M106.368 338.587C106.368 339.261 105.863 339.834 105.258 339.834H102.329C101.724 339.834 101.219 339.295 101.219 338.587C101.219 337.913 101.724 337.341 102.329 337.341H105.258C105.897 337.341 106.368 337.913 106.368 338.587Z" fill="url(#paint92_linear_647_28)"/>
<path d="M88.7327 320.795C88.7327 320.795 86.3767 308.26 100.849 308.193C101.051 308.193 101.085 307.889 100.883 307.856C96.9113 306.946 85.4344 305.598 85.2324 320.627C87.4538 321.402 88.7327 320.795 88.7327 320.795Z" fill="url(#paint93_linear_647_28)"/>
<path d="M86.0737 319.245C80.4194 320.391 81.1262 327.535 81.1262 327.535C80.7223 332.724 82.2369 335.285 84.1553 336.532C85.4679 337.374 87.1507 337.442 88.5306 336.734C89.9442 336.026 90.853 334.645 90.9539 333.061C91.0549 331.646 91.1895 330.298 91.2905 329.826C91.5597 328.714 91.728 318.1 86.0737 319.245Z" fill="url(#paint94_linear_647_28)"/>
<path d="M86.5785 321.065C85.4005 320.863 84.2562 321.469 83.785 322.581C80.4193 330.399 84.5591 335.487 86.5785 335.588C88.7325 335.689 88.6652 325.378 88.2277 322.716C88.0594 321.638 87.3526 321.2 86.5785 321.065Z" fill="url(#paint95_linear_647_28)"/>
<path d="M27.0068 425.863C26.9058 425.155 27.0404 424.414 27.3433 423.841C27.6463 423.268 28.1174 422.965 28.6223 422.965H194.347C194.987 422.965 195.592 423.436 195.929 424.245C196.266 425.054 196.333 426.065 196.064 426.941L194.28 432.703C193.876 434.017 192.967 434.86 191.991 434.86H29.7666C28.8579 434.86 28.0838 433.916 27.8818 432.568L27.0068 425.863Z" fill="url(#paint96_linear_647_28)"/>
<path d="M125.621 343.103C124.443 352.706 119.159 391.728 117.644 402.881C117.442 404.465 118.687 405.813 120.269 405.779L209.863 403.218C211.041 403.185 212.051 402.342 212.286 401.196L226.22 338.352C226.59 336.7 225.278 335.15 223.561 335.251L128.01 340.845C126.765 340.946 125.755 341.89 125.621 343.103Z" fill="url(#paint97_linear_647_28)"/>
<path d="M161.633 382.528L148.406 420.168L179.202 420.808L181.76 382.764C181.895 380.978 180.414 379.496 178.63 379.63L164.259 380.574C163.047 380.641 162.037 381.416 161.633 382.528Z" fill="url(#paint98_linear_647_28)"/>
<path d="M135.919 420.943C135.583 421.987 136.357 423.032 137.434 423.032H185.664C186.539 423.032 187.279 422.324 187.279 421.415V419.359C187.279 418.449 186.505 417.708 185.596 417.775L137.367 419.831C136.694 419.898 136.121 420.336 135.919 420.943Z" fill="url(#paint99_linear_647_28)"/>
<path d="M124.274 382.798C123.938 382.764 123.669 382.427 123.736 382.09L128.044 347.955C128.313 345.799 130.097 344.147 132.251 344.013L214.844 339.025C214.878 339.362 214.609 339.699 214.238 339.699L132.285 344.653C130.434 344.754 128.919 346.203 128.683 348.056L124.274 382.798Z" fill="#BDD0FB"/>
<path d="M121.75 400.185C121.582 400.152 121.447 400.017 121.481 399.815L122.356 392.941C122.39 392.772 122.524 392.637 122.726 392.671C122.894 392.705 123.029 392.84 122.995 393.042L122.12 399.916C122.087 400.084 121.918 400.219 121.75 400.185Z" fill="#BDD0FB"/>
<path d="M136.29 324.873C136.29 324.873 190.174 298.218 172.572 278.573C154.936 258.928 122.087 266.779 120.404 287.435C118.721 308.125 158.739 303.273 136.29 324.873Z" fill="white"/>
<path d="M167.994 283.998H144.199C144.031 283.998 143.862 283.864 143.862 283.661C143.862 283.493 143.997 283.324 144.199 283.324H167.994C168.162 283.324 168.331 283.459 168.331 283.661C168.331 283.83 168.162 283.998 167.994 283.998Z" fill="#91B3FA"/>
<path d="M137.131 283.998H130.063C129.895 283.998 129.727 283.864 129.727 283.661C129.727 283.493 129.861 283.324 130.063 283.324H137.131C137.299 283.324 137.468 283.459 137.468 283.661C137.468 283.83 137.333 283.998 137.131 283.998Z" fill="#91B3FA"/>
<path d="M168.802 288.817H159.883C159.715 288.817 159.546 288.682 159.546 288.48C159.546 288.312 159.681 288.143 159.883 288.143H168.802C168.97 288.143 169.139 288.278 169.139 288.48C169.105 288.648 168.97 288.817 168.802 288.817Z" fill="#91B3FA"/>
<path d="M146.757 288.817H130.871C130.702 288.817 130.534 288.682 130.534 288.48C130.534 288.312 130.669 288.143 130.871 288.143H146.757C146.925 288.143 147.093 288.278 147.093 288.48C147.093 288.648 146.925 288.817 146.757 288.817Z" fill="#91B3FA"/>
<path d="M169.576 293.636H145.848C145.68 293.636 145.512 293.501 145.512 293.299C145.512 293.13 145.646 292.962 145.848 292.962H169.576C169.744 292.962 169.913 293.096 169.913 293.299C169.913 293.467 169.778 293.636 169.576 293.636Z" fill="#91B3FA"/>
<path d="M139.891 293.636H131.679C131.511 293.636 131.342 293.501 131.342 293.299C131.342 293.13 131.477 292.962 131.679 292.962H139.891C140.059 292.962 140.228 293.096 140.228 293.299C140.228 293.467 140.093 293.636 139.891 293.636Z" fill="#91B3FA"/>
<path d="M494.294 277.967L516.306 296.567L510.348 303.644C509.911 304.149 510.281 304.958 510.954 304.958L536.533 305.767C537.206 305.8 537.711 305.126 537.509 304.486L530.542 282.516C530.374 281.943 529.6 281.808 529.23 282.28L523.912 289.154L499.679 271.935C499.175 271.564 498.434 271.665 498.03 272.137L494.193 276.619C493.857 277.023 493.89 277.63 494.294 277.967Z" fill="url(#paint100_linear_647_28)"/>
<path d="M226.859 283.863L204.175 302.565L209.223 308.024C209.593 308.429 209.291 309.069 208.752 309.103L188.188 310.012C187.649 310.046 187.245 309.507 187.38 309.001L192.765 291.243C192.9 290.771 193.506 290.67 193.809 291.041L198.15 296.5L220.936 277.259C221.34 276.922 221.912 276.956 222.248 277.36L226.96 282.617C227.297 282.987 227.263 283.56 226.859 283.863Z" fill="url(#paint101_linear_647_28)"/>
<path d="M363.135 270.688L364.212 286.761L371.044 285.919C371.549 285.885 371.886 286.424 371.616 286.829L361.216 302.801C360.947 303.239 360.341 303.239 360.005 302.835L349.571 289.188C349.302 288.817 349.538 288.311 349.975 288.278L356.437 287.974L355.125 271.463C355.091 271.193 355.293 270.924 355.596 270.89L362.193 269.913C362.664 269.812 363.101 270.182 363.135 270.688Z" fill="url(#paint102_linear_647_28)"/>
<path d="M458.854 136.81L475.077 127.914L470.87 121.208C470.567 120.703 471.004 120.096 471.576 120.164L493.251 123.297C493.823 123.365 494.16 124.005 493.891 124.511L484.77 141.999C484.534 142.471 483.861 142.471 483.626 141.999L480.159 135.428L463.6 144.796C463.331 144.965 462.96 144.863 462.792 144.594L458.551 138.225C458.215 137.72 458.349 137.079 458.854 136.81Z" fill="url(#paint103_linear_647_28)"/>
<path d="M238.639 111.807L222.652 102.506L219.085 109.583C218.815 110.088 218.075 110.055 217.839 109.515L209.29 89.3309C209.055 88.7918 209.425 88.1852 210.031 88.1515L229.72 86.9721C230.225 86.9384 230.561 87.5113 230.292 87.9493L226.455 94.3181L243.014 103.686C243.284 103.854 243.418 104.191 243.284 104.495L240.019 111.402C239.75 111.908 239.11 112.11 238.639 111.807Z" fill="url(#paint104_linear_647_28)"/>
<defs>
<linearGradient id="paint0_linear_647_28" x1="11.3054" y1="235.655" x2="742.133" y2="235.655" gradientUnits="userSpaceOnUse">
<stop stop-color="#E7ECFC"/>
<stop offset="1" stop-color="#E9EFFD"/>
</linearGradient>
<linearGradient id="paint1_linear_647_28" x1="595.267" y1="14.479" x2="599.602" y2="274.286" gradientUnits="userSpaceOnUse">
<stop stop-color="#2068FE"/>
<stop offset="1" stop-color="#4F52FF"/>
</linearGradient>
<linearGradient id="paint2_linear_647_28" x1="514.883" y1="102.771" x2="678.914" y2="102.771" gradientUnits="userSpaceOnUse">
<stop stop-color="#DAE3FE"/>
<stop offset="1" stop-color="#E9EFFD"/>
</linearGradient>
<linearGradient id="paint3_linear_647_28" x1="490.268" y1="92.3719" x2="565.027" y2="79.2801" gradientUnits="userSpaceOnUse">
<stop stop-color="#09005D"/>
<stop offset="1" stop-color="#1A0F91"/>
</linearGradient>
<linearGradient id="paint4_linear_647_28" x1="552.733" y1="89.0381" x2="586.827" y2="83.0677" gradientUnits="userSpaceOnUse">
<stop stop-color="#FE7062"/>
<stop offset="1" stop-color="#FF928E"/>
</linearGradient>
<linearGradient id="paint5_linear_647_28" x1="521.554" y1="85.0092" x2="533.736" y2="48.3381" gradientUnits="userSpaceOnUse">
<stop stop-color="#FF928E"/>
<stop offset="1" stop-color="#FEB3B1"/>
</linearGradient>
<linearGradient id="paint6_linear_647_28" x1="521.347" y1="84.9404" x2="533.529" y2="48.2701" gradientUnits="userSpaceOnUse">
<stop stop-color="#FF928E"/>
<stop offset="1" stop-color="#FEB3B1"/>
</linearGradient>
<linearGradient id="paint7_linear_647_28" x1="591.974" y1="27.1474" x2="557.266" y2="68.5423" gradientUnits="userSpaceOnUse">
<stop stop-color="#FF928E"/>
<stop offset="1" stop-color="#FEB3B1"/>
</linearGradient>
<linearGradient id="paint8_linear_647_28" x1="604.761" y1="37.8688" x2="570.053" y2="79.263" gradientUnits="userSpaceOnUse">
<stop stop-color="#FF928E"/>
<stop offset="1" stop-color="#FEB3B1"/>
</linearGradient>
<linearGradient id="paint9_linear_647_28" x1="490.524" y1="96.9775" x2="523.671" y2="91.1728" gradientUnits="userSpaceOnUse">
<stop stop-color="#FF928E"/>
<stop offset="1" stop-color="#FEB3B1"/>
</linearGradient>
<linearGradient id="paint10_linear_647_28" x1="533.148" y1="73.6149" x2="567.839" y2="153.53" gradientUnits="userSpaceOnUse">
<stop stop-color="#4042E2"/>
<stop offset="1" stop-color="#4F52FF"/>
</linearGradient>
<linearGradient id="paint11_linear_647_28" x1="539.138" y1="72.9472" x2="546.121" y2="72.9472" gradientUnits="userSpaceOnUse">
<stop stop-color="#09005D"/>
<stop offset="1" stop-color="#1A0F91"/>
</linearGradient>
<linearGradient id="paint12_linear_647_28" x1="535.831" y1="75.6899" x2="549.354" y2="75.6899" gradientUnits="userSpaceOnUse">
<stop stop-color="#09005D"/>
<stop offset="1" stop-color="#1A0F91"/>
</linearGradient>
<linearGradient id="paint13_linear_647_28" x1="523.306" y1="98.1007" x2="534.641" y2="96.1156" gradientUnits="userSpaceOnUse">
<stop stop-color="#FF928E"/>
<stop offset="1" stop-color="#FEB3B1"/>
</linearGradient>
<linearGradient id="paint14_linear_647_28" x1="-287.341" y1="1126.37" x2="-270.489" y2="1104.42" gradientUnits="userSpaceOnUse">
<stop stop-color="#FF928E"/>
<stop offset="1" stop-color="#FEB3B1"/>
</linearGradient>
<linearGradient id="paint15_linear_647_28" x1="647.116" y1="25.4745" x2="613.3" y2="31.3964" gradientUnits="userSpaceOnUse">
<stop stop-color="#09005D"/>
<stop offset="1" stop-color="#1A0F91"/>
</linearGradient>
<linearGradient id="paint16_linear_647_28" x1="-292.806" y1="1122.2" x2="-275.954" y2="1100.24" gradientUnits="userSpaceOnUse">
<stop stop-color="#FF928E"/>
<stop offset="1" stop-color="#FEB3B1"/>
</linearGradient>
<linearGradient id="paint17_linear_647_28" x1="646.941" y1="24.4777" x2="613.125" y2="30.3996" gradientUnits="userSpaceOnUse">
<stop stop-color="#09005D"/>
<stop offset="1" stop-color="#1A0F91"/>
</linearGradient>
<linearGradient id="paint18_linear_647_28" x1="707.767" y1="120.232" x2="635.756" y2="195.503" gradientUnits="userSpaceOnUse">
<stop stop-color="#09005D"/>
<stop offset="1" stop-color="#1A0F91"/>
</linearGradient>
<linearGradient id="paint19_linear_647_28" x1="654.178" y1="166.499" x2="688.523" y2="217.955" gradientUnits="userSpaceOnUse">
<stop stop-color="#FE7062"/>
<stop offset="1" stop-color="#FF928E"/>
</linearGradient>
<linearGradient id="paint20_linear_647_28" x1="660.434" y1="137.072" x2="662.458" y2="164.703" gradientUnits="userSpaceOnUse">
<stop stop-color="#FF928E"/>
<stop offset="1" stop-color="#FEB3B1"/>
</linearGradient>
<linearGradient id="paint21_linear_647_28" x1="664.711" y1="128.358" x2="654.821" y2="145.196" gradientUnits="userSpaceOnUse">
<stop stop-color="#FF928E"/>
<stop offset="1" stop-color="#FEB3B1"/>
</linearGradient>
<linearGradient id="paint22_linear_647_28" x1="665.196" y1="128.348" x2="650.172" y2="147.669" gradientUnits="userSpaceOnUse">
<stop stop-color="#4042E2"/>
<stop offset="1" stop-color="#4F52FF"/>
</linearGradient>
<linearGradient id="paint23_linear_647_28" x1="655.612" y1="135.678" x2="672.194" y2="148.351" gradientUnits="userSpaceOnUse">
<stop stop-color="#FF928E"/>
<stop offset="1" stop-color="#FEB3B1"/>
</linearGradient>
<linearGradient id="paint24_linear_647_28" x1="641.337" y1="175.07" x2="675.682" y2="226.526" gradientUnits="userSpaceOnUse">
<stop stop-color="#FE7062"/>
<stop offset="1" stop-color="#FF928E"/>
</linearGradient>
<linearGradient id="paint25_linear_647_28" x1="644.497" y1="166.689" x2="650.783" y2="189.292" gradientUnits="userSpaceOnUse">
<stop stop-color="#E1473D"/>
<stop offset="1" stop-color="#E9605A"/>
</linearGradient>
<linearGradient id="paint26_linear_647_28" x1="643.412" y1="180.494" x2="654.027" y2="208.396" gradientUnits="userSpaceOnUse">
<stop stop-color="#FF928E"/>
<stop offset="1" stop-color="#FEB3B1"/>
</linearGradient>
<linearGradient id="paint27_linear_647_28" x1="656.555" y1="175.493" x2="667.171" y2="203.396" gradientUnits="userSpaceOnUse">
<stop stop-color="#FF928E"/>
<stop offset="1" stop-color="#FEB3B1"/>
</linearGradient>
<linearGradient id="paint28_linear_647_28" x1="679.547" y1="185.628" x2="674.056" y2="192.693" gradientUnits="userSpaceOnUse">
<stop stop-color="#4042E2"/>
<stop offset="1" stop-color="#4F52FF"/>
</linearGradient>
<linearGradient id="paint29_linear_647_28" x1="683.643" y1="188.812" x2="678.153" y2="195.877" gradientUnits="userSpaceOnUse">
<stop stop-color="#4042E2"/>
<stop offset="1" stop-color="#4F52FF"/>
</linearGradient>
<linearGradient id="paint30_linear_647_28" x1="685.499" y1="164.719" x2="695.276" y2="189.692" gradientUnits="userSpaceOnUse">
<stop stop-color="#4042E2"/>
<stop offset="1" stop-color="#4F52FF"/>
</linearGradient>
<linearGradient id="paint31_linear_647_28" x1="686.983" y1="188.953" x2="688.332" y2="177.946" gradientUnits="userSpaceOnUse">
<stop stop-color="#4042E2"/>
<stop offset="1" stop-color="#4F52FF"/>
</linearGradient>
<linearGradient id="paint32_linear_647_28" x1="681.814" y1="194.62" x2="698.273" y2="205.395" gradientUnits="userSpaceOnUse">
<stop stop-color="#4042E2"/>
<stop offset="1" stop-color="#4F52FF"/>
</linearGradient>
<linearGradient id="paint33_linear_647_28" x1="617.111" y1="279.911" x2="621.42" y2="538.13" gradientUnits="userSpaceOnUse">
<stop stop-color="#2666FE"/>
<stop offset="1" stop-color="#4F52FF"/>
</linearGradient>
<linearGradient id="paint34_linear_647_28" x1="537.218" y1="367.664" x2="700.247" y2="367.664" gradientUnits="userSpaceOnUse">
<stop stop-color="#DAE3FE"/>
<stop offset="1" stop-color="#E9EFFD"/>
</linearGradient>
<linearGradient id="paint35_linear_647_28" x1="624.226" y1="423.189" x2="615.792" y2="294.468" gradientUnits="userSpaceOnUse">
<stop stop-color="#0177FD"/>
<stop offset="0.510417" stop-color="#67AEFF"/>
</linearGradient>
<linearGradient id="paint36_linear_647_28" x1="683.072" y1="296.8" x2="493.154" y2="513.459" gradientUnits="userSpaceOnUse">
<stop stop-color="#4042E2"/>
<stop offset="1" stop-color="#4F52FF"/>
</linearGradient>
<linearGradient id="paint37_linear_647_28" x1="556.007" y1="367.302" x2="687.033" y2="367.302" gradientUnits="userSpaceOnUse">
<stop stop-color="#B7BED2"/>
<stop offset="1" stop-color="#E9EFFD"/>
</linearGradient>
<linearGradient id="paint38_linear_647_28" x1="627.096" y1="290.15" x2="622.373" y2="391.242" gradientUnits="userSpaceOnUse">
<stop stop-color="#09005D"/>
<stop offset="1" stop-color="#1A0F91"/>
</linearGradient>
<linearGradient id="paint39_linear_647_28" x1="686.868" y1="291.368" x2="641.525" y2="335.127" gradientUnits="userSpaceOnUse">
<stop stop-color="#09005D"/>
<stop offset="1" stop-color="#1A0F91"/>
</linearGradient>
<linearGradient id="paint40_linear_647_28" x1="656.094" y1="319.301" x2="679.018" y2="303.466" gradientUnits="userSpaceOnUse">
<stop stop-color="#4042E2"/>
<stop offset="1" stop-color="#4F52FF"/>
</linearGradient>
<linearGradient id="paint41_linear_647_28" x1="663.242" y1="311.548" x2="672.401" y2="311.548" gradientUnits="userSpaceOnUse">
<stop stop-color="#4042E2"/>
<stop offset="1" stop-color="#4F52FF"/>
</linearGradient>
<linearGradient id="paint42_linear_647_28" x1="663.766" y1="311.548" x2="671.878" y2="311.548" gradientUnits="userSpaceOnUse">
<stop stop-color="#09005D"/>
<stop offset="1" stop-color="#1A0F91"/>
</linearGradient>
<linearGradient id="paint43_linear_647_28" x1="654.748" y1="333.603" x2="681.274" y2="333.603" gradientUnits="userSpaceOnUse">
<stop stop-color="#DAE3FE"/>
<stop offset="1" stop-color="#E9EFFD"/>
</linearGradient>
<linearGradient id="paint44_linear_647_28" x1="657.085" y1="329.217" x2="678.937" y2="329.217" gradientUnits="userSpaceOnUse">
<stop stop-color="#DAE3FE"/>
<stop offset="1" stop-color="#E9EFFD"/>
</linearGradient>
<linearGradient id="paint45_linear_647_28" x1="660.198" y1="324.831" x2="675.824" y2="324.831" gradientUnits="userSpaceOnUse">
<stop stop-color="#DAE3FE"/>
<stop offset="1" stop-color="#E9EFFD"/>
</linearGradient>
<linearGradient id="paint46_linear_647_28" x1="641.471" y1="308.952" x2="617.248" y2="343.333" gradientUnits="userSpaceOnUse">
<stop stop-color="#09005D"/>
<stop offset="1" stop-color="#1A0F91"/>
</linearGradient>
<linearGradient id="paint47_linear_647_28" x1="604.862" y1="442.578" x2="588.335" y2="525.772" gradientUnits="userSpaceOnUse">
<stop stop-color="#FE7062"/>
<stop offset="1" stop-color="#FF928E"/>
</linearGradient>
<linearGradient id="paint48_linear_647_28" x1="580.631" y1="383.385" x2="619.393" y2="476.906" gradientUnits="userSpaceOnUse">
<stop stop-color="#FF928E"/>
<stop offset="1" stop-color="#FEB3B1"/>
</linearGradient>
<linearGradient id="paint49_linear_647_28" x1="649.206" y1="383.184" x2="610.444" y2="476.705" gradientUnits="userSpaceOnUse">
<stop stop-color="#FF928E"/>
<stop offset="1" stop-color="#FEB3B1"/>
</linearGradient>
<linearGradient id="paint50_linear_647_28" x1="614.659" y1="387.844" x2="614.153" y2="358.529" gradientUnits="userSpaceOnUse">
<stop stop-color="#FF928E"/>
<stop offset="1" stop-color="#FEB3B1"/>
</linearGradient>
<linearGradient id="paint51_linear_647_28" x1="557.569" y1="552.366" x2="566.852" y2="520.596" gradientUnits="userSpaceOnUse">
<stop stop-color="#FF928E"/>
<stop offset="1" stop-color="#FEB3B1"/>
</linearGradient>
<linearGradient id="paint52_linear_647_28" x1="642.459" y1="303.715" x2="615.204" y2="342.401" gradientUnits="userSpaceOnUse">
<stop stop-color="#09005D"/>
<stop offset="1" stop-color="#1A0F91"/>
</linearGradient>
<linearGradient id="paint53_linear_647_28" x1="604.934" y1="245.272" x2="604.575" y2="212.174" gradientUnits="userSpaceOnUse">
<stop stop-color="#FF928E"/>
<stop offset="1" stop-color="#FEB3B1"/>
</linearGradient>
<linearGradient id="paint54_linear_647_28" x1="112.988" y1="12.1127" x2="117.277" y2="269.13" gradientUnits="userSpaceOnUse">
<stop stop-color="#2267FE"/>
<stop offset="1" stop-color="#4F52FF"/>
</linearGradient>
<linearGradient id="paint55_linear_647_28" x1="33.4673" y1="99.4568" x2="195.738" y2="99.4568" gradientUnits="userSpaceOnUse">
<stop stop-color="#DAE3FE"/>
<stop offset="1" stop-color="#E9EFFD"/>
</linearGradient>
<linearGradient id="paint56_linear_647_28" x1="121.333" y1="132.063" x2="106.153" y2="191.697" gradientUnits="userSpaceOnUse">
<stop stop-color="#0177FD"/>
<stop offset="1" stop-color="#1A0F91"/>
</linearGradient>
<linearGradient id="paint57_linear_647_28" x1="123.726" y1="28.831" x2="107.87" y2="121.828" gradientUnits="userSpaceOnUse">
<stop stop-color="#0177FD"/>
<stop offset="1" stop-color="#1A0F91"/>
</linearGradient>
<linearGradient id="paint58_linear_647_28" x1="137.931" y1="61.2655" x2="11.1534" y2="206.32" gradientUnits="userSpaceOnUse">
<stop stop-color="#0177FD"/>
<stop offset="1" stop-color="#4F52FF"/>
</linearGradient>
<linearGradient id="paint59_linear_647_28" x1="136.362" y1="63.6295" x2="16.9091" y2="200.304" gradientUnits="userSpaceOnUse">
<stop stop-color="#B37CFF"/>
<stop offset="1" stop-color="#F895E7"/>
</linearGradient>
<linearGradient id="paint60_linear_647_28" x1="108.275" y1="69.5914" x2="118.058" y2="20.0613" gradientUnits="userSpaceOnUse">
<stop stop-color="#FE7062"/>
<stop offset="1" stop-color="#FF928E"/>
</linearGradient>
<linearGradient id="paint61_linear_647_28" x1="119.585" y1="31.2898" x2="110.139" y2="88.234" gradientUnits="userSpaceOnUse">
<stop stop-color="#FE7062"/>
<stop offset="1" stop-color="#FF928E"/>
</linearGradient>
<linearGradient id="paint62_linear_647_28" x1="108.417" y1="69.6195" x2="118.2" y2="20.0896" gradientUnits="userSpaceOnUse">
<stop stop-color="#FE7062"/>
<stop offset="1" stop-color="#FF928E"/>
</linearGradient>
<linearGradient id="paint63_linear_647_28" x1="86.0827" y1="160.832" x2="145.84" y2="160.832" gradientUnits="userSpaceOnUse">
<stop stop-color="#0177FD"/>
<stop offset="1" stop-color="#1A0F91"/>
</linearGradient>
<linearGradient id="paint64_linear_647_28" x1="361.777" y1="314.941" x2="365.982" y2="566.909" gradientUnits="userSpaceOnUse">
<stop stop-color="#2069FE"/>
<stop offset="1" stop-color="#4F52FF"/>
</linearGradient>
<linearGradient id="paint65_linear_647_28" x1="283.819" y1="400.569" x2="442.901" y2="400.569" gradientUnits="userSpaceOnUse">
<stop stop-color="#DAE3FE"/>
<stop offset="1" stop-color="#E9EFFD"/>
</linearGradient>
<linearGradient id="paint66_linear_647_28" x1="365.024" y1="348.139" x2="334.065" y2="426.344" gradientUnits="userSpaceOnUse">
<stop stop-color="#FF928E"/>
<stop offset="1" stop-color="#FEB3B1"/>
</linearGradient>
<linearGradient id="paint67_linear_647_28" x1="371.678" y1="344.657" x2="340.104" y2="383.427" gradientUnits="userSpaceOnUse">
<stop stop-color="#2B3582"/>
<stop offset="1" stop-color="#150E42"/>
</linearGradient>
<linearGradient id="paint68_linear_647_28" x1="451.387" y1="339.326" x2="394.031" y2="377.521" gradientUnits="userSpaceOnUse">
<stop stop-color="#09005D"/>
<stop offset="1" stop-color="#1A0F91"/>
</linearGradient>
<linearGradient id="paint69_linear_647_28" x1="362.554" y1="471.828" x2="336.113" y2="567.559" gradientUnits="userSpaceOnUse">
<stop stop-color="#FE7062"/>
<stop offset="1" stop-color="#FF928E"/>
</linearGradient>
<linearGradient id="paint70_linear_647_28" x1="373.859" y1="366.97" x2="372.847" y2="428.633" gradientUnits="userSpaceOnUse">
<stop stop-color="#FF928E"/>
<stop offset="1" stop-color="#FEB3B1"/>
</linearGradient>
<linearGradient id="paint71_linear_647_28" x1="2114.03" y1="-798.007" x2="2071.63" y2="-769.864" gradientUnits="userSpaceOnUse">
<stop stop-color="#FF928E"/>
<stop offset="1" stop-color="#FEB3B1"/>
</linearGradient>
<linearGradient id="paint72_linear_647_28" x1="435.984" y1="316.198" x2="378.628" y2="354.393" gradientUnits="userSpaceOnUse">
<stop stop-color="#09005D"/>
<stop offset="1" stop-color="#1A0F91"/>
</linearGradient>
<linearGradient id="paint73_linear_647_28" x1="2120.5" y1="-788.258" x2="2078.1" y2="-760.115" gradientUnits="userSpaceOnUse">
<stop stop-color="#FF928E"/>
<stop offset="1" stop-color="#FEB3B1"/>
</linearGradient>
<linearGradient id="paint74_linear_647_28" x1="373.201" y1="531.869" x2="410.952" y2="712.22" gradientUnits="userSpaceOnUse">
<stop stop-color="#09005D"/>
<stop offset="1" stop-color="#1A0F91"/>
</linearGradient>
<linearGradient id="paint75_linear_647_28" x1="415.839" y1="484.278" x2="302.047" y2="315.762" gradientUnits="userSpaceOnUse">
<stop stop-color="#FF928E"/>
<stop offset="1" stop-color="#FEB3B1"/>
</linearGradient>
<linearGradient id="paint76_linear_647_28" x1="352.88" y1="116.409" x2="329.94" y2="342.846" gradientUnits="userSpaceOnUse">
<stop stop-color="#0177FD"/>
<stop offset="1" stop-color="#4F52FF"/>
</linearGradient>
<linearGradient id="paint77_linear_647_28" x1="363.964" y1="-64.5223" x2="353.168" y2="70.2636" gradientUnits="userSpaceOnUse">
<stop stop-color="#0177FD"/>
<stop offset="1" stop-color="#67AEFF"/>
</linearGradient>
<linearGradient id="paint78_linear_647_28" x1="109.844" y1="296.138" x2="113.873" y2="537.573" gradientUnits="userSpaceOnUse">
<stop stop-color="#4042E2"/>
<stop offset="1" stop-color="#4F52FF"/>
</linearGradient>
<linearGradient id="paint79_linear_647_28" x1="35.1446" y1="378.187" x2="187.577" y2="378.187" gradientUnits="userSpaceOnUse">
<stop stop-color="#DAE3FE"/>
<stop offset="1" stop-color="#E9EFFD"/>
</linearGradient>
<linearGradient id="paint80_linear_647_28" x1="103.206" y1="427.824" x2="90.4296" y2="385.261" gradientUnits="userSpaceOnUse">
<stop stop-color="#F99B00"/>
<stop offset="1" stop-color="#E9605A"/>
</linearGradient>
<linearGradient id="paint81_linear_647_28" x1="102.798" y1="401.02" x2="135.399" y2="410.286" gradientUnits="userSpaceOnUse">
<stop stop-color="#FF928E"/>
<stop offset="1" stop-color="#FEB3B1"/>
</linearGradient>
<linearGradient id="paint82_linear_647_28" x1="35.3658" y1="422.542" x2="-39.4322" y2="492.707" gradientUnits="userSpaceOnUse">
<stop stop-color="#FE7062"/>
<stop offset="1" stop-color="#FF928E"/>
</linearGradient>
<linearGradient id="paint83_linear_647_28" x1="94.2395" y1="313.964" x2="88.6733" y2="362.484" gradientUnits="userSpaceOnUse">
<stop stop-color="#FF928E"/>
<stop offset="1" stop-color="#FEB3B1"/>
</linearGradient>
<linearGradient id="paint84_linear_647_28" x1="24.3596" y1="410.809" x2="-50.4385" y2="480.974" gradientUnits="userSpaceOnUse">
<stop stop-color="#FE7062"/>
<stop offset="1" stop-color="#FF928E"/>
</linearGradient>
<linearGradient id="paint85_linear_647_28" x1="-1.95478" y1="353.24" x2="62.8181" y2="387.578" gradientUnits="userSpaceOnUse">
<stop stop-color="#F99B00"/>
<stop offset="1" stop-color="#E9605A"/>
</linearGradient>
<linearGradient id="paint86_linear_647_28" x1="107.801" y1="355.658" x2="85.0399" y2="402.641" gradientUnits="userSpaceOnUse">
<stop stop-color="#FF928E"/>
<stop offset="1" stop-color="#FEB3B1"/>
</linearGradient>
<linearGradient id="paint87_linear_647_28" x1="91.0772" y1="306.144" x2="101.196" y2="340.506" gradientUnits="userSpaceOnUse">
<stop stop-color="#FF928E"/>
<stop offset="1" stop-color="#FEB3B1"/>
</linearGradient>
<linearGradient id="paint88_linear_647_28" x1="88.1191" y1="307.602" x2="109.531" y2="342.543" gradientUnits="userSpaceOnUse">
<stop stop-color="#09005D"/>
<stop offset="1" stop-color="#1A0F91"/>
</linearGradient>
<linearGradient id="paint89_linear_647_28" x1="102.706" y1="321.579" x2="72.7697" y2="339.584" gradientUnits="userSpaceOnUse">
<stop stop-color="#F9B776"/>
<stop offset="1" stop-color="#F47960"/>
</linearGradient>
<linearGradient id="paint90_linear_647_28" x1="69.7084" y1="409.353" x2="115.349" y2="424.136" gradientUnits="userSpaceOnUse">
<stop stop-color="#0177FD"/>
<stop offset="1" stop-color="#1A0F91"/>
</linearGradient>
<linearGradient id="paint91_linear_647_28" x1="79.7183" y1="347.098" x2="100.099" y2="327.528" gradientUnits="userSpaceOnUse">
<stop stop-color="#4042E2"/>
<stop offset="1" stop-color="#4F52FF"/>
</linearGradient>
<linearGradient id="paint92_linear_647_28" x1="101.243" y1="338.582" x2="106.384" y2="338.582" gradientUnits="userSpaceOnUse">
<stop stop-color="#4042E2"/>
<stop offset="1" stop-color="#4F52FF"/>
</linearGradient>
<linearGradient id="paint93_linear_647_28" x1="124.079" y1="302.752" x2="32.0746" y2="334.604" gradientUnits="userSpaceOnUse">
<stop stop-color="#4042E2"/>
<stop offset="1" stop-color="#4F52FF"/>
</linearGradient>
<linearGradient id="paint94_linear_647_28" x1="73.0924" y1="332.925" x2="15.4452" y2="352.882" gradientUnits="userSpaceOnUse">
<stop stop-color="#4042E2"/>
<stop offset="1" stop-color="#4F52FF"/>
</linearGradient>
<linearGradient id="paint95_linear_647_28" x1="47.9894" y1="335.554" x2="78.8497" y2="329.735" gradientUnits="userSpaceOnUse">
<stop stop-color="#4042E2"/>
<stop offset="1" stop-color="#4F52FF"/>
</linearGradient>
<linearGradient id="paint96_linear_647_28" x1="110.391" y1="452.189" x2="112.822" y2="398.768" gradientUnits="userSpaceOnUse">
<stop stop-color="#09005D"/>
<stop offset="1" stop-color="#1A0F91"/>
</linearGradient>
<linearGradient id="paint97_linear_647_28" x1="215.193" y1="400.705" x2="143.452" y2="350.748" gradientUnits="userSpaceOnUse">
<stop stop-color="#0177FD"/>
<stop offset="1" stop-color="#1A0F91"/>
</linearGradient>
<linearGradient id="paint98_linear_647_28" x1="173.13" y1="371.51" x2="164.529" y2="416.489" gradientUnits="userSpaceOnUse">
<stop stop-color="#0177FD"/>
<stop offset="1" stop-color="#1A0F91"/>
</linearGradient>
<linearGradient id="paint99_linear_647_28" x1="154.137" y1="415.564" x2="191.961" y2="440.323" gradientUnits="userSpaceOnUse">
<stop stop-color="#0177FD"/>
<stop offset="1" stop-color="#67AEFF"/>
</linearGradient>
<linearGradient id="paint100_linear_647_28" x1="493.964" y1="288.743" x2="537.56" y2="288.743" gradientUnits="userSpaceOnUse">
<stop stop-color="#FE7062"/>
<stop offset="1" stop-color="#FF928E"/>
</linearGradient>
<linearGradient id="paint101_linear_647_28" x1="187.369" y1="293.524" x2="227.188" y2="293.524" gradientUnits="userSpaceOnUse">
<stop stop-color="#FE7062"/>
<stop offset="1" stop-color="#FF928E"/>
</linearGradient>
<linearGradient id="paint102_linear_647_28" x1="349.45" y1="286.514" x2="371.703" y2="286.514" gradientUnits="userSpaceOnUse">
<stop stop-color="#FE7062"/>
<stop offset="1" stop-color="#FF928E"/>
</linearGradient>
<linearGradient id="paint103_linear_647_28" x1="458.359" y1="132.5" x2="493.965" y2="132.5" gradientUnits="userSpaceOnUse">
<stop stop-color="#FE7062"/>
<stop offset="1" stop-color="#FF928E"/>
</linearGradient>
<linearGradient id="paint104_linear_647_28" x1="209.238" y1="99.4568" x2="243.337" y2="99.4568" gradientUnits="userSpaceOnUse">
<stop stop-color="#FE7062"/>
<stop offset="1" stop-color="#FF928E"/>
</linearGradient>
</defs>
</svg>
