<svg width="30" height="32" viewBox="0 0 30 32" fill="none" xmlns="http://www.w3.org/2000/svg">
<path d="M5.99999 20H7.99999C9.10499 20 9.99998 19.1039 9.99998 17.9999V16C9.99998 14.895 9.10499 14 7.99999 14H5.99999C4.89499 14 3.99999 14.895 3.99999 16V17.9999C3.99999 19.1039 4.89499 20 5.99999 20ZM5.99999 16H7.99999V17.9999H5.99999V16ZM22 27.9999H24C25.105 27.9999 26 27.1049 26 26V24C26 22.895 25.105 22 24 22H22C20.896 22 20 22.895 20 24V26C20 27.1049 20.895 27.9999 22 27.9999ZM22 24H24V26H22V24ZM22 20H24C25.105 20 26 19.1039 26 17.9999V16C26 14.895 25.105 14 24 14H22C20.896 14 20 14.895 20 16V17.9999C20 19.1039 20.895 20 22 20ZM22 16H24V17.9999H22V16ZM26 2H22V0.999998C22 0.447989 21.552 0 21 0C20.4481 0 20 0.447989 20 0.999998V2H10V0.999998C9.99998 0.447989 9.552 0 8.99999 0C8.44798 0 7.99999 0.447989 7.99999 0.999998V2H3.99999C1.79103 2 0 3.79102 0 5.99999V27.9999C0 30.2089 1.79103 32 3.99999 32H26C28.2089 32 30 30.209 30 27.9999V5.99999C30 3.79097 28.209 2 26 2ZM28 27.9999C28 29.105 27.105 30 26 30H3.99999C2.895 30 2 29.1039 2 27.9999V9.99998H28V27.9999H28ZM28 7.99999H2V5.99999C2 4.89499 2.895 3.99999 3.99999 3.99999H7.99999V4.99999C7.99999 5.552 8.44798 5.99999 8.99999 5.99999C9.552 5.99999 9.99998 5.552 9.99998 4.99999V3.99999H20V4.99999C20 5.552 20.448 5.99999 21 5.99999C21.5519 5.99999 22 5.552 22 4.99999V3.99999H26C27.105 3.99999 28 4.89499 28 5.99999V7.99999ZM14 27.9999H16C17.105 27.9999 18 27.1049 18 26V24C18 22.895 17.105 22 16 22H14C12.896 22 12 22.895 12 24V26C12 27.1049 12.895 27.9999 14 27.9999ZM14 24H16V26H14V24ZM14 20H16C17.105 20 18 19.1039 18 17.9999V16C18 14.895 17.105 14 16 14H14C12.896 14 12 14.895 12 16V17.9999C12 19.1039 12.895 20 14 20ZM14 16H16V17.9999H14V16ZM5.99999 27.9999H7.99999C9.10499 27.9999 9.99998 27.1049 9.99998 26V24C9.99998 22.895 9.10499 22 7.99999 22H5.99999C4.89499 22 3.99999 22.895 3.99999 24V26C3.99999 27.1049 4.89499 27.9999 5.99999 27.9999ZM5.99999 24H7.99999V26H5.99999V24Z" fill="#0177FD"/>
</svg>
