<svg width="14" height="14" viewBox="0 0 14 14" fill="none" xmlns="http://www.w3.org/2000/svg">
<g clip-path="url(#clip0_491_210)">
<path d="M7 0.109375C3.20469 0.109375 0.109375 3.20469 0.109375 7C0.109375 10.7953 3.20469 13.8906 7 13.8906C10.7953 13.8906 13.8906 10.7953 13.8906 7C13.8906 3.20469 10.7953 0.109375 7 0.109375ZM7 13.0156C3.68594 13.0156 0.984375 10.3141 0.984375 7C0.984375 3.68594 3.68594 0.984375 7 0.984375C10.3141 0.984375 13.0156 3.68594 13.0156 7C13.0156 10.3141 10.3141 13.0156 7 13.0156Z" fill="#908A8A"/>
<path d="M7.4375 5.96094H6.5625V10.3359H7.4375V5.96094Z" fill="#908A8A"/>
<path d="M7.4375 3.88281H6.5625V4.75781H7.4375V3.88281Z" fill="#908A8A"/>
</g>
<defs>
<clipPath id="clip0_491_210">
<rect width="14" height="14" fill="white"/>
</clipPath>
</defs>
</svg>
