<?xml version="1.0" encoding="utf-8"?>
<!-- Generator: Adobe Illustrator 26.4.1, SVG Export Plug-In . SVG Version: 6.00 Build 0)  -->
<svg version="1.1" id="Слой_1" xmlns="http://www.w3.org/2000/svg" xmlns:xlink="http://www.w3.org/1999/xlink" x="0px" y="0px"
	 viewBox="0 0 50 50" style="enable-background:new 0 0 50 50;" xml:space="preserve">
<style type="text/css">
	.st0{fill:#FFFFFF;}
	.st1{fill:none;stroke:#000000;stroke-miterlimit:10;}
	.st2{fill:#FFFFFF;stroke:#000000;stroke-miterlimit:10;}
	.st3{fill:none;stroke:#000000;stroke-width:0.7787;stroke-miterlimit:10;}
</style>
<g>
	<path class="st0" d="M6.77,35.23c-1.7,0-3.08-1.38-3.08-3.08v-18.3c0-1.7,1.38-3.08,3.08-3.08h28.66c1.7,0,3.08,1.38,3.08,3.08
		v18.3c0,1.7-1.38,3.08-3.08,3.08H6.77z"/>
	<path d="M35.43,11.27c1.42,0,2.58,1.16,2.58,2.58v18.3c0,1.42-1.16,2.58-2.58,2.58H6.76c-1.42,0-2.58-1.16-2.58-2.58v-18.3
		c0-1.42,1.16-2.58,2.58-2.58H35.43 M35.43,10.27H6.76c-1.98,0-3.58,1.6-3.58,3.58v18.3c0,1.98,1.6,3.58,3.58,3.58h28.66
		c1.98,0,3.58-1.6,3.58-3.58v-18.3C39.01,11.87,37.4,10.27,35.43,10.27L35.43,10.27z"/>
</g>
<g>
	<path class="st0" d="M9.44,33.32c-1.68,0-3.04-1.36-3.04-3.04V15.72c0-1.68,1.36-3.04,3.04-3.04h23.31c1.68,0,3.04,1.36,3.04,3.04
		v14.57c0,1.68-1.36,3.04-3.04,3.04H9.44z"/>
	<path d="M32.75,13.1c1.44,0,2.62,1.17,2.62,2.62v14.57c0,1.44-1.17,2.62-2.62,2.62H9.44c-1.44,0-2.62-1.17-2.62-2.62V15.72
		c0-1.44,1.17-2.62,2.62-2.62H32.75 M32.75,12.25H9.44c-1.91,0-3.46,1.55-3.46,3.46v14.57c0,1.91,1.55,3.46,3.46,3.46h23.31
		c1.91,0,3.46-1.55,3.46-3.46V15.72C36.21,13.8,34.66,12.25,32.75,12.25L32.75,12.25z"/>
</g>
<g>
	<line class="st1" x1="11.66" y1="38.07" x2="30.53" y2="38.07"/>
</g>
<rect x="29.31" y="34.48" class="st2" width="16.51" height="4.37"/>
<ellipse class="st3" cx="43.37" cy="36.66" rx="0.67" ry="0.79"/>
</svg>
