<?xml version="1.0" encoding="utf-8"?>
<!-- Generator: Adobe Illustrator 26.4.1, SVG Export Plug-In . SVG Version: 6.00 Build 0)  -->
<svg version="1.1" id="Слой_1" xmlns="http://www.w3.org/2000/svg" xmlns:xlink="http://www.w3.org/1999/xlink" x="0px" y="0px"
	 viewBox="0 0 500 500" style="enable-background:new 0 0 500 500;" xml:space="preserve">
<style type="text/css">
	.st0{fill:#EE5037;}
	.st1{fill:#0177FD;}
	.st2{fill:#FFFFFF;}
	.st3{fill:#0177FD;stroke:#FFFFFF;stroke-width:15.5507;stroke-miterlimit:10;}
	.st4{fill:#0177FD;stroke:#FFFFFF;stroke-width:33.0106;stroke-miterlimit:10;}
	.st5{fill:#FFFFFF;stroke:#FFFFFF;stroke-width:28.8472;stroke-miterlimit:10;}
	.st6{fill:#0177FD;stroke:#FFFFFF;stroke-width:2.219;stroke-miterlimit:10;}
	.st7{fill:#EE5037;stroke:#FFFFFF;stroke-width:2.219;stroke-miterlimit:10;}
</style>
<polygon class="st0" points="150.7,181.9 125.5,167.9 99.7,180.7 105.2,152.4 85,131.8 113.7,128.3 127,102.8 139.2,128.9 
	167.6,133.7 146.5,153.4 "/>
<polygon class="st0" points="250.1,114.3 231.9,104.2 213.3,113.4 217.3,93 202.7,78.2 223.4,75.6 233,57.2 241.8,76.1 262.3,79.5 
	247.1,93.7 "/>
<g>
	<g>
		<path class="st1" d="M337.8,323.8l-0.5,1.2C337.5,324.7,337.7,324.3,337.8,323.8L337.8,323.8z"/>
		<path class="st2" d="M337.8,323.8c-0.2,0.5-0.3,0.9-0.4,1.2L337.8,323.8L337.8,323.8L337.8,323.8z M337.4,325L337.4,325
			C337.4,325,337.4,325,337.4,325L337.4,325z"/>
	</g>
	<path class="st3" d="M302.9,112.2c4.5,1.7,4.5,8.2,0,9.9c-19.4,7.4-54.7,23.8-86.8,55.5c-2,2-4,4-6,6.1c-1.9,2-5,2.2-7.1,0.5
		c-3-2.4-6-4.8-8.8-7.2c-5.3-4.5-10.3-9-14.9-13.5c-6.4-6.3-12.2-12.5-17.5-18.6c-5.3-6.1-3.5-15.6,3.7-19.3
		c17.3-8.9,35.9-15.1,55.2-18.3c26.6-4.4,54.5-3.1,81.8,4.7C302.6,112.1,302.7,112.2,302.9,112.2L302.9,112.2z"/>
	<line class="st3" x1="425.6" y1="357.3" x2="425" y2="357.1"/>
	<path class="st3" d="M149.2,325.1c-0.5,6.7-8.4,10-13.6,5.6l-0.1-0.1c-20.3-17.3-35.7-35.3-46.7-50.4c-5.2-7.1-9.4-13.5-12.7-19
		c-4.7-7.7-5.9-17.1-3.2-25.7c1.1-3.5,2.3-7.1,3.7-10.6l0.2-0.6c12.2-31.7,32.2-58.2,56.9-78.2c3.8-3.1,7.7-6,11.8-8.8
		c3.6-2.4,8.4-1.8,11.1,1.5c6.4,7.9,13.9,16.2,22.5,24.5c4.6,4.5,9.6,9,14.9,13.5c1.9,1.6,3.9,3.3,5.9,4.9c3.6,2.9,4.1,8.2,1.1,11.7
		c-14.6,17.4-27.9,38.4-37.7,63.7l-0.5,1.2c-1.6,4.1-7.7,21-11.4,45.6C150.6,310.6,149.8,317.6,149.2,325.1z"/>
	<path class="st3" d="M428,232.3c1.1,3.3-1,6.8-4.5,7.4c-10.5,1.7-22.3,3.1-35,3.6c-6.5,0.3-13.2,0.4-20.1,0.2
		c-3.7-0.1-7.5-0.3-11.4-0.5c-3-0.2-5.3-2.6-5.3-5.6c0-2.7-0.1-5.4-0.2-8.2c-1.4-29.9-8.4-63.9-26.9-98.1c-2.5-4.6,2.1-9.8,7-8
		l0.1,0c0.1,0,0.2,0.1,0.3,0.1c25.2,12.1,46.5,29.2,63.3,49.7C409.8,190.7,420.8,210.8,428,232.3z"/>
	<path class="st3" d="M401.5,385.6c4.6-1.4,8.5,3.8,5.9,7.8c-1.4,2.2-2.9,4.4-4.5,6.6c-9.6,13.5-20.9,25.5-33.5,35.8
		c-25.7,21.1-56.7,34.9-89.5,40.1c-26.2,4.1-53.5,2.7-80.3-5c-0.2,0-0.3-0.1-0.5-0.2h0c-4.5-1.7-4.5-8,0-9.8
		c20.1-7.8,55.4-24.8,87.2-56.8l0.1-0.1c4.5-4.5,10.8-7,17.2-6.6c2,0.1,4.1,0.2,6.1,0.2c27.4,0.8,51.4-2.5,70-6.5
		C388.1,389.3,395.4,387.4,401.5,385.6z"/>
	<path class="st3" d="M430.2,343.4l-10.9,28.5c-0.1,0.2-0.2,0.4-0.3,0.7c-1,2-2,4-3,6c-0.9,1.8-2.5,3.1-4.4,3.7
		c-7.2,2.5-18.1,5.9-31.9,8.8c-18.7,4-42.6,7.3-70,6.5l0,0c-6.6-0.2-10.1-7.9-6-13.1c4.4-5.5,8.6-11.4,12.6-17.6
		c8-12.5,15.2-26.4,21.1-41.9l0.5-1.2l0,0c2.9-7.8,12.2-35.6,13.7-73c0.2-4.5,4-7.9,8.5-7.6c2.8,0.2,5.6,0.3,8.4,0.3
		c6.9,0.2,13.7,0.1,20.1-0.2c12.5-0.5,24-1.9,34.4-3.5c4.1-0.7,8,1.9,9,5.9c1.3,5.1,2.4,10.2,3.2,15.4c4.4,26.6,3.1,54.4-4.7,81.6
		C430.4,343,430.3,343.2,430.2,343.4z"/>
	<path class="st3" d="M338.6,241.2c-16.5-2.2-33.9-6-51.8-11.9c-6.2-2.1-9.4-8.9-7.1-15l33-86.6c1.6-4.2,7.4-4.6,9.6-0.7
		c20.1,35.6,27.7,71.2,29.2,102.3l0,0.1C351.8,236.4,345.7,242.1,338.6,241.2z"/>
	<path class="st4" d="M383.2,539.3c-0.8,0.2-1.5,0.5-2.2,0.6c-0.9,0.3-1.6,0.5-2.2,0.6c-0.4-0.7-0.8-1.3-1.2-2
		c-0.4-0.6-0.8-1.3-1.2-1.9L383.2,539.3z"/>
	<path class="st3" d="M270,239.9l-46.8,122.9c-3.2,8.3-12.5,12.5-20.8,9.3l-9.1-3.5c-0.5-0.2-1.1-0.4-1.6-0.7c-4.5-2.2-8.8-4.6-13-7
		c-19.9-11.3-30.6-33.8-27.2-56.5l0-0.3c3.7-24.6,9.9-41.5,11.4-45.6l0.5-1.2c8.9-22.9,20.5-42.2,33.5-58.6
		c5.2-6.6,14.6-7.9,21.5-3.2c12.8,8.7,27.2,16.8,43.1,23.9C269.4,222.9,273,231.9,270,239.9z"/>
	<path class="st3" d="M337.4,325.1c-5.9,15.5-13.1,29.4-21.1,41.9c-0.1,0.1-0.1,0.2-0.2,0.3c-12.5,19.4-35.9,28.9-58.5,24
		c-4.3-0.9-8.6-2-12.9-3.2c-0.5-0.1-1.1-0.3-1.6-0.5l-10.8-4.1c-8.2-3.1-12.3-12.3-9.2-20.4l47-123.4c3-7.8,11.6-12,19.6-9.5
		c16.5,5.3,32.5,8.8,47.9,10.9c8.2,1.1,14.2,8.4,13.7,16.6c-2.3,34-10.7,58.9-13.4,66.2C337.7,324.3,337.5,324.7,337.4,325.1z"/>
	<path class="st3" d="M170.4,459.7L170.4,459.7c-0.1-0.1-0.3-0.1-0.4-0.2c-25.6-12.3-47.3-29.9-64.2-50.9
		c-20.5-25.5-34.1-56-39.2-88.3c-2.5-16-3-32.5-1.2-49c0-0.1,0-0.1,0-0.2c0.8-7.5,10.6-9.7,14.7-3.4c2.5,3.9,5.4,8.1,8.7,12.5
		c11,15.1,26.4,33.1,46.7,50.4c1.6,1.3,3.2,2.7,4.8,4c5.1,4.2,8.2,10.3,8.4,16.9l0,0.1c1.1,30.7,8.1,66.1,27.4,101.6
		C178.2,457,174.4,461.3,170.4,459.7z"/>
	<path class="st3" d="M221,381.9c-2.5-0.9-5.3,0.4-6.3,2.9l-31,81.4l0,0c1,0.4,2.2,0.4,3.2,0.1c43.3-13.2,75.5-36.9,98.7-61.1
		l0.1-0.1c3-3.1,1.1-8.2-3.1-8.7c-13-1.5-26.6-4.1-40.6-7.9C235,386.7,228.1,384.5,221,381.9z"/>
	<path class="st3" d="M69.2,249.4c-0.4-0.7-0.7-1.3-1-1.9"/>
	<path class="st3" d="M313.1,126.7l-33.4,87.7c-2.3,6-9.2,8.9-15.1,6.4c-17.5-7.5-33.2-16.4-47.1-25.9c-5.8-4-6.6-12.3-1.5-17.2
		l0.1-0.1c34.7-34.1,73-50.6,91.1-57C310.9,119.2,314.6,122.9,313.1,126.7z"/>
	<line class="st3" x1="216.9" y1="379.1" x2="217.4" y2="377.8"/>
	<polyline class="st4" points="379.8,538 379.3,539.3 378.8,540.6 	"/>
	<path class="st3" d="M212.1,378.6c2.5,1,3.7,3.8,2.7,6.3l-31,81.4l0,0c-1-0.4-1.9-1.1-2.5-2.1c-23.6-38.7-31.8-77.8-32.9-111.3
		l0-0.1c-0.2-4.3,4.6-6.9,8.1-4.4c10.8,7.5,22.6,14.7,35.6,21.2C198.5,372.7,205.2,375.7,212.1,378.6z"/>
</g>
<g>
	
		<image style="overflow:visible;" width="1051" height="750" xlink:href="E5A94B6C.png"  transform="matrix(1 0 0 1 -352.6534 -8.6535)">
	</image>
</g>
<polygon class="st0" points="175,80 158.1,70.7 140.9,79.2 144.6,60.3 131.1,46.5 150.2,44.2 159.1,27.1 167.3,44.6 186.3,47.8 
	172.2,60.9 "/>
<g>
	<path class="st5" d="M87.8,323.3c0,8.5-0.2,14.5-0.7,18c-0.5,3.5-2,6.7-4.5,9.6c-2.5,2.9-5.9,5.1-10.2,6.7
		c-4.3,1.6-9.2,2.3-14.9,2.3c-5.4,0-10.2-0.7-14.5-2.2c-4.3-1.5-7.7-3.7-10.3-6.6c-2.6-2.9-4.2-6.2-4.7-9.6
		c-0.5-3.5-0.7-9.5-0.7-18.2v-14.4c0-8.5,0.2-14.4,0.7-18c0.5-3.5,2-6.7,4.5-9.6c2.5-2.9,5.9-5.1,10.2-6.7c4.3-1.6,9.2-2.3,14.9-2.3
		c5.4,0,10.2,0.7,14.5,2.2c4.3,1.5,7.7,3.7,10.3,6.6c2.6,2.9,4.2,6.2,4.7,9.6c0.5,3.5,0.7,9.5,0.7,18.2V323.3z M61.6,295.6
		c0-3.9-0.3-6.4-0.8-7.5c-0.5-1.1-1.6-1.6-3.2-1.6c-1.4,0-2.4,0.4-3.1,1.3c-0.7,0.9-1.1,3.5-1.1,7.8v39.3c0,4.9,0.2,7.9,0.7,9
		c0.5,1.1,1.6,1.7,3.3,1.7c1.8,0,2.9-0.7,3.4-2c0.5-1.3,0.7-4.5,0.7-9.4V295.6z"/>
	<path class="st5" d="M121.9,289.1l-0.4,6.1c2.2-2.5,4.7-4.3,7.4-5.5c2.7-1.2,5.6-1.8,8.8-1.8c3.9,0,7.3,0.9,10.1,2.6
		c2.8,1.8,4.6,3.8,5.3,6.1c0.7,2.3,1.1,6.2,1.1,11.6v29.1c0,6.3-0.4,10.7-1.3,13.4c-0.9,2.7-2.7,4.8-5.5,6.3
		c-2.8,1.6-6.1,2.4-10,2.4c-3.1,0-6-0.6-8.6-1.8c-2.7-1.2-5.1-3-7.3-5.4V368H96.4v-78.8H121.9z M129.1,309.2c0-4.3-0.2-6.8-0.6-7.7
		s-1.4-1.4-3.1-1.4c-1.7,0-2.7,0.5-3.2,1.6c-0.5,1-0.7,3.6-0.7,7.5v28.6c0,4.2,0.2,6.8,0.7,7.8s1.6,1.6,3.2,1.6c1.6,0,2.6-0.5,3-1.4
		c0.4-1,0.6-3.3,0.6-6.9V309.2z"/>
	<path class="st5" d="M200.4,289.1c11.9,0,18.2,4,18.7,12.1c0.2,3.8,0.4,8.1,0.4,12.7v16.9c0,7.8-0.6,13.1-1.9,16
		c-3.6,8-12.7,12-27,12c-5.4,0-8.9-0.1-10.6-0.2c-3.5-0.4-6.4-1.3-8.9-2.7c-3.9-2.3-6.5-5.3-7.8-9.2c-0.9-2.8-1.4-7.4-1.4-13.6
		v-40.5c0-5.7,2.3-10.4,6.8-14c4.6-3.6,10.5-5.4,17.8-5.4c3.1,0,7.5,0.2,13.2,0.5c5.7,0.3,9.5,0.5,11.2,0.5c2.2,0,4.1-0.2,5.6-0.6
		v10.9c-2,0.5-3.6,0.7-4.8,0.7c-2.2,0-5.4-0.1-9.5-0.4c-4.1-0.3-7.1-0.4-8.9-0.4c-3.4,0-5.5,1.4-6.3,4.1c-0.2,0.8-0.4,3-0.4,6.7
		C190.8,291.2,195.3,289.1,200.4,289.1z M194.5,344v-35.3c0-3.1-0.1-5-0.3-5.7c-0.5-1.6-1.6-2.4-3.4-2.4c-1.8,0-3,0.8-3.4,2.4
		c-0.2,0.8-0.3,2.7-0.3,5.7v33c0,4,1.2,5.9,3.7,5.9C193.2,347.7,194.5,346.5,194.5,344z"/>
	<path class="st5" d="M290.2,358.2h-21.9v-37.3l-17.5,37.3H228v-69h21.9v37l17.1-37h23.2V358.2z"/>
	<path class="st5" d="M348.5,289.1v14.5h-14.3v54.6h-25v-54.6h-14.4v-14.5H348.5z"/>
	<path class="st5" d="M410,324.9h-32.5v14.9c0,3.1,0.3,5.1,0.8,6c0.5,0.9,1.6,1.4,3.1,1.4c1.9,0,3.2-0.6,3.8-1.8
		c0.6-1.2,1-3.5,1-6.9v-9.1H410v5.1c0,4.3-0.3,7.5-1,9.8c-0.6,2.3-2.1,4.7-4.5,7.3c-2.4,2.6-5.4,4.6-9,5.9c-3.6,1.3-8.2,2-13.6,2
		c-5.3,0-10-0.6-14-1.9c-4.1-1.3-7.2-3-9.5-5.3c-2.3-2.2-3.8-4.7-4.7-7.4c-0.9-2.7-1.3-6.6-1.3-11.7V313c0-6,1-10.8,2.9-14.3
		c1.9-3.5,5.1-6.2,9.6-8c4.4-1.9,9.5-2.8,15.3-2.8c7,0,12.8,1.1,17.4,3.4c4.6,2.2,7.8,5.2,9.6,8.9c1.8,3.7,2.8,8.9,2.8,15.6V324.9z
		 M384.8,313.6v-5c0-3.6-0.2-5.9-0.7-6.9c-0.5-1-1.4-1.6-2.8-1.6c-1.7,0-2.8,0.4-3.2,1.3c-0.4,0.9-0.6,3.3-0.6,7.2v5H384.8z"/>
	<path class="st5" d="M455.9,358.2v-54.6H447v34.8c0,6.3-0.9,10.9-2.6,13.6c-1.7,2.7-4.5,4.4-8.2,5.1c-3.7,0.7-9.9,1-18.4,1h-4.1
		v-11.3c3.2,0,5.4-0.4,6.6-1c1.2-0.6,1.8-2.9,1.8-6.8v-49.9h58.8v69H455.9z"/>
</g>
<g>
	<path class="st6" d="M88.5,321c0,8.5-0.2,14.5-0.7,18c-0.5,3.5-2,6.7-4.5,9.6c-2.5,2.9-5.9,5.1-10.2,6.7c-4.3,1.6-9.2,2.3-14.9,2.3
		c-5.4,0-10.2-0.7-14.5-2.2c-4.3-1.5-7.7-3.7-10.3-6.6c-2.6-2.9-4.2-6.2-4.7-9.6c-0.5-3.5-0.7-9.5-0.7-18.2v-14.4
		c0-8.5,0.2-14.4,0.7-18c0.5-3.5,2-6.7,4.5-9.6c2.5-2.9,5.9-5.1,10.2-6.7c4.3-1.6,9.2-2.3,14.9-2.3c5.4,0,10.2,0.7,14.5,2.2
		c4.3,1.5,7.7,3.7,10.3,6.6c2.6,2.9,4.2,6.2,4.7,9.6c0.5,3.5,0.7,9.5,0.7,18.2V321z M62.3,293.4c0-3.9-0.3-6.4-0.8-7.5
		c-0.5-1.1-1.6-1.6-3.2-1.6c-1.4,0-2.4,0.4-3.1,1.3c-0.7,0.9-1.1,3.5-1.1,7.8v39.3c0,4.9,0.2,7.9,0.7,9c0.5,1.1,1.6,1.7,3.3,1.7
		c1.8,0,2.9-0.7,3.4-2c0.5-1.3,0.7-4.5,0.7-9.4V293.4z"/>
	<path class="st6" d="M122.6,286.9l-0.4,6.1c2.2-2.5,4.7-4.3,7.4-5.5c2.7-1.2,5.6-1.8,8.8-1.8c3.9,0,7.3,0.9,10.1,2.6
		c2.8,1.8,4.6,3.8,5.3,6.1c0.7,2.3,1.1,6.2,1.1,11.6v29.1c0,6.3-0.4,10.7-1.3,13.4c-0.9,2.7-2.7,4.8-5.5,6.3
		c-2.8,1.6-6.1,2.4-10,2.4c-3.1,0-6-0.6-8.6-1.8c-2.7-1.2-5.1-3-7.3-5.4v15.8H97.1v-78.8H122.6z M129.8,307c0-4.3-0.2-6.8-0.6-7.7
		s-1.4-1.4-3.1-1.4c-1.7,0-2.7,0.5-3.2,1.6c-0.5,1-0.7,3.6-0.7,7.5v28.6c0,4.2,0.2,6.8,0.7,7.8s1.6,1.6,3.2,1.6c1.6,0,2.6-0.5,3-1.4
		c0.4-1,0.6-3.3,0.6-6.9V307z"/>
	<path class="st6" d="M201.1,286.9c11.9,0,18.2,4,18.7,12.1c0.2,3.8,0.4,8.1,0.4,12.7v16.9c0,7.8-0.6,13.1-1.9,16
		c-3.6,8-12.7,12-27,12c-5.4,0-8.9-0.1-10.6-0.2c-3.5-0.4-6.4-1.3-8.9-2.7c-3.9-2.3-6.5-5.3-7.8-9.2c-0.9-2.8-1.4-7.4-1.4-13.6
		v-40.5c0-5.7,2.3-10.4,6.8-14c4.6-3.6,10.5-5.4,17.8-5.4c3.1,0,7.5,0.2,13.2,0.5c5.7,0.3,9.5,0.5,11.2,0.5c2.2,0,4.1-0.2,5.6-0.6
		v10.9c-2,0.5-3.6,0.7-4.8,0.7c-2.2,0-5.4-0.1-9.5-0.4c-4.1-0.3-7.1-0.4-8.9-0.4c-3.4,0-5.5,1.4-6.3,4.1c-0.2,0.8-0.4,3-0.4,6.7
		C191.5,289,196,286.9,201.1,286.9z M195.2,341.8v-35.3c0-3.1-0.1-5-0.3-5.7c-0.5-1.6-1.6-2.4-3.4-2.4c-1.8,0-3,0.8-3.4,2.4
		c-0.2,0.8-0.3,2.7-0.3,5.7v33c0,4,1.2,5.9,3.7,5.9C193.9,345.5,195.2,344.3,195.2,341.8z"/>
	<path class="st6" d="M290.9,355.9h-21.9v-37.3l-17.5,37.3h-22.9v-69h21.9v37l17.1-37h23.2V355.9z"/>
	<path class="st6" d="M349.2,286.9v14.5h-14.3v54.6h-25v-54.6h-14.4v-14.5H349.2z"/>
	<path class="st7" d="M410.7,322.7h-32.5v14.9c0,3.1,0.3,5.1,0.8,6c0.5,0.9,1.6,1.4,3.1,1.4c1.9,0,3.2-0.6,3.8-1.8
		c0.6-1.2,1-3.5,1-6.9v-9.1h23.8v5.1c0,4.3-0.3,7.5-1,9.8c-0.6,2.3-2.1,4.7-4.5,7.3c-2.4,2.6-5.4,4.6-9,5.9c-3.6,1.3-8.2,2-13.6,2
		c-5.3,0-10-0.6-14-1.9c-4.1-1.3-7.2-3-9.5-5.3c-2.3-2.2-3.8-4.7-4.7-7.4c-0.9-2.7-1.3-6.6-1.3-11.7v-20.1c0-6,1-10.8,2.9-14.3
		c1.9-3.5,5.1-6.2,9.6-8c4.4-1.9,9.5-2.8,15.3-2.8c7,0,12.8,1.1,17.4,3.4c4.6,2.2,7.8,5.2,9.6,8.9c1.8,3.7,2.8,8.9,2.8,15.6V322.7z
		 M385.5,311.4v-5c0-3.6-0.2-5.9-0.7-6.9c-0.5-1-1.4-1.6-2.8-1.6c-1.7,0-2.8,0.4-3.2,1.3c-0.4,0.9-0.6,3.3-0.6,7.2v5H385.5z"/>
	<path class="st6" d="M456.6,355.9v-54.6h-8.9v34.8c0,6.3-0.9,10.9-2.6,13.6c-1.7,2.7-4.5,4.4-8.2,5.1c-3.7,0.7-9.9,1-18.4,1h-4.1
		v-11.3c3.2,0,5.4-0.4,6.6-1c1.2-0.6,1.8-2.9,1.8-6.8v-49.9h58.8v69H456.6z"/>
</g>
</svg>
