<svg width="64" height="64" viewBox="0 0 64 64" fill="none" xmlns="http://www.w3.org/2000/svg">
<g clip-path="url(#clip0_524_381)">
<path d="M25.464 29.206C26.289 23.222 30.235 19.263 36.112 18.562L49.412 5.15505C45.702 2.74405 41.465 1.07405 36.906 0.373047L12.616 24.705L21.251 33.379L25.464 29.206Z" fill="#0177FD"/>
<path d="M64.0019 31.9991C64.0019 22.2011 59.5939 13.4371 52.6579 7.56714L41.4979 18.8351C47.2169 20.1721 50.7539 24.8841 50.7539 31.6091C50.7539 34.1011 49.3489 37.5361 47.5319 40.9371L57.6899 51.0801C61.6549 45.7531 64.0019 39.1501 64.0019 31.9991Z" fill="#0177FD"/>
<path d="M29.2899 31.609C29.2899 34.091 32.3349 40.698 38.0159 48.55C43.1619 41.35 46.7549 34.448 46.7549 31.609C46.7549 25.779 43.5719 22.436 38.0229 22.436C32.4739 22.436 29.2899 25.78 29.2899 31.609ZM37.7209 27.477C39.9979 27.477 41.8439 29.323 41.8439 31.6C41.8439 33.877 39.9979 35.723 37.7209 35.723C35.4439 35.723 33.5979 33.877 33.5979 31.6C33.5979 29.323 35.4439 27.477 37.7209 27.477Z" fill="#EE5037"/>
<path d="M32.002 63.9991C41.08 63.9991 49.27 60.2121 55.094 54.1401L45.47 44.5311C42.86 48.8071 40.149 52.4251 39.591 53.1671L38.024 55.2241L36.467 53.1671C35.472 51.8661 27.787 41.6081 25.776 34.5601L7.53003 52.6091C13.4 59.5721 22.182 63.9991 32.002 63.9991Z" fill="#009E85"/>
<path d="M18.41 36.1939L2.32295 20.0339C0.830953 23.7309 0.00195312 27.7669 0.00195312 31.9989C0.00195312 38.3999 1.88895 44.3559 5.12495 49.3569L18.41 36.1939Z" fill="#0177FD"/>
<path d="M4.16797 16.218L9.79497 21.87L31.618 0.0090332C19.847 0.148033 9.60997 6.64003 4.16797 16.218Z" fill="#0177FD"/>
</g>
<defs>
<clipPath id="clip0_524_381">
<rect width="64" height="64" fill="white"/>
</clipPath>
</defs>
</svg>
