<svg width="40" height="40" viewBox="0 0 40 40" fill="none" xmlns="http://www.w3.org/2000/svg">
<g clip-path="url(#clip0_721_19)">
<path d="M20 0C8.95508 0 0 8.9551 0 20C0 31.0447 8.95508 40 20 40C31.0448 40 39.9998 31.0447 39.9998 20C39.9998 8.9551 31.0448 0 20 0ZM30.5613 29.1822L28.9599 30.7839C28.674 31.0694 27.8368 31.2475 27.81 31.2475C22.744 31.2917 17.8662 29.3018 14.2823 25.7176C10.6886 22.1218 8.69639 17.2266 8.74989 12.1436C8.74989 12.1412 8.93323 11.3281 9.21888 11.0452L10.8202 9.44362C11.4061 8.85493 12.5317 8.58891 13.3203 8.85271L13.6571 8.96507C14.4433 9.22863 15.2688 10.0979 15.486 10.8988L16.2915 13.8552C16.5087 14.6584 16.2157 15.8011 15.6299 16.3871L14.5607 17.4565C15.6105 21.3428 18.6598 24.3926 22.5467 25.445L23.6155 24.3753C24.2042 23.7866 25.3465 23.4939 26.1479 23.7108L29.1039 24.5192C29.905 24.7393 30.7741 25.5596 31.0376 26.3455L31.1499 26.6872C31.4111 27.4735 31.1471 28.5989 30.5613 29.1822Z" fill="#0177FD"/>
</g>
<defs>
<clipPath id="clip0_721_19">
<rect width="40" height="40" fill="white"/>
</clipPath>
</defs>
</svg>
