<svg width="230" height="230" viewBox="0 0 230 230" fill="none" xmlns="http://www.w3.org/2000/svg">
<g clip-path="url(#clip0_396_12)">
<path d="M166.476 105.056C165.797 101.408 163.737 98.2427 160.678 96.1443C157.618 94.0457 153.924 93.2636 150.276 93.9433C146.628 94.6227 143.464 96.6822 141.365 99.7414C139.266 102.801 138.484 106.495 139.164 110.143C139.843 113.791 141.903 116.955 144.961 119.053C144.962 119.054 144.962 119.054 144.962 119.054C148.021 121.153 151.716 121.935 155.364 121.255C159.011 120.575 162.176 118.516 164.275 115.457C166.373 112.397 167.155 108.703 166.476 105.056ZM153.932 113.573C152.336 113.871 150.721 113.53 149.381 112.611C148.043 111.692 147.142 110.308 146.846 108.712C146.548 107.116 146.889 105.5 147.808 104.161C148.726 102.823 150.111 101.922 151.707 101.625C153.302 101.327 154.919 101.67 156.257 102.588C157.595 103.506 158.497 104.89 158.794 106.486C159.408 109.781 157.227 112.96 153.932 113.573Z" fill="#0177FD"/>
<path d="M30.7511 113.944C29.9268 113.379 29.318 112.499 29.1205 111.438C28.7252 109.317 30.125 107.277 32.246 106.882L63.6539 101.031C65.7752 100.636 67.8151 102.036 68.2104 104.157C68.6056 106.278 67.2059 108.319 65.0846 108.714L33.6763 114.563C32.6157 114.761 31.5759 114.51 30.7511 113.944Z" fill="#0177FD"/>
<path d="M22.6719 134.652C21.847 134.086 21.2386 133.206 21.041 132.146C20.6458 130.025 22.0449 127.985 24.1661 127.59L56.9033 121.492C59.0246 121.097 61.0646 122.496 61.4592 124.617C61.8544 126.738 60.4549 128.779 58.3337 129.174L25.5973 135.271C24.5368 135.469 23.4961 135.218 22.6719 134.652Z" fill="#0177FD"/>
<path d="M37.665 151.062C36.8403 150.496 36.2314 149.617 36.0339 148.556C35.6386 146.435 37.0382 144.394 39.1593 144L70.5682 138.149C72.6887 137.754 74.7293 139.153 75.1241 141.274C75.5194 143.395 74.1196 145.436 71.9982 145.831L40.5903 151.681C39.5298 151.879 38.4898 151.628 37.665 151.062Z" fill="#0177FD"/>
<path d="M215.381 95.9467C215.151 94.7135 214.343 93.6646 213.21 93.1297C212.794 92.9335 202.858 88.2747 187.501 84.577C178.491 82.407 169.469 81.0208 160.682 80.4559C149.894 79.7618 139.431 80.3148 129.571 82.0929L101.991 70.1397C101.279 69.8309 100.491 69.7422 99.7284 69.8823L62.6124 76.7341C60.9211 77.046 59.6337 78.4269 59.4392 80.1351C59.274 81.59 59.9354 82.9914 61.1102 83.7972C61.3146 83.9374 61.5342 84.0596 61.7677 84.1614L89.9517 96.3756C86.1548 98.4412 82.3792 100.699 78.6299 103.152C77.3109 104.016 76.6397 105.587 76.9277 107.137L78.8405 117.406L69.3003 119.183C67.179 119.578 65.7799 121.618 66.1751 123.739C66.3727 124.8 66.9811 125.68 67.8063 126.246C68.6307 126.811 69.6707 127.062 70.7311 126.865L80.2714 125.088L82.1839 135.357C82.3782 136.395 82.977 137.288 83.8157 137.864C84.2278 138.146 84.6986 138.353 85.2065 138.461C89.5875 139.4 93.923 140.147 98.2076 140.707L76.3126 162.251C75.087 163.457 74.794 165.321 75.5895 166.845C75.8932 167.425 76.3266 167.904 76.8415 168.257C77.6778 168.831 78.7283 169.072 79.7737 168.875L116.867 161.904C117.629 161.761 118.332 161.393 118.886 160.849L140.312 139.767C150.15 137.875 160.111 134.625 169.927 130.093C177.92 126.401 185.839 121.86 193.463 116.593C206.459 107.612 214.051 99.6897 214.369 99.3566C215.234 98.4476 215.61 97.1786 215.381 95.9467ZM76.6402 82.0899L99.9762 77.7825L116.879 85.1082C110.916 86.8681 104.971 89.1034 99.0653 91.8089L76.6402 82.0899ZM114.254 154.442L90.9329 158.826L108.354 141.685C114.839 142.083 121.19 142.028 127.386 141.522L114.254 154.442ZM188.855 110.277C177.511 118.095 159.519 128.246 138.234 132.211C128.436 134.035 118.125 134.559 107.415 133.79C107.232 133.764 107.046 133.75 106.861 133.751C101.144 133.317 95.3123 132.514 89.3851 131.343L87.9537 123.656L103.469 120.767C105.59 120.371 106.989 118.331 106.595 116.21C106.2 114.089 104.159 112.69 102.038 113.085L86.523 115.974L85.0916 108.287C90.2007 105.061 95.3522 102.212 100.531 99.7475C100.703 99.6822 100.868 99.6033 101.028 99.5146C110.744 94.9397 120.553 91.7152 130.353 89.8897C151.637 85.9252 172.077 88.9178 185.475 92.1268C193.617 94.0758 200.223 96.3405 204.497 97.973C201.097 101.035 195.749 105.527 188.855 110.277Z" fill="#0177FD"/>
</g>
<defs>
<clipPath id="clip0_396_12">
<rect width="165" height="165" fill="white" transform="translate(93.335) rotate(34.4485)"/>
</clipPath>
</defs>
</svg>
