<?xml version="1.0" encoding="utf-8"?>
<!-- Generator: Adobe Illustrator 26.4.1, SVG Export Plug-In . SVG Version: 6.00 Build 0)  -->
<svg version="1.1" id="Слой_1" xmlns="http://www.w3.org/2000/svg" xmlns:xlink="http://www.w3.org/1999/xlink" x="0px" y="0px"
	 viewBox="0 0 1920 1080" style="enable-background:new 0 0 1920 1080;" xml:space="preserve">
<style type="text/css">
	.st0{fill:#0177FD;}
</style>
<g>
	<g>
		<path class="st0" d="M211.46,456.83c-38.96,29.84-74.97,65-98.44,108.58c-23.48,43.59-33.3,96.33-19.23,144.54
			c24.59,84.3,114.52,120.69,195.56,122.07c47.38,0.8,96.23-9.13,139.06-29.51c43.9-20.89,77.53-55.2,107.64-92.6
			c29.28-36.38,56-75.34,90.65-107c40.18-36.7,90.35-56.74,142.58-69.6c111.09-27.33,227.9-33.91,341.6-22.55
			c57.96,5.79,115.44,16.48,171.6,31.95c54.7,15.07,107.27,39.28,163.04,50.16c52.94,10.33,103.84,0.98,151.65-23.3
			c42.69-21.67,82.78-51.83,111.52-90.44c24.45-32.84,52.36-87.67,24.97-126.23c-22.01-30.98-68.2-39.78-103.83-37.63
			c-30.96,1.87-78.08,16.81-76.64,55.44c1.6,42.91,56.82,55.33,90.82,54.89c43.07-0.56,85.51-17.41,117.89-45.68
			c16.48-14.38,29.84-31.7,39.94-51.07c9.55-18.31,17.14-37.64,27.72-55.42c10.63-17.87,24.57-33.39,45.4-38.62
			c3.74-0.94,2.16-6.73-1.59-5.79c-37.47,9.42-53.35,48.1-68.33,79.75c-8.76,18.51-18.23,36.25-31.94,51.63
			c-14.6,16.39-32.33,29.83-51.87,39.8c-36.99,18.86-85.71,27.42-125.37,11.71c-19.9-7.88-40.33-24.95-36.18-48.73
			c3.43-19.69,23.02-30.92,40.48-36.47c35.43-11.26,82.46-7.16,113.3,14.6c44.08,31.11,20.73,89.58-3.67,125.93
			c-26.06,38.82-64.14,68.88-104.74,91.36c-48.6,26.91-101.22,39.22-156.35,28.79c-52.16-9.87-101.25-32.23-152.11-46.93
			c-50.24-14.52-101.57-25.15-153.41-31.96c-105.58-13.87-213.24-11.57-318.1,7.04c-48.94,8.69-98.6,19.83-143.3,42.24
			c-40.46,20.28-72.45,51-100.95,85.64c-28.31,34.41-53.56,71.51-85.1,103.16c-35.03,35.15-77.53,58.34-125.73,70.07
			c-77.54,18.87-174.25,12.28-233.79-46.91c-34.08-33.88-47.28-81.74-41.5-128.88c6.14-50.06,32.32-94.71,66.32-131.06
			c16.36-17.49,34.48-33.24,53.48-47.79C217.51,459.69,214.53,454.48,211.46,456.83L211.46,456.83z"/>
	</g>
</g>
</svg>
