<svg width="62" height="62" viewBox="0 0 62 62" fill="none" xmlns="http://www.w3.org/2000/svg">
<path d="M34.0801 42.8265L31 24.3572L27.9222 42.8265C25.8031 43.9359 24.3572 46.1568 24.3572 48.7143C24.3572 52.3834 27.331 55.3572 31 55.3572C34.6691 55.3572 37.6429 52.3834 37.6429 48.7143C37.6429 46.1568 36.1992 43.9359 34.0801 42.8265Z" fill="#EE5037"/>
<path d="M31 6.64282C13.8791 6.64282 0 20.522 0 37.6428C0 42.202 0.983143 46.531 2.75014 50.4259C3.95471 49.735 5.28993 49.0863 6.73586 48.4884C5.25229 45.1758 4.42857 41.5068 4.42857 37.6428C4.42857 22.9688 16.3259 11.0714 31 11.0714C45.6741 11.0714 57.5714 22.9688 57.5714 37.6428C57.5714 41.5068 56.7477 45.1758 55.2641 48.4884C56.7101 49.0863 58.0453 49.7328 59.2499 50.4259C61.0191 46.531 62 42.202 62 37.6428C62 20.522 48.1209 6.64282 31 6.64282Z" fill="#0177FD"/>
<path d="M8.47632 47.3347L7.11011 43.1254L15.5355 40.3907L16.9017 44.6023L8.47632 47.3347ZM20.0681 26.4141L14.8645 19.2487L18.4517 16.6447L23.6552 23.8124L20.0681 26.4141ZM28.7857 13.2856H33.2143V22.1428H28.7857V13.2856ZM15.5332 34.9879L7.11011 32.251L8.48075 28.0394L16.9039 30.7763L15.5332 34.9879ZM46.4624 34.9856L45.0962 30.7741L53.5238 28.0394L54.89 32.2488L46.4624 34.9856ZM38.3426 23.8101L43.5506 16.6469L47.1355 19.2509L41.9297 26.4164L38.3426 23.8101ZM53.5238 47.3347L45.0984 44.6001L46.4646 40.3907L54.89 43.1254L53.5238 47.3347Z" fill="#00438E"/>
</svg>
