<svg width="128" height="116" viewBox="0 0 128 116" fill="none" xmlns="http://www.w3.org/2000/svg">
<g clip-path="url(#clip0_358_272)">
<path d="M41.539 116H31.1562C29.3125 115.993 26.0155 114.06 25.9217 113.982C9.3595 99.2273 0 79.049 0 57.986C0 36.866 9.414 16.624 26.0702 1.86212C26.0782 1.85509 29.3125 0 31.1562 0H41.539C45.3438 0 49.8515 2.52051 51.5547 5.61445L52.2812 6.93848C53.9765 10.0184 53.8283 14.9957 51.9453 17.9834L44.9688 29.0426C43.078 32.0375 38.4217 34.5367 34.6172 34.5367H27.6875C18.4842 49.0367 18.4842 66.9565 27.6798 81.4635H34.6172C38.422 81.4635 43.0783 83.9627 44.9688 86.9576L51.9375 98.0168C53.8203 101.005 53.9765 105.968 52.2812 109.069L51.5547 110.393C49.8438 113.472 45.3438 116 41.539 116ZM128 29V87C128 95.0076 120.836 101.5 112 101.5H61.172C60.8595 98.9582 60.1797 96.4803 58.883 94.4199L51.9142 83.3609C48.5627 78.058 41.297 74.2135 34.6172 74.2135H32.5783C27.5312 63.9189 27.5312 52.0738 32.5783 41.7867H34.6172C41.297 41.7867 48.5625 37.9422 51.9142 32.6393L58.8908 21.5801C60.1878 19.5197 60.8672 17.0346 61.1797 14.5H112C120.836 14.5 128 20.9924 128 29ZM82 83.375C82 80.373 79.3125 77.9375 76 77.9375C72.6875 77.9375 70 80.373 70 83.375C70 86.377 72.6875 88.8125 76 88.8125C79.3125 88.8125 82 86.377 82 83.375ZM82 68.875C82 65.873 79.3125 63.4375 76 63.4375C72.6875 63.4375 70 65.873 70 68.875C70 71.877 72.6875 74.3125 76 74.3125C79.3125 74.3125 82 71.877 82 68.875ZM82 54.375C82 51.373 79.3125 48.9375 76 48.9375C72.6875 48.9375 70 51.373 70 54.375C70 57.377 72.6875 59.8125 76 59.8125C79.3125 59.8125 82 57.377 82 54.375ZM98 83.375C98 80.373 95.3125 77.9375 92 77.9375C88.6875 77.9375 86 80.373 86 83.375C86 86.377 88.6875 88.8125 92 88.8125C95.3125 88.8125 98 86.377 98 83.375ZM98 68.875C98 65.873 95.3125 63.4375 92 63.4375C88.6875 63.4375 86 65.873 86 68.875C86 71.877 88.6875 74.3125 92 74.3125C95.3125 74.3125 98 71.877 98 68.875ZM98 54.375C98 51.373 95.3125 48.9375 92 48.9375C88.6875 48.9375 86 51.373 86 54.375C86 57.377 88.6875 59.8125 92 59.8125C95.3125 59.8125 98 57.377 98 54.375ZM114 83.375C114 80.373 111.312 77.9375 108 77.9375C104.688 77.9375 102 80.373 102 83.375C102 86.377 104.688 88.8125 108 88.8125C111.312 88.8125 114 86.377 114 83.375ZM114 68.875C114 65.873 111.312 63.4375 108 63.4375C104.688 63.4375 102 65.873 102 68.875C102 71.877 104.688 74.3125 108 74.3125C111.312 74.3125 114 71.877 114 68.875ZM114 54.375C114 51.373 111.312 48.9375 108 48.9375C104.688 48.9375 102 51.373 102 54.375C102 57.377 104.688 59.8125 108 59.8125C111.312 59.8125 114 57.377 114 54.375ZM114 32.625C114 30.6213 112.211 29 110 29H74C71.789 29 70 30.6213 70 32.625V39.875C70 41.8787 71.789 43.5 74 43.5H110C112.211 43.5 114 41.8787 114 39.875V32.625Z" fill="#0177FD"/>
</g>
<defs>
<clipPath id="clip0_358_272">
<rect width="128" height="116" fill="white"/>
</clipPath>
</defs>
</svg>
