<svg width="71" height="71" viewBox="0 0 71 71" fill="none" xmlns="http://www.w3.org/2000/svg">
<path d="M35.4999 1.41992C28.7596 1.41992 22.1705 3.41868 16.5661 7.16344C10.9617 10.9082 6.59356 16.2308 4.01412 22.4581C1.43469 28.6854 0.75979 35.5377 2.07477 42.1486C3.38976 48.7595 6.63556 54.8319 11.4017 59.5981C16.1679 64.3643 22.2404 67.6101 28.8513 68.9251C35.4621 70.2401 42.3145 69.5652 48.5418 66.9857C54.7691 64.4063 60.0917 60.0382 63.8364 54.4338C67.5812 48.8293 69.5799 42.2403 69.5799 35.4999C69.5799 26.4613 65.9894 17.793 59.5981 11.4017C53.2069 5.01048 44.5385 1.41992 35.4999 1.41992ZM35.4999 66.7399C29.3213 66.7399 23.2813 64.9077 18.1439 61.475C13.0065 58.0423 9.00242 53.1633 6.63794 47.4549C4.27346 41.7466 3.6548 35.4653 4.8602 29.4053C6.06561 23.3453 9.04093 17.7789 13.4099 13.4099C17.7789 9.04091 23.3454 6.06559 29.4053 4.86019C35.4653 3.65479 41.7466 4.27344 47.455 6.63792C53.1633 9.00241 58.0424 13.0065 61.4751 18.1439C64.9077 23.2813 66.7399 29.3212 66.7399 35.4999C66.7399 43.7853 63.4486 51.7313 57.59 57.5899C51.7313 63.4486 43.7853 66.7399 35.4999 66.7399Z" fill="#0177FD"/>
<path d="M35.5 36.0823C30.6041 36.0823 25.9088 38.0272 22.4468 41.4891C18.9849 44.951 17.04 49.6464 17.04 54.5423C17.04 54.9189 17.1896 55.2801 17.4559 55.5464C17.7222 55.8127 18.0834 55.9623 18.46 55.9623C18.8366 55.9623 19.1978 55.8127 19.4641 55.5464C19.7304 55.2801 19.88 54.9189 19.88 54.5423C19.88 50.3996 21.5257 46.4266 24.455 43.4973C27.3843 40.5679 31.3574 38.9223 35.5 38.9223C39.6427 38.9223 43.6157 40.5679 46.545 43.4973C49.4744 46.4266 51.12 50.3996 51.12 54.5423C51.12 54.9189 51.2696 55.2801 51.5359 55.5464C51.8022 55.8127 52.1634 55.9623 52.54 55.9623C52.9166 55.9623 53.2778 55.8127 53.5441 55.5464C53.8104 55.2801 53.96 54.9189 53.96 54.5423C53.96 52.1181 53.4826 49.7176 52.5549 47.4779C51.6272 45.2383 50.2674 43.2033 48.5532 41.4891C46.8391 39.7749 44.804 38.4152 42.5644 37.4875C40.3247 36.5598 37.9242 36.0823 35.5 36.0823Z" fill="#0177FD"/>
<path d="M35.5 33.6683C36.8067 33.6333 38.0937 33.341 39.2873 32.808C40.4809 32.275 41.5576 31.5118 42.4558 30.5621C43.3541 29.6125 44.0562 28.4949 44.5219 27.2735C44.9877 26.0522 45.208 24.7509 45.1702 23.4443C45.2099 22.1364 44.991 20.8337 44.5261 19.6106C44.0612 18.3876 43.3594 17.2684 42.461 16.3172C41.5626 15.366 40.4852 14.6015 39.2906 14.0676C38.0961 13.5338 36.8079 13.241 35.5 13.2061C34.192 13.241 32.9038 13.5338 31.7093 14.0676C30.5148 14.6015 29.4374 15.366 28.539 16.3172C27.6405 17.2684 26.9387 18.3876 26.4738 19.6106C26.0089 20.8337 25.7901 22.1364 25.8298 23.4443C25.792 24.7509 26.0122 26.0522 26.478 27.2735C26.9438 28.4949 27.6459 29.6125 28.5441 30.5621C29.4424 31.5118 30.5191 32.275 31.7127 32.808C32.9063 33.341 34.1933 33.6333 35.5 33.6683ZM35.5 16.0461C36.4351 16.0808 37.3541 16.3 38.2042 16.6911C39.0542 17.0822 39.8186 17.6374 40.4534 18.325C41.0881 19.0125 41.5807 19.8187 41.9028 20.6973C42.2249 21.5758 42.3701 22.5094 42.3302 23.4443C42.3682 24.378 42.2215 25.31 41.8986 26.1869C41.5756 27.0638 41.0827 27.8684 40.4482 28.5544C39.8136 29.2404 39.0499 29.7944 38.2007 30.1846C37.3516 30.5748 36.4338 30.7935 35.5 30.8283C34.5661 30.7935 33.6483 30.5748 32.7992 30.1846C31.9501 29.7944 31.1863 29.2404 30.5518 28.5544C29.9172 27.8684 29.4243 27.0638 29.1014 26.1869C28.7784 25.31 28.6318 24.378 28.6698 23.4443C28.6298 22.5094 28.7751 21.5758 29.0972 20.6973C29.4193 19.8187 29.9118 19.0125 30.5466 18.325C31.1813 17.6374 31.9457 17.0822 32.7958 16.6911C33.6459 16.3 34.5649 16.0808 35.5 16.0461Z" fill="#0177FD"/>
</svg>
