<svg width="163" height="163" viewBox="0 0 163 163" fill="none" xmlns="http://www.w3.org/2000/svg">
<path d="M43.7106 48.0054C47.3968 48.0048 50.9688 46.726 53.818 44.3871C56.6672 42.0481 58.6172 38.7936 59.3359 35.1781C60.0546 31.5626 59.4975 27.8098 57.7595 24.5589C56.0215 21.3081 53.2101 18.7605 49.8044 17.3501C46.3986 15.9397 42.6092 15.7537 39.0817 16.824C35.5542 17.8942 32.5069 20.1544 30.459 23.2195C28.4112 26.2846 27.4894 29.9649 27.8507 33.6334C28.212 37.3019 29.8341 40.7316 32.4407 43.3383C33.9176 44.8222 35.6741 45.9987 37.6085 46.7998C39.5429 47.6009 41.6169 48.0107 43.7106 48.0054ZM37.5471 25.9049C38.9718 24.4774 40.8473 23.5881 42.8542 23.3885C44.8611 23.1889 46.8751 23.6913 48.553 24.8102C50.2309 25.9291 51.4689 27.5952 52.056 29.5246C52.6432 31.454 52.5431 33.5274 51.7729 35.3913C51.0027 37.2552 49.61 38.7943 47.8322 39.7465C46.0543 40.6986 44.0013 41.0048 42.023 40.6128C40.0446 40.2209 38.2634 39.1551 36.9829 37.597C35.7023 36.039 35.0017 34.0851 35.0003 32.0683C34.9965 30.9237 35.2197 29.7896 35.6568 28.7317C36.094 27.6738 36.7365 26.713 37.5471 25.9049Z" fill="#0177FD"/>
<path d="M67.0941 73.8244C67.0941 67.6227 64.6305 61.675 60.2453 57.2897C55.86 52.9045 49.9123 50.4409 43.7106 50.4409C37.509 50.4409 31.5613 52.9045 27.176 57.2897C22.7908 61.675 20.3271 67.6227 20.3271 73.8244C20.3271 74.7818 20.7075 75.7001 21.3846 76.3771C22.0616 77.0542 22.9799 77.4345 23.9373 77.4345H63.4839C64.4414 77.4345 65.3597 77.0542 66.0367 76.3771C66.7138 75.7001 67.0941 74.7818 67.0941 73.8244ZM27.955 70.2142C28.7691 66.6434 30.7716 63.455 33.6347 61.1712C36.4977 58.8874 40.0515 57.6436 43.7138 57.6436C47.3762 57.6436 50.9299 58.8874 53.793 61.1712C56.656 63.455 58.6586 66.6434 59.4726 70.2142H27.955Z" fill="#0177FD"/>
<path d="M69.5934 90.1434C67.3648 92.3724 65.8471 95.2121 65.2324 98.3035C64.6176 101.395 64.9333 104.599 66.1396 107.511C67.3459 110.423 69.3886 112.912 72.0094 114.663C74.6302 116.414 77.7114 117.349 80.8633 117.349C84.0153 117.349 87.0965 116.414 89.7173 114.663C92.3381 112.912 94.3808 110.423 95.5871 107.511C96.7934 104.599 97.1091 101.395 96.4943 98.3035C95.8796 95.2121 94.3619 92.3724 92.1333 90.1434C90.6605 88.6507 88.9058 87.4654 86.9711 86.6564C85.0365 85.8474 82.9603 85.4308 80.8633 85.4308C78.7663 85.4308 76.6902 85.8474 74.7556 86.6564C72.8209 87.4654 71.0662 88.6507 69.5934 90.1434ZM87.0268 107.574C85.6021 109.001 83.7266 109.89 81.7197 110.09C79.7129 110.29 77.6989 109.787 76.021 108.668C74.343 107.549 73.105 105.883 72.5179 103.954C71.9307 102.024 72.0308 99.9512 72.801 98.0873C73.5712 96.2234 74.9639 94.6842 76.7418 93.7321C78.5196 92.7799 80.5727 92.4738 82.551 92.8657C84.5293 93.2576 86.3105 94.3234 87.591 95.8815C88.8716 97.4395 89.5723 99.3934 89.5737 101.41C89.5745 103.721 88.6586 105.938 87.0268 107.574Z" fill="#0177FD"/>
<path d="M80.8635 119.783C74.6639 119.789 68.7201 122.255 64.3363 126.639C59.9525 131.023 57.4867 136.967 57.48 143.166C57.4834 144.121 57.8652 145.036 58.5419 145.711C59.2185 146.385 60.1349 146.764 61.0902 146.764H100.637C101.594 146.764 102.513 146.383 103.19 145.706C103.867 145.029 104.247 144.111 104.247 143.153C104.237 136.956 101.77 131.016 97.3862 126.635C93.0027 122.253 87.0609 119.789 80.8635 119.783ZM65.1079 139.556C65.9219 135.985 67.9245 132.797 70.7875 130.513C73.6505 128.229 77.2043 126.985 80.8667 126.985C84.529 126.985 88.0828 128.229 90.9458 130.513C93.8089 132.797 95.8114 135.985 96.6255 139.556H65.1079Z" fill="#0177FD"/>
<path d="M119.178 48.0054C122.866 48.0088 126.441 46.7331 129.293 44.3959C132.146 42.0586 134.099 38.8044 134.821 35.188C135.543 31.5715 134.988 27.8166 133.252 24.5633C131.515 21.3101 128.704 18.7597 125.298 17.347C121.891 15.9343 118.1 15.7467 114.571 16.8161C111.041 17.8856 107.992 20.1459 105.943 23.2118C103.893 26.2777 102.971 29.9595 103.332 33.6295C103.693 37.2996 105.316 40.7308 107.924 43.3383C109.399 44.8203 111.153 45.9957 113.084 46.7968C115.016 47.5978 117.087 48.0086 119.178 48.0054ZM113.018 25.9049C114.237 24.6858 115.79 23.8556 117.481 23.5192C119.172 23.1828 120.924 23.3554 122.517 24.0151C124.11 24.6749 125.471 25.7921 126.429 27.2256C127.387 28.659 127.898 30.3443 127.898 32.0684C127.898 33.7924 127.387 35.4777 126.429 36.9111C125.471 38.3446 124.11 39.4618 122.517 40.1216C120.924 40.7813 119.172 40.9539 117.481 40.6175C115.79 40.2811 114.237 39.4509 113.018 38.2318C112.202 37.426 111.554 36.4663 111.112 35.4083C110.67 34.3503 110.442 33.215 110.442 32.0684C110.442 30.9217 110.67 29.7864 111.112 28.7284C111.554 27.6704 112.202 26.7107 113.018 25.9049Z" fill="#0177FD"/>
<path d="M119.178 50.4409C112.978 50.4476 107.035 52.9134 102.651 57.2972C98.267 61.681 95.8012 67.6247 95.7944 73.8244C95.7944 74.7818 96.1748 75.7001 96.8518 76.3771C97.5289 77.0542 98.4471 77.4345 99.4046 77.4345H138.951C139.909 77.4345 140.827 77.0542 141.504 76.3771C142.181 75.7001 142.561 74.7818 142.561 73.8244C142.555 67.6247 140.089 61.681 135.705 57.2972C131.321 52.9134 125.378 50.4476 119.178 50.4409ZM103.422 70.2142C104.236 66.6434 106.239 63.455 109.102 61.1712C111.965 58.8874 115.519 57.6436 119.181 57.6436C122.843 57.6436 126.397 58.8874 129.26 61.1712C132.123 63.455 134.126 66.6434 134.94 70.2142H103.422Z" fill="#0177FD"/>
<path d="M56.6267 118.43C46.8851 111.864 40.1335 101.714 37.8435 90.1912C37.7515 89.7261 37.5688 89.2836 37.3059 88.8891C37.0429 88.4946 36.7048 88.1558 36.3109 87.8919C35.917 87.6281 35.4749 87.4444 35.01 87.3514C34.5451 87.2584 34.0665 87.2579 33.6014 87.3498C33.1362 87.4418 32.6938 87.6245 32.2993 87.8875C31.9048 88.1504 31.5659 88.4885 31.3021 88.8824C31.0383 89.2764 30.8546 89.7184 30.7616 90.1833C30.6686 90.6482 30.668 91.1269 30.76 91.592C33.4238 104.983 41.2699 116.779 52.5899 124.412C52.9821 124.695 53.4272 124.897 53.8989 125.005C54.3706 125.113 54.8592 125.125 55.3357 125.041C55.8121 124.956 56.2667 124.776 56.6725 124.513C57.0782 124.249 57.4267 123.906 57.6974 123.505C57.9681 123.104 58.1554 122.653 58.2481 122.178C58.3409 121.703 58.3372 121.214 58.2373 120.741C58.1374 120.267 57.9434 119.819 57.6667 119.422C57.39 119.025 57.0363 118.687 56.6267 118.43Z" fill="#0177FD"/>
<path d="M69.5074 38.6265C77.3646 36.4384 85.6703 36.4384 93.5276 38.6265C93.8449 38.7144 94.1725 38.7594 94.5018 38.7602C95.3739 38.7597 96.2164 38.4433 96.8735 37.8698C97.5305 37.2962 97.9577 36.5042 98.0761 35.6401C98.1945 34.776 97.9961 33.8983 97.5175 33.1691C97.039 32.44 96.3126 31.9087 95.4728 31.6736C86.3435 29.1351 76.6947 29.1351 67.5654 31.6736C66.6429 31.9311 65.8606 32.5445 65.3904 33.3789C64.9202 34.2132 64.8008 35.2002 65.0583 36.1226C65.3158 37.0451 65.9292 37.8274 66.7636 38.2976C67.598 38.7678 68.5849 38.8872 69.5074 38.6297V38.6265Z" fill="#0177FD"/>
<path d="M127.86 87.3355C126.92 87.1511 125.946 87.3469 125.151 87.8799C124.356 88.4129 123.805 89.2396 123.619 90.1785C122.54 95.6594 120.429 100.885 117.398 105.578C114.127 110.671 109.851 115.044 104.833 118.43C104.093 118.987 103.595 119.807 103.443 120.721C103.291 121.635 103.497 122.572 104.016 123.339C104.536 124.106 105.331 124.644 106.236 124.841C107.141 125.038 108.087 124.88 108.879 124.399C120.199 116.766 128.045 104.97 130.709 91.5793C130.801 91.1135 130.8 90.6343 130.706 90.1689C130.613 89.7035 130.428 89.2612 130.164 88.8671C129.899 88.473 129.559 88.1349 129.164 87.8721C128.769 87.6093 128.325 87.427 127.86 87.3355Z" fill="#0177FD"/>
</svg>
