<svg width="109" height="109" viewBox="0 0 109 109" fill="none" xmlns="http://www.w3.org/2000/svg">
<path d="M71.127 16.3809C71.127 7.32832 63.7987 0 54.7462 0H53.6377C44.5852 0 37.2568 7.32832 37.2568 16.3809V53.8227C37.2568 62.8753 44.5852 70.2036 53.6377 70.2036H54.7462C63.7987 70.2036 71.127 62.8753 71.127 53.8227V16.3809ZM63.7372 53.8225C63.7372 58.8107 59.7343 62.8136 54.7462 62.8136H53.6377C48.6496 62.8136 44.6467 58.8107 44.6467 53.8225V16.3809C44.6467 11.3927 48.6496 7.38983 53.6377 7.38983H54.7462C59.7343 7.38983 63.7372 11.3927 63.7372 16.3809V53.8225Z" fill="#0177FD"/>
<path d="M21.2457 43.6C19.2135 43.6 17.5508 45.2627 17.5508 47.2949C17.5508 67.4937 31.5299 84.3056 49.5733 86.892V101.61H32.9462C30.914 101.61 29.2513 103.273 29.2513 105.305C29.2513 107.337 30.914 109 32.9462 109H76.0535C78.0857 109 79.7484 107.337 79.7484 105.305C79.7484 103.273 78.0857 101.61 76.0535 101.61H56.9631V87.2C76.1767 85.8453 91.4491 68.4792 91.4491 47.3564C91.4491 45.3242 89.7864 43.6615 87.7542 43.6615C85.722 43.6615 84.0593 45.3242 84.0593 47.3564C84.0593 65.3383 70.8191 79.9332 54.4999 79.9332C38.1808 79.9332 24.9406 65.2768 24.9406 47.2947C24.9406 45.2627 23.2779 43.6 21.2457 43.6Z" fill="#0177FD"/>
</svg>
