<svg width="145" height="145" viewBox="0 0 145 145" fill="none" xmlns="http://www.w3.org/2000/svg">
<path d="M72.4997 139.423C109.46 139.423 139.423 109.461 139.423 72.5C139.423 35.5394 109.46 5.57692 72.4997 5.57692C35.5391 5.57692 5.57666 35.5394 5.57666 72.5C5.57666 109.461 35.5391 139.423 72.4997 139.423Z" fill="white"/>
<path d="M72.4997 121.298C99.4502 121.298 121.298 99.4504 121.298 72.5C121.298 45.5496 99.4502 23.7019 72.4997 23.7019C45.5493 23.7019 23.7017 45.5496 23.7017 72.5C23.7017 99.4504 45.5493 121.298 72.4997 121.298Z" fill="#B3D6FE"/>
<path d="M72.4998 5.57692C59.2636 5.57692 46.3247 9.50189 35.3193 16.8555C24.3139 24.2091 15.7362 34.661 10.6709 46.8896C5.60566 59.1182 4.28036 72.5742 6.8626 85.556C9.44484 98.5378 15.8186 110.462 25.178 119.822C34.5374 129.181 46.4619 135.555 59.4437 138.137C72.4255 140.719 85.8815 139.394 98.1101 134.329C110.339 129.264 120.791 120.686 128.144 109.68C135.498 98.675 139.423 85.7361 139.423 72.5C139.423 54.7509 132.372 37.7287 119.822 25.1782C107.271 12.6277 90.2489 5.57692 72.4998 5.57692ZM72.4998 134.069C60.3225 134.069 48.4187 130.458 38.2937 123.693C28.1687 116.928 20.2772 107.312 15.6172 96.0615C10.9572 84.8112 9.73791 72.4317 12.1136 60.4884C14.4892 48.5452 20.3531 37.5746 28.9637 28.964C37.5744 20.3534 48.5449 14.4895 60.4882 12.1138C72.4315 9.73814 84.811 10.9574 96.0613 15.6174C107.312 20.2775 116.927 28.169 123.693 38.294C130.458 48.419 134.069 60.3228 134.069 72.5C134.054 88.8246 127.563 104.476 116.019 116.02C104.476 127.563 88.8244 134.054 72.4998 134.069Z" fill="#0177FD"/>
<path d="M72.5 139.423C56.6615 139.423 36.5288 107.913 36.5288 72.5C36.5288 37.0865 56.6615 5.57692 72.5 5.57692C88.3384 5.57692 108.471 37.0865 108.471 72.5C108.471 107.913 88.3384 139.423 72.5 139.423ZM72.5 11.1538C62.099 11.1538 42.1057 37.0586 42.1057 72.5C42.1057 107.941 62.099 133.846 72.5 133.846C82.9009 133.846 102.894 107.941 102.894 72.5C102.894 37.0586 82.9009 11.1538 72.5 11.1538Z" fill="#0177FD"/>
<path d="M75.2883 5.57692H69.7114V139.423H75.2883V5.57692Z" fill="#0177FD"/>
<path d="M139.423 69.7115H5.57666V75.2885H139.423V69.7115Z" fill="#0177FD"/>
<path d="M72.4997 44.6154C36.6122 44.6154 24.2036 29.3625 23.7017 28.7211L28.442 25.0961C28.442 25.0961 39.8469 38.7038 72.4997 38.7038C105.153 38.7038 116.446 25.0961 116.557 25.0961L121.298 28.7211C120.796 29.3625 108.387 44.6154 72.4997 44.6154Z" fill="#0177FD"/>
<path d="M72.4997 100.385C36.6122 100.385 24.2036 115.638 23.7017 116.279L28.442 119.904C28.442 119.904 39.8469 106.296 72.4997 106.296C105.153 106.296 116.446 119.904 116.557 119.904L121.298 116.279C120.796 115.638 108.387 100.385 72.4997 100.385Z" fill="#0177FD"/>
</svg>
