<svg width="112" height="112" viewBox="0 0 112 112" fill="none" xmlns="http://www.w3.org/2000/svg">
<path d="M68.6514 5.3386V44.7392H108.061L96.2314 32.9092L112 17.15L96.2499 1.39543L80.4813 17.1688L68.6514 5.3386ZM94.7519 79.94C87.7845 79.94 81.0925 78.8387 74.8486 76.7574C72.9025 76.1694 70.7233 76.6081 69.1739 78.1153L56.9099 90.3698C41.1366 82.3338 28.2006 69.4724 20.1787 53.6524L32.4332 41.3277C34.0012 39.8717 34.4399 37.6923 33.8331 35.7464C31.7751 29.5071 30.6552 22.8198 30.6552 15.8571C30.6552 12.7818 28.1445 10.2758 25.0832 10.2758H5.57192C2.51063 10.276 0 12.782 0 15.8573C0 68.1845 42.406 110.605 94.7519 110.605C97.8132 110.605 100.319 108.108 100.319 105.028V85.5307C100.324 82.4553 97.8132 79.94 94.7519 79.94Z" fill="#0177FD"/>
</svg>
