<svg width="149" height="149" viewBox="0 0 149 149" fill="none" xmlns="http://www.w3.org/2000/svg">
<path d="M114.01 16.3651L105.231 25.1437C113.433 33.3573 117.959 44.2716 117.959 55.8749C117.959 67.4784 113.433 78.3926 105.231 86.6062L114.01 95.3848C124.564 84.8245 130.375 70.7936 130.375 55.8749C130.375 40.9563 124.564 26.9255 114.01 16.3651Z" fill="#0177FD"/>
<path d="M96.4465 33.9223L87.668 42.7133C91.1881 46.221 93.1251 50.8959 93.1251 55.8749C93.1251 60.854 91.1881 65.529 87.668 69.0367L96.4465 77.8277C102.307 71.967 105.542 64.1755 105.542 55.8749C105.542 47.5744 102.307 39.7829 96.4465 33.9223Z" fill="#0177FD"/>
<path fill-rule="evenodd" clip-rule="evenodd" d="M74.5002 49.6667C74.5002 63.3815 63.3817 74.5 49.6668 74.5C35.9518 74.5 24.8335 63.3815 24.8335 49.6667C24.8335 35.9516 35.9518 24.8333 49.6668 24.8333C63.3817 24.8333 74.5002 35.9516 74.5002 49.6667ZM62.0835 49.6667C62.0835 56.5242 56.5244 62.0833 49.6668 62.0833C42.8093 62.0833 37.2502 56.5242 37.2502 49.6667C37.2502 42.8091 42.8093 37.25 49.6668 37.25C56.5244 37.25 62.0835 42.8091 62.0835 49.6667Z" fill="#0177FD"/>
<path d="M74.4998 117.958H86.9165C86.9165 97.3858 70.2391 80.7083 49.6665 80.7083C29.0939 80.7083 12.4165 97.3858 12.4165 117.958H24.8332C24.8332 104.244 35.9514 93.125 49.6665 93.125C63.3813 93.125 74.4998 104.244 74.4998 117.958Z" fill="#0177FD"/>
</svg>
