<svg width="150" height="150" viewBox="0 0 150 150" fill="none" xmlns="http://www.w3.org/2000/svg">
<path d="M134.73 99.12C134.73 101.76 132.57 103.92 129.93 103.92H121.785V121.785H106.815V116.535C106.815 112.29 103.35 108.838 99.1202 108.838C94.8752 108.838 91.4252 112.29 91.4252 116.535V121.785H76.4702V106.815H81.6887C81.7037 106.815 81.7037 106.815 81.7037 106.815H81.7352C85.9637 106.815 89.4302 103.35 89.4302 99.12C89.4302 94.875 85.9637 91.425 81.7352 91.425H76.4702V76.44H94.3052V68.31C94.3052 65.655 96.4637 63.495 99.1202 63.495C100.44 63.495 101.64 64.035 102.51 64.905C103.38 65.775 103.92 66.975 103.92 68.31V76.44H121.785V94.305H129.93C132.57 94.305 134.73 96.465 134.73 99.12Z" fill="#0177FD"/>
<path d="M86.5048 99.12C86.5048 101.76 84.3598 103.92 81.7048 103.92H73.5598V121.785H55.7248V129.93C55.7248 132.585 53.5648 134.73 50.9248 134.73C48.2698 134.73 46.1098 132.57 46.1098 129.93V121.785H28.2448V103.92H20.0998C17.4598 103.92 15.2998 101.76 15.2998 99.12C15.2998 96.4635 17.4598 94.305 20.0998 94.305H28.2448V76.44H46.1098V68.31C46.1098 65.655 48.2548 63.495 50.9098 63.495C53.5498 63.495 55.6948 65.655 55.6948 68.31V76.44H73.5598V94.305H81.7048C84.3598 94.305 86.5048 96.465 86.5048 99.12Z" fill="#0177FD"/>
<path d="M60.615 50.88C60.615 55.125 64.065 58.575 68.31 58.575H73.56V73.56H58.62V68.31C58.62 64.065 55.155 60.615 50.925 60.615C50.91 60.615 50.91 60.615 50.91 60.615C50.895 60.615 50.895 60.615 50.895 60.615C46.65 60.615 43.2 64.065 43.2 68.31V73.56H28.215V55.695H20.07C17.43 55.695 15.27 53.535 15.27 50.895C15.27 48.24 17.43 46.08 20.07 46.08H28.215V28.215H46.08V20.07C46.08 17.43 48.24 15.27 50.895 15.27C53.535 15.27 55.695 17.43 55.695 20.07V28.215H73.56V43.2H68.31C64.065 43.2 60.615 46.65 60.615 50.88Z" fill="#0177FD"/>
<path d="M108.825 50.88C108.825 55.125 112.292 58.575 116.52 58.575H121.787V73.56H106.817V68.31C106.817 66.18 105.947 64.26 104.552 62.865C103.155 61.47 101.237 60.615 99.1216 60.615C94.8766 60.615 91.4266 64.065 91.4266 68.31V73.56H76.4416V55.695H68.2966C65.6566 55.695 63.4966 53.535 63.4966 50.88C63.4966 48.24 65.6566 46.08 68.2966 46.08H76.4416V28.215H94.3066V20.07C94.3066 17.43 96.4651 15.27 99.1216 15.27C101.762 15.27 103.922 17.43 103.922 20.07V28.215H121.787V43.2H116.52C112.29 43.2 108.825 46.65 108.825 50.88Z" fill="#0177FD"/>
</svg>
