<svg width="40" height="40" viewBox="0 0 40 40" fill="none" xmlns="http://www.w3.org/2000/svg">
<g clip-path="url(#clip0_396_36)">
<path d="M39.9992 20.0003C39.9992 31.0462 31.0456 39.9987 19.9995 39.9987C8.95416 39.9987 0.000488281 31.0461 0.000488281 20.0003C0.000488281 8.95491 8.95416 0.00170898 19.9995 0.00170898C31.0456 0.00170898 39.9992 8.95491 39.9992 20.0003Z" fill="#0177FD"/>
<path opacity="0.15" d="M39.4408 24.6882L30.9583 16.2045L25.1172 19.9447L21.1555 15.9829L17.0497 20.088L20.1112 23.1496L19.496 23.5438L12.1311 16.1777L9.62256 18.6856L16.4383 25.5013L14.0311 27.0424L26.0529 39.0643C32.6776 36.9628 37.8032 31.5057 39.4408 24.6882Z" fill="#0177FD"/>
<path d="M20.406 28.7928C21.0072 28.7928 21.2538 28.393 21.2452 27.8919C21.2147 26.0011 21.9514 24.983 23.2795 26.3086C24.7493 27.7771 25.0531 28.7928 26.8384 28.7928C27.5158 28.7928 29.3396 28.7928 29.9981 28.7928C32.484 28.7928 30.2691 26.3013 28.518 24.6778C26.853 23.1348 26.7743 23.0975 28.2079 21.2403C29.9883 18.9345 32.3156 15.9627 30.2563 15.9627C29.8535 15.9627 30.1409 15.9627 26.3251 15.9627C25.5616 15.9627 25.5061 16.4076 25.2357 17.0479C24.2537 19.3606 22.3854 22.3596 21.6768 21.9013C20.9333 21.4221 21.2733 19.7982 21.33 16.9832C21.3453 16.2398 21.3411 15.7283 20.204 15.4653C17.0961 14.7444 14.404 16.1611 15.5037 16.365C17.054 16.6543 16.9057 19.7365 16.545 21.1847C15.915 23.7049 13.5458 19.1896 12.5594 16.9399C12.3208 16.3991 12.2482 15.9627 11.3979 15.9627C10.9316 15.9627 8.87442 15.9627 8.18294 15.9627C7.56372 15.9627 7.25989 16.2459 7.47716 16.8214C7.69255 17.3958 10.1809 22.9523 13.1222 26.1225C15.8431 29.0564 18.534 28.7928 20.406 28.7928Z" fill="#F4F6F9"/>
</g>
<defs>
<clipPath id="clip0_396_36">
<rect width="40" height="40" fill="white"/>
</clipPath>
</defs>
</svg>
