<svg width="40" height="40" viewBox="0 0 40 40" fill="none" xmlns="http://www.w3.org/2000/svg">
<g clip-path="url(#clip0_491_133)">
<path d="M30 36.25H10C8.3424 36.25 6.75269 35.5915 5.58058 34.4194C4.40848 33.2473 3.75 31.6576 3.75 30V12.5C3.75 12.1685 3.8817 11.8505 4.11612 11.6161C4.35054 11.3817 4.66848 11.25 5 11.25H30C31.6576 11.25 33.2473 11.9085 34.4194 13.0806C35.5915 14.2527 36.25 15.8424 36.25 17.5V30C36.25 31.6576 35.5915 33.2473 34.4194 34.4194C33.2473 35.5915 31.6576 36.25 30 36.25ZM6.25 13.75V30C6.25 30.9946 6.64509 31.9484 7.34835 32.6517C8.05161 33.3549 9.00544 33.75 10 33.75H30C30.9946 33.75 31.9484 33.3549 32.6517 32.6517C33.3549 31.9484 33.75 30.9946 33.75 30V17.5C33.75 16.5054 33.3549 15.5516 32.6517 14.8483C31.9484 14.1451 30.9946 13.75 30 13.75H6.25Z" fill="#0177FD"/>
<path d="M32.5001 13.75C32.1686 13.75 31.8507 13.6183 31.6163 13.3839C31.3818 13.1495 31.2501 12.8315 31.2501 12.5V9.06252C31.2741 8.62463 31.1988 8.18699 31.03 7.78224C30.8612 7.3775 30.6032 7.0161 30.2751 6.72502C29.9804 6.50421 29.6392 6.35344 29.2775 6.28413C28.9159 6.21482 28.5431 6.22881 28.1876 6.32502L7.22514 11.0875C6.94316 11.151 6.69191 11.3103 6.51414 11.5382C6.33637 11.7661 6.24308 12.0486 6.25014 12.3375C6.25014 12.669 6.11844 12.987 5.88402 13.2214C5.6496 13.4558 5.33166 13.5875 5.00014 13.5875C4.66862 13.5875 4.35068 13.4558 4.11625 13.2214C3.88183 12.987 3.75014 12.669 3.75014 12.3375C3.7428 11.483 4.02754 10.6516 4.5572 9.98102C5.08686 9.31042 5.82967 8.84084 6.66264 8.65002L27.6376 3.88752C28.359 3.70511 29.1126 3.69026 29.8406 3.84409C30.5686 3.99793 31.2517 4.31637 31.8376 4.77502C32.4572 5.30082 32.9507 5.95908 33.2817 6.70118C33.6127 7.44328 33.7728 8.25026 33.7501 9.06252V12.5C33.7501 12.8315 33.6184 13.1495 33.384 13.3839C33.1496 13.6183 32.8317 13.75 32.5001 13.75Z" fill="#0177FD"/>
<path d="M35 28.75H26.25C24.9239 28.75 23.6521 28.2232 22.7145 27.2855C21.7768 26.3479 21.25 25.0761 21.25 23.75C21.25 22.4239 21.7768 21.1521 22.7145 20.2145C23.6521 19.2768 24.9239 18.75 26.25 18.75H35C35.3315 18.75 35.6495 18.8817 35.8839 19.1161C36.1183 19.3505 36.25 19.6685 36.25 20V27.5C36.25 27.8315 36.1183 28.1495 35.8839 28.3839C35.6495 28.6183 35.3315 28.75 35 28.75ZM26.25 21.25C25.587 21.25 24.9511 21.5134 24.4822 21.9822C24.0134 22.4511 23.75 23.087 23.75 23.75C23.75 24.413 24.0134 25.0489 24.4822 25.5178C24.9511 25.9866 25.587 26.25 26.25 26.25H33.75V21.25H26.25Z" fill="#0177FD"/>
</g>
<defs>
<clipPath id="clip0_491_133">
<rect width="40" height="40" fill="white"/>
</clipPath>
</defs>
</svg>
