<svg width="64" height="64" viewBox="0 0 64 64" fill="none" xmlns="http://www.w3.org/2000/svg">
<path d="M56.4001 32L7.6001 24.5C5.5501 24.5 3.8501 22.8 3.8501 20.75C3.8501 18.7 5.5501 17 7.6001 17H48.8501C53.0001 17 56.3501 20.35 56.3501 24.5V32H56.4001Z" fill="#CFE5FE"/>
<path d="M56.4 32.5999C56.35 32.5999 56.35 32.5999 56.3 32.5999L7.6 25.0999C5.2 25.0499 3.25 23.0999 3.25 20.7499C3.25 18.3499 5.2 16.3499 7.65 16.3499H48.9C53.4 16.3499 57 19.9999 57 24.4499V31.9499C57 32.1499 56.9 32.2999 56.8 32.3999C56.65 32.5499 56.5 32.5999 56.4 32.5999ZM7.6 17.5999C5.9 17.5999 4.5 18.9999 4.5 20.6999C4.5 22.3999 5.9 23.7999 7.6 23.7999C7.65 23.7999 7.65 23.7999 7.7 23.7999L55.75 31.1999V24.4999C55.75 20.6999 52.65 17.5999 48.85 17.5999H7.6Z" fill="white"/>
<path d="M56.4 28.25H52.45V35.75H56.4C58.45 35.75 60.15 34.05 60.15 32C60.1 29.95 58.45 28.25 56.4 28.25Z" fill="#CFE5FE"/>
<path d="M56.4 36.4H52.45C52.1 36.4 51.85 36.0999 51.85 35.7999V28.2999C51.85 27.9499 52.15 27.7 52.45 27.7H56.4C58.8 27.7 60.8 29.6499 60.8 32.0999C60.8 34.5499 58.8 36.4 56.4 36.4ZM53.05 35.0999H56.4C58.1 35.0999 59.5 33.7 59.5 32C59.5 30.3 58.1 28.9 56.4 28.9H53.05V35.0999Z" fill="white"/>
<path d="M30.1 35.2C37.3349 35.2 43.2 29.3349 43.2 22.1C43.2 14.8651 37.3349 9 30.1 9C22.8651 9 17 14.8651 17 22.1C17 29.3349 22.8651 35.2 30.1 35.2Z" fill="#F6CD29"/>
<path d="M30.1 35.7C37.3349 35.7 43.2 29.8349 43.2 22.6C43.2 15.3651 37.3349 9.5 30.1 9.5C22.8651 9.5 17 15.3651 17 22.6C17 29.8349 22.8651 35.7 30.1 35.7Z" fill="#FEE444"/>
<path d="M30.1001 35.8999C22.5001 35.8999 16.3501 29.7499 16.3501 22.1499C16.3501 14.5499 22.5501 8.3999 30.1001 8.3999C37.6501 8.3999 43.8501 14.5499 43.8501 22.1499C43.8501 29.7499 37.7001 35.8999 30.1001 35.8999ZM30.1001 9.5999C23.2001 9.5999 17.6001 15.1999 17.6001 22.0999C17.6001 28.9999 23.2001 34.5999 30.1001 34.5999C37.0001 34.5999 42.6001 28.9999 42.6001 22.0999C42.6001 15.1999 37.0001 9.5999 30.1001 9.5999Z" fill="white"/>
<g opacity="0.3">
<path d="M30.65 12C25.05 12 20.5 16.55 20.5 22.15C20.5 27.75 25.05 32.35 30.65 32.35C36.25 32.35 40.8 27.8 40.8 22.2C40.8 16.6 36.3 12 30.65 12Z" fill="#F6F7F6"/>
</g>
<path d="M30.1 32.8999C24.1501 32.8999 19.3 28.0499 19.3 22.0999C19.3 16.1499 24.1501 11.3499 30.1 11.3499C36.05 11.3499 40.9001 16.1999 40.9001 22.1499C40.9001 28.0999 36.1 32.8999 30.1 32.8999ZM30.1 12.5999C24.85 12.5999 20.55 16.8999 20.55 22.1499C20.55 27.3999 24.85 31.6999 30.1 31.6999C35.35 31.6999 39.6501 27.3999 39.6501 22.1499C39.6501 16.8999 35.4001 12.5999 30.1 12.5999Z" fill="white"/>
<path d="M48.8999 24.5H11.3999H7.6499C5.5999 24.5 3.8999 22.8 3.8999 20.75V32V54.5C3.8999 58.65 7.2499 62 11.3999 62H48.8999C53.0499 62 56.3999 58.65 56.3999 54.5V32C56.3999 27.85 52.9999 24.5 48.8999 24.5Z" fill="#0177FD"/>
<path opacity="0.2" d="M9.8999 54.5V32V24.5H7.6499C5.5999 24.5 3.8999 22.8 3.8999 20.75V32V54.5C3.8999 58.65 7.2499 62 11.3999 62H17.3999C13.2499 62 9.8999 58.65 9.8999 54.5Z" fill="#593055"/>
<path d="M48.9001 62.5999H11.4C6.90005 62.5999 3.30005 58.9499 3.30005 54.4999V20.7499C3.30005 20.3999 3.60005 20.1499 3.90005 20.1499C4.20005 20.1499 4.50005 20.3999 4.50005 20.7499C4.50005 22.4499 5.90005 23.8499 7.60005 23.8499H48.85C53.35 23.8499 56.9501 27.4999 56.9501 31.9499V54.4499C57 58.9999 53.3501 62.5999 48.9001 62.5999ZM4.50005 23.7999V54.4999C4.50005 58.2999 7.60005 61.3999 11.4 61.3999H48.9001C52.7001 61.3999 55.8 58.2999 55.8 54.4999V31.9999C55.8 28.1999 52.7001 25.0999 48.9001 25.0999H7.60005C6.40005 25.0999 5.30005 24.5999 4.50005 23.7999Z" fill="white"/>
<path d="M56.4 35.75H52.45H49.1C45.1 35.75 41.65 38.75 41.4 42.75C41.15 46.55 43.75 49.8 47.3 50.55H56.45C58.5 50.55 60.2 48.85 60.2 46.8V35.75V32C60.1 34.05 58.45 35.75 56.4 35.75Z" fill="#65C5B4"/>
<path d="M56.4 35.75H52.45H49.1C45.1 35.75 41.65 38.75 41.4 42.75C41.3 44.4 41.7 45.95 42.5 47.2C43.85 49.35 46.3 50.55 48.85 50.55H56.4C58.45 50.55 60.15 48.85 60.15 46.8V35.75V32C60.1 34.05 58.45 35.75 56.4 35.75Z" fill="#CFE5FE"/>
<path d="M56.4 51.2H48.85C46 51.2 43.35 49.7999 41.95 47.5499C41.05 46.0999 40.65 44.45 40.75 42.75C41 38.5 44.7 35.15 49.1 35.15H56.4C58.1 35.15 59.5 33.7499 59.5 32.0499C59.5 31.6999 59.8 31.45 60.1 31.45C60.4 31.45 60.7 31.7499 60.7 32.0499V46.9C60.75 49.25 58.8 51.2 56.4 51.2ZM49.05 36.4C45.3 36.4 42.2 39.1999 41.95 42.8499C41.85 44.2999 42.2 45.7 42.95 46.95C44.15 48.85 46.35 50 48.8 50H56.35C58.05 50 59.45 48.6 59.45 46.9V35.0499C58.65 35.8499 57.55 36.3499 56.35 36.3499H49.05V36.4Z" fill="white"/>
<path d="M48.85 47C50.921 47 52.6 45.3211 52.6 43.25C52.6 41.1789 50.921 39.5 48.85 39.5C46.7789 39.5 45.1 41.1789 45.1 43.25C45.1 45.3211 46.7789 47 48.85 47Z" fill="#FEE444"/>
<path d="M48.85 47C50.921 47 52.6 45.3211 52.6 43.25C52.6 41.1789 50.921 39.5 48.85 39.5C46.7789 39.5 45.1 41.1789 45.1 43.25C45.1 45.3211 46.7789 47 48.85 47Z" fill="#EE5037"/>
</svg>
